SplineFontDB: 3.2
FontName: FurnaceIcons
FullName: Furnace Icons
FamilyName: Furnace Icons
Weight: Regular
Copyright: 
UComments: "To generate a new icon:+AAoACgAA-- Open +ACIA-IBM Plex Sans Medium+ACIA to the side. Return to the icons font.+AAoA-- Copy char EFF0 (the one with just two baselines) to the new codepoint.+AAoA-- Open the new codepoint.+AAoA-- Select the upper baseline.+AAoA-- Use `Element | Insert Text Outlines...` to place text:+AAoA  - Turn off +ACIA-Scale so text width matches path length+ACIA.+AAoA  - Align +ACIA-centered+ACIA.+AAoA  - Type first line of text into the box.+AAoA  - Click the +ACIA-Insert+ACIA button (might need window resize to be visible).+AAoA-- Delete the baseline.+AAoA-- If there's a line 2, repeat for the lower baseline, including deletion.+AAoA-- Select all.+AAoA-- Use `Element | Transformations | Transform...` to Scale Uniformly and Move as needed:+AAoA  - One letter: 12000%, X -896, Y 120.5.+AAoA  - Two letters: 10000%, X -896, Y 204.2.+AAoA  - Three letters: 8000%, X -896, Y 288.+AAoA  - Two lines: 8000%, X -896, Y 723.5.+AAoA-- If resulting glyph is too wide, repeat all steps starting with +ACIA-IBM Plex Sans Condensed Medium+ACIA instead.+AAoA  - Remember to close the other IBM Plex font or select the proper one in the text dialog.+AAoACgAA-Note: Codepoints EFF0 to EFF4 are for reference and shouldn't be used.+AAoACgAA-Note: WSG icon (F01F) has been slightly kerned to fit.+AAoA"
Version: 001.000
ItalicAngle: 0
UnderlinePosition: 0
UnderlineWidth: 0
Ascent: 1536
Descent: 256
InvalidEm: 0
LayerCount: 2
Layer: 0 0 "Back" 1
Layer: 1 0 "Fore" 0
XUID: [1021 230 235539655 14169]
FSType: 0
OS2Version: 0
OS2_WeightWidthSlopeOnly: 0
OS2_UseTypoMetrics: 0
CreationTime: 1691897631
ModificationTime: 1692064247
PfmFamily: 81
TTFWeight: 400
TTFWidth: 5
LineGap: 0
VLineGap: 0
OS2TypoAscent: 1536
OS2TypoAOffset: 0
OS2TypoDescent: -256
OS2TypoDOffset: 0
OS2TypoLinegap: 0
OS2WinAscent: 1536
OS2WinAOffset: 0
OS2WinDescent: 256

StartChar: uniE100
Encoding: 57600 57600 1
Width: 1792
VWidth: 1732
Flags: HW
HStem: 216.516 95.9375<754.864 980.648 1382.09 1612.77> 494.875 95.0781<141.391 377.778 1516.16 1654.36> 813.625 95.9375<141.391 377.778 780.433 998.844 1381.56 1608.87>
VStem: 32.9531 108.438<228 494.875 589.953 803.078> 401.547 114.297<612.194 780.759> 648.969 107.5<656.387 792.68> 1008.97 107.5<339.565 486.758> 1203.19 116.172<375.958 749.848> 1663.97 95.0781<228 329.797 361.503 491.984>
DStem2: 863.031 629.25 844.75 526.594 0.978916 -0.204262<-84.378 149.631>
LayerCount: 2
UndoRedoHistory
Layer: 0
Undoes
UndoOperation
Index: 0
Type: 1
WasModified: 0
WasOrder2: 0
Layer: 2
Width: 1792
VWidth: 1792
LBearingChange: 0
UnicodeEnc: 0
InstructionsLength: 0
EndUndoOperation
EndUndoes
Redoes
EndRedoes
EndUndoRedoHistory
UndoRedoHistory
Layer: 1
Undoes
UndoOperation
Index: 0
Type: 3
WasModified: 0
WasOrder2: 0
Layer: 2
HStem: 276.516 95.9375<754.864 980.648 1382.09 1612.77> 554.875 95.0781<141.391 377.778 1516.16 1654.36> 873.625 95.9375<141.391 377.778 780.433 998.844 1381.56 1608.87>
VStem: 32.9531 108.438<288 554.875 649.953 863.078> 401.547 114.297<672.194 840.759> 648.969 107.5<716.387 852.68> 1008.97 107.5<399.565 546.758> 1203.19 116.172<435.958 809.848> 1663.97 95.0781<288 389.797 421.503 551.984>
DStem2: 863.031 689.25 844.75 586.594 0.978916 -0.204262<-84.378 149.631>
EndUndoOperation
EndUndoes
Redoes
EndRedoes
EndUndoRedoHistory
Fore
SplineSet
32.953125 228 m 1
 32.953125 451.359375 32.953125 674.71875 32.953125 898.078125 c 1
 128.942382812 898.078125 224.932617188 898.078125 320.921875 898.078125 c 1
 383.03125 898.078125 431 879.875 464.90625 843.390625 c 0
 498.890625 806.90625 515.84375 757.921875 515.84375 696.515625 c 256
 515.84375 635.03125 498.890625 586.046875 464.90625 549.5625 c 0
 431 513.15625 383.03125 494.875 320.921875 494.875 c 1
 261.078125 494.875 201.234375 494.875 141.390625 494.875 c 1
 141.390625 405.916992188 141.390625 316.958007812 141.390625 228 c 1
 105.245117188 228 69.0986328125 228 32.953125 228 c 1
141.390625 589.953125 m 1
 198.995117188 589.953125 256.598632812 589.953125 314.203125 589.953125 c 1
 341.703125 589.953125 363.1875 597.140625 378.5 611.515625 c 0
 393.890625 625.890625 401.546875 646.59375 401.546875 673.46875 c 1
 401.546875 688.807617188 401.546875 704.145507812 401.546875 719.484375 c 1
 401.546875 746.4375 393.890625 767.0625 378.5 781.4375 c 0
 363.1875 795.8125 341.703125 803.078125 314.203125 803.078125 c 1
 256.598632812 803.078125 198.995117188 803.078125 141.390625 803.078125 c 1
 141.390625 732.036132812 141.390625 660.995117188 141.390625 589.953125 c 1
873.578125 216.515625 m 0
 817.25 216.515625 769.4375 226.75 730.0625 247.21875 c 0
 690.6875 267.6875 656.9375 295.1875 628.8125 329.796875 c 1
 653.760742188 353.15625 678.708007812 376.515625 703.65625 399.875 c 1
 727.328125 371.046875 753.421875 349.25 781.859375 334.5625 c 0
 810.375 319.875 842.875 312.453125 879.359375 312.453125 c 0
 922.25 312.453125 954.515625 322.0625 976.3125 341.28125 c 0
 998.03125 360.5 1008.96875 386.4375 1008.96875 419.015625 c 0
 1008.96875 445.265625 1001.234375 466.046875 985.921875 481.4375 c 0
 970.53125 496.828125 943.34375 508.3125 904.28125 515.96875 c 1
 884.4375 519.510742188 864.59375 523.051757812 844.75 526.59375 c 1
 779.515625 538.703125 730.53125 560.1875 697.875 590.890625 c 0
 665.21875 621.59375 648.96875 663.859375 648.96875 717.609375 c 0
 648.96875 747.0625 654.515625 773.78125 665.765625 797.765625 c 0
 676.9375 821.75 692.640625 841.90625 712.796875 858.234375 c 0
 732.953125 874.5625 757.40625 887.21875 786.234375 896.125 c 0
 814.984375 905.109375 847.328125 909.5625 883.1875 909.5625 c 0
 933.734375 909.5625 977.5625 900.8125 1014.671875 883.234375 c 0
 1051.78125 865.578125 1083.5 840.1875 1109.75 806.90625 c 1
 1084.46386719 784.510742188 1059.17675781 762.114257812 1033.890625 739.71875 c 1
 1016.625 762.0625 995.53125 780.03125 970.53125 793.46875 c 0
 945.609375 806.90625 914.515625 813.625 877.40625 813.625 c 0
 839.046875 813.625 809.28125 805.890625 788.109375 790.578125 c 0
 767.015625 775.1875 756.46875 752.765625 756.46875 723.390625 c 0
 756.46875 695.1875 765.0625 674.25 782.40625 660.5 c 0
 799.671875 646.75 826.546875 636.28125 863.03125 629.25 c 1
 882.875 625.109375 902.71875 620.96875 922.5625 616.828125 c 1
 989.75 604.015625 1038.890625 582.21875 1069.90625 551.515625 c 0
 1100.921875 520.8125 1116.46875 478.546875 1116.46875 424.796875 c 0
 1116.46875 393.46875 1111 364.953125 1100.140625 339.328125 c 0
 1089.28125 313.78125 1073.421875 291.828125 1052.640625 273.625 c 0
 1031.78125 255.34375 1006.390625 241.28125 976.3125 231.359375 c 0
 946.234375 221.4375 911.9375 216.515625 873.578125 216.515625 c 0
1663.96875 329.796875 m 1
 1662.69238281 329.796875 1661.41699219 329.796875 1660.140625 329.796875 c 1
 1653.109375 297.140625 1634.046875 270.109375 1603.03125 248.625 c 0
 1571.9375 227.21875 1530.84375 216.515625 1479.671875 216.515625 c 0
 1439.984375 216.515625 1403.1875 224.015625 1369.28125 239.015625 c 0
 1335.296875 254.09375 1306.078125 276.125 1281.390625 305.265625 c 0
 1256.78125 334.40625 1237.5625 370.578125 1223.8125 413.78125 c 0
 1210.0625 456.984375 1203.1875 506.75 1203.1875 563.078125 c 0
 1203.1875 618.703125 1210.21875 668.15625 1224.28125 711.359375 c 0
 1238.34375 754.5625 1258.1875 790.890625 1283.8125 820.34375 c 0
 1309.4375 849.796875 1340.140625 871.984375 1376 887.0625 c 0
 1411.78125 902.0625 1451.78125 909.5625 1496 909.5625 c 0
 1556.15625 909.5625 1607.015625 896.28125 1648.578125 869.796875 c 0
 1690.21875 843.234375 1722.5625 806.203125 1745.609375 758.859375 c 1
 1716.15625 741.59375 1686.703125 724.328125 1657.25 707.0625 c 1
 1644.4375 738.390625 1624.59375 763.859375 1597.71875 783.390625 c 0
 1570.84375 802.84375 1536.9375 812.609375 1496 812.609375 c 0
 1442.875 812.609375 1400.140625 795.65625 1367.796875 761.75 c 0
 1335.53125 727.84375 1319.359375 679.875 1319.359375 617.765625 c 1
 1319.359375 581.28125 1319.359375 544.796875 1319.359375 508.3125 c 1
 1319.359375 446.203125 1335.53125 398.234375 1367.796875 364.328125 c 0
 1400.140625 330.421875 1442.875 313.46875 1496 313.46875 c 0
 1517.09375 313.46875 1537.25 316.125 1556.46875 321.59375 c 0
 1575.6875 327.0625 1592.484375 335.03125 1606.859375 345.578125 c 0
 1621.234375 356.125 1632.796875 369.25 1641.390625 384.953125 c 0
 1650.0625 400.65625 1654.359375 419.015625 1654.359375 440.1875 c 1
 1654.359375 457.453125 1654.359375 474.71875 1654.359375 491.984375 c 1
 1608.29199219 491.984375 1562.22363281 491.984375 1516.15625 491.984375 c 1
 1516.15625 523.026367188 1516.15625 554.067382812 1516.15625 585.109375 c 1
 1597.12011719 585.109375 1678.08300781 585.109375 1759.046875 585.109375 c 1
 1759.046875 466.073242188 1759.046875 347.036132812 1759.046875 228 c 1
 1727.35449219 228 1695.66113281 228 1663.96875 228 c 1
 1663.96875 261.932617188 1663.96875 295.864257812 1663.96875 329.796875 c 1
EndSplineSet
EndChar

StartChar: uniE101
Encoding: 57601 57601 2
Width: 1792
VWidth: 1732
Flags: HW
HStem: 216.516 90.2344<203.228 410.876> 498.703 90.2344<815.531 1024.71> 807.844 90.2344<194.777 419.326 815.531 1024.71>
VStem: 46.8594 109.453<354.775 771.303> 457.719 109.453<354.775 771.303> 713.734 101.797<228 498.703 588.938 807.844> 1043.97 108.516<608.279 788.506> 1273.73 117.109<822.653 898.078> 1273.73 97.9688<228 753.051> 1627.02 118.125<228 303.425> 1647.17 97.9688<373.027 898.078>
DStem2: 1590.53 495.812 1376.47 755.031 0.377481 -0.926017<-320.846 135.117>
LayerCount: 2
UndoRedoHistory
Layer: 0
Undoes
UndoOperation
Index: 0
Type: 1
WasModified: 0
WasOrder2: 0
Layer: 2
Width: 1792
VWidth: 1792
LBearingChange: 0
UnicodeEnc: 0
InstructionsLength: 0
EndUndoOperation
EndUndoes
Redoes
EndRedoes
EndUndoRedoHistory
UndoRedoHistory
Layer: 1
Undoes
UndoOperation
Index: 0
Type: 3
WasModified: 0
WasOrder2: 0
Layer: 2
HStem: 276.516 90.2344<203.228 410.876> 558.703 90.2344<815.531 1024.71> 867.844 90.2344<194.777 419.326 815.531 1024.71>
VStem: 46.8594 109.453<414.775 831.303> 457.719 109.453<414.775 831.303> 713.734 101.797<288 558.703 648.938 867.844> 1043.97 108.516<668.279 848.506> 1273.73 117.109<882.653 958.078> 1273.73 97.9688<288 813.051> 1627.02 118.125<288 363.425> 1647.17 97.9688<433.027 958.078>
DStem2: 1590.53 555.812 1376.47 815.031 0.377481 -0.926017<-320.846 135.117>
EndUndoOperation
EndUndoes
Redoes
EndRedoes
EndUndoRedoHistory
Fore
SplineSet
307.015625 216.515625 m 256xfe
 266.703125 216.515625 230.53125 223.078125 198.578125 236.125 c 0
 166.546875 249.25 139.203125 269.953125 116.46875 298.078125 c 0
 93.734375 326.203125 76.46875 362.21875 64.59375 406.046875 c 0
 52.796875 449.953125 46.859375 502.21875 46.859375 563.078125 c 256
 46.859375 623.859375 52.796875 676.125 64.59375 720.03125 c 0
 76.46875 763.859375 93.734375 799.875 116.46875 828 c 0
 139.203125 856.125 166.546875 876.828125 198.578125 889.953125 c 0
 230.53125 903.078125 266.703125 909.5625 307.015625 909.5625 c 256
 347.328125 909.5625 383.5 903.078125 415.53125 889.953125 c 0
 447.484375 876.828125 474.90625 856.125 497.5625 828 c 0
 520.296875 799.875 537.5625 763.859375 549.4375 720.03125 c 0
 561.234375 676.125 567.171875 623.859375 567.171875 563.078125 c 256
 567.171875 502.21875 561.234375 449.953125 549.4375 406.046875 c 0
 537.5625 362.21875 520.296875 326.203125 497.5625 298.078125 c 0
 474.90625 269.953125 447.484375 249.25 415.53125 236.125 c 0
 383.5 223.078125 347.328125 216.515625 307.015625 216.515625 c 256xfe
307.015625 306.75 m 256
 355.0625 306.75 392.171875 322.21875 418.421875 353.3125 c 0
 444.59375 384.328125 457.71875 427.375 457.71875 482.375 c 1
 457.71875 536.151367188 457.71875 589.926757812 457.71875 643.703125 c 1
 457.71875 698.703125 444.59375 741.75 418.421875 772.765625 c 0
 392.171875 803.859375 355.0625 819.328125 307.015625 819.328125 c 256
 259.046875 819.328125 221.9375 803.859375 195.6875 772.765625 c 0
 169.4375 741.75 156.3125 698.703125 156.3125 643.703125 c 1
 156.3125 589.926757812 156.3125 536.151367188 156.3125 482.375 c 1
 156.3125 427.375 169.4375 384.328125 195.6875 353.3125 c 0
 221.9375 322.21875 259.046875 306.75 307.015625 306.75 c 256
713.734375 228 m 1
 713.734375 451.359375 713.734375 674.71875 713.734375 898.078125 c 1
 802.067382812 898.078125 890.401367188 898.078125 978.734375 898.078125 c 1
 1036.3125 898.078125 1079.671875 880.96875 1108.8125 846.75 c 0
 1137.875 812.453125 1152.484375 763.078125 1152.484375 698.390625 c 256
 1152.484375 633.78125 1137.875 584.328125 1108.8125 550.109375 c 0
 1079.671875 515.8125 1036.3125 498.703125 978.734375 498.703125 c 1
 924.333007812 498.703125 869.932617188 498.703125 815.53125 498.703125 c 1
 815.53125 408.46875 815.53125 318.234375 815.53125 228 c 1
 781.598632812 228 747.666992188 228 713.734375 228 c 1
815.53125 588.9375 m 1
 867.041992188 588.9375 918.551757812 588.9375 970.0625 588.9375 c 1
 994.359375 588.9375 1012.796875 595.1875 1025.296875 607.6875 c 0
 1037.71875 620.1875 1043.96875 640.1875 1043.96875 667.6875 c 1
 1043.96875 688.15625 1043.96875 708.625 1043.96875 729.09375 c 1
 1043.96875 756.671875 1037.71875 776.671875 1025.296875 789.09375 c 0
 1012.796875 801.59375 994.359375 807.84375 970.0625 807.84375 c 1
 918.551757812 807.84375 867.041992188 807.84375 815.53125 807.84375 c 1
 815.53125 734.875 815.53125 661.90625 815.53125 588.9375 c 1
1427.328125 630.265625 m 1
 1410.375 671.854492188 1393.421875 713.442382812 1376.46875 755.03125 c 1
 1372.30175781 755.03125 1368.13574219 755.03125 1363.96875 755.03125 c 1
 1366.546875 712.791992188 1369.125 670.551757812 1371.703125 628.3125 c 1
 1371.703125 494.875 1371.703125 361.4375 1371.703125 228 c 1
 1339.046875 228 1306.390625 228 1273.734375 228 c 1xfec0
 1273.734375 451.359375 1273.734375 674.71875 1273.734375 898.078125 c 1
 1312.77050781 898.078125 1351.80761719 898.078125 1390.84375 898.078125 c 1
 1457.40625 763.989257812 1523.96875 629.901367188 1590.53125 495.8125 c 1
 1607.82324219 454.223632812 1625.11425781 412.635742188 1642.40625 371.046875 c 1
 1646.57324219 371.046875 1650.73925781 371.046875 1654.90625 371.046875 c 1
 1652.328125 413.286132812 1649.75 455.526367188 1647.171875 497.765625 c 1
 1647.171875 631.203125 1647.171875 764.640625 1647.171875 898.078125 c 1
 1679.828125 898.078125 1712.484375 898.078125 1745.140625 898.078125 c 1xff20
 1745.140625 674.71875 1745.140625 451.359375 1745.140625 228 c 1
 1705.765625 228 1666.390625 228 1627.015625 228 c 1xfe40
 1560.453125 362.088867188 1493.890625 496.176757812 1427.328125 630.265625 c 1
EndSplineSet
EndChar

StartChar: uniE102
Encoding: 57602 57602 3
Width: 1792
VWidth: 1732
Flags: HW
HStem: 129.845 121.191<399.409 663.663> 144.2 116.406<1138.19 1452.86> 474.181 116.406<556.547 729.398> 515.001 112.793<1138.19 1425.21> 865.392 116.406<1138.19 1425.21> 874.962 121.191<400.057 661.626>
VStem: 165.336 145.312<342.614 782.606> 741.312 118.945<144.2 271.446 322.934 474.181> 1002.64 135.547<260.606 515.001 627.794 865.392> 1453.81 142.773<654.386 838.799> 1483.7 142.969<289.11 486.498>
LayerCount: 2
UndoRedoHistory
Layer: 0
Undoes
UndoOperation
Index: 0
Type: 1
WasModified: 0
WasOrder2: 0
Layer: 2
Width: 1792
VWidth: 1792
LBearingChange: 0
UnicodeEnc: 0
InstructionsLength: 0
EndUndoOperation
EndUndoes
Redoes
EndRedoes
EndUndoRedoHistory
UndoRedoHistory
Layer: 1
Undoes
UndoOperation
Index: 0
Type: 3
WasModified: 0
WasOrder2: 0
Layer: 2
HStem: 189.845 121.191<399.409 663.663> 204.2 116.406<1138.19 1452.86> 534.181 116.406<556.547 729.398> 575.001 112.793<1138.19 1425.21> 925.392 116.406<1138.19 1425.21> 934.962 121.191<400.057 661.626>
VStem: 165.336 145.312<402.614 842.606> 741.312 118.945<204.2 331.446 382.934 534.181> 1002.64 135.547<320.606 575.001 687.794 925.392> 1453.81 142.773<714.386 898.799> 1483.7 142.969<349.11 546.498>
EndUndoOperation
EndUndoes
Redoes
EndRedoes
EndUndoRedoHistory
Fore
SplineSet
741.3125 271.446289062 m 1x6380
 739.75 271.446289062 738.1875 271.446289062 736.625 271.446289062 c 1
 727.8359375 230.625976562 704.0078125 196.836914062 665.140625 169.981445312 c 0
 626.2734375 143.223632812 574.90625 129.844726562 511.0390625 129.844726562 c 0
 461.4296875 129.844726562 415.3359375 139.219726562 372.953125 157.969726562 c 0
 330.5703125 176.817382812 294.046875 204.356445312 263.1875 240.782226562 c 0
 232.328125 277.208007812 208.3046875 322.422851562 191.1171875 376.426757812 c 0
 173.9296875 430.430664062 165.3359375 492.637695312 165.3359375 563.047851562 c 0
 165.3359375 632.579101562 174.125 694.395507812 191.703125 748.399414062 c 0
 209.28125 802.403320312 234.0859375 847.813476562 266.1171875 884.629882812 c 0
 298.1484375 921.446289062 336.625 949.180664062 381.3515625 968.028320312 c 0
 426.078125 986.778320312 476.078125 996.153320312 531.3515625 996.153320312 c 0
 606.546875 996.153320312 670.21875 979.551757812 722.171875 946.446289062 c 0
 774.125 913.243164062 814.5546875 866.954101562 843.4609375 807.774414062 c 1
 806.612304688 786.192382812 769.762695312 764.610351562 732.9140625 743.028320312 c 1
 716.8984375 782.188476562 692.09375 814.024414062 658.5 838.438476562 c 0
 624.90625 862.754882812 582.5234375 874.961914062 531.3515625 874.961914062 c 0
 464.9453125 874.961914062 411.625 853.770507812 371.1953125 811.387695312 c 0
 330.765625 769.004882812 310.6484375 709.043945312 310.6484375 631.407226562 c 1
 310.6484375 585.801757812 310.6484375 540.196289062 310.6484375 494.590820312 c 1
 310.6484375 416.954101562 330.765625 356.993164062 371.1953125 314.610351562 c 0
 411.625 272.227539062 464.9453125 251.036132812 531.3515625 251.036132812 c 0x8780
 557.71875 251.036132812 582.9140625 254.356445312 606.9375 261.192382812 c 0
 630.9609375 268.028320312 652.0546875 277.989257812 670.0234375 291.172851562 c 0
 687.9921875 304.356445312 702.4453125 320.762695312 713.1875 340.391601562 c 0
 723.9296875 360.020507812 729.3984375 382.969726562 729.3984375 409.434570312 c 1
 729.3984375 431.016601562 729.3984375 452.598632812 729.3984375 474.180664062 c 1
 671.78125 474.180664062 614.1640625 474.180664062 556.546875 474.180664062 c 1
 556.546875 512.982421875 556.546875 551.784179688 556.546875 590.586914062 c 1
 657.784179688 590.586914062 759.020507812 590.586914062 860.2578125 590.586914062 c 1
 860.2578125 441.791015625 860.2578125 292.995117188 860.2578125 144.200195312 c 1
 820.609375 144.200195312 780.9609375 144.200195312 741.3125 144.200195312 c 1
 741.3125 186.615234375 741.3125 229.030273438 741.3125 271.446289062 c 1x6380
1002.640625 981.797851562 m 1x4ba0
 1126.20800781 981.797851562 1249.77636719 981.797851562 1373.34375 981.797851562 c 1
 1442.875 981.797851562 1497.5625 962.168945312 1537.2109375 923.008789062 c 0
 1576.859375 883.848632812 1596.5859375 831.407226562 1596.5859375 765.782226562 c 0x4bc0
 1596.5859375 734.629882812 1592.09375 707.969726562 1583.3046875 685.997070312 c 0
 1574.515625 664.024414062 1563.3828125 645.958007812 1549.7109375 631.993164062 c 0
 1536.234375 618.028320312 1520.609375 607.579101562 1503.03125 600.840820312 c 0
 1485.453125 594.004882812 1468.265625 589.805664062 1451.2734375 588.243164062 c 1
 1451.2734375 585.833984375 1451.2734375 583.424804688 1451.2734375 581.016601562 c 1
 1468.265625 580.235351562 1486.8203125 576.231445312 1507.1328125 569.004882812 c 0
 1527.640625 561.778320312 1546.5859375 550.352539062 1564.1640625 534.825195312 c 0
 1581.7421875 519.200195312 1596.5859375 499.180664062 1608.5 474.766601562 c 0
 1620.609375 450.352539062 1626.6640625 420.567382812 1626.6640625 385.411132812 c 0
 1626.6640625 351.817382812 1621.1953125 320.176757812 1610.453125 290.586914062 c 0
 1599.515625 260.997070312 1584.4765625 235.411132812 1565.3359375 213.829101562 c 0
 1546.1953125 192.247070312 1523.34375 175.157226562 1496.9765625 162.754882812 c 0
 1470.609375 150.352539062 1441.703125 144.200195312 1410.6484375 144.200195312 c 1
 1274.64550781 144.200195312 1138.64355469 144.200195312 1002.640625 144.200195312 c 1
 1002.640625 423.399414062 1002.640625 702.598632812 1002.640625 981.797851562 c 1x4ba0
1138.1875 260.606445312 m 1
 1215.79199219 260.606445312 1293.39550781 260.606445312 1371 260.606445312 c 1
 1406.15625 260.606445312 1433.6953125 269.786132812 1453.8125 288.243164062 c 0x53c0
 1473.734375 306.602539062 1483.6953125 332.969726562 1483.6953125 367.442382812 c 1
 1483.6953125 381.016601562 1483.6953125 394.590820312 1483.6953125 408.165039062 c 1x53a0
 1483.6953125 442.637695312 1473.734375 469.004882812 1453.8125 487.364257812 c 0
 1433.6953125 505.821289062 1406.15625 515.000976562 1371 515.000976562 c 1
 1293.39550781 515.000976562 1215.79199219 515.000976562 1138.1875 515.000976562 c 1x53c0
 1138.1875 430.202148438 1138.1875 345.404296875 1138.1875 260.606445312 c 1
1138.1875 627.793945312 m 1
 1208.17480469 627.793945312 1278.16113281 627.793945312 1348.1484375 627.793945312 c 1
 1381.7421875 627.793945312 1407.71875 636.387695312 1426.078125 653.575195312 c 0
 1444.6328125 670.762695312 1453.8125 695.372070312 1453.8125 727.403320312 c 1
 1453.8125 740.196289062 1453.8125 752.989257812 1453.8125 765.782226562 c 1
 1453.8125 797.813476562 1444.6328125 822.422851562 1426.078125 839.610351562 c 0
 1407.71875 856.797851562 1381.7421875 865.391601562 1348.1484375 865.391601562 c 1
 1278.16113281 865.391601562 1208.17480469 865.391601562 1138.1875 865.391601562 c 1x1bc0
 1138.1875 786.192382812 1138.1875 706.993164062 1138.1875 627.793945312 c 1
EndSplineSet
EndChar

StartChar: uniE103
Encoding: 57603 57603 4
Width: 1792
VWidth: 1732
Flags: HW
HStem: 216.516 96.9531<226.177 441.873 832.752 1027.57> 358.547 85.4688<1326.08 1544.91 1647.64 1738.89> 564.016 87.3438<857.168 1024.42> 799.172 98.9062<1514.99 1544.91> 812.609 96.9531<226.122 440.941>
VStem: 53.1094 115.156<375.807 753.111> 694.047 112.344<336.954 531.784> 1054.05 111.406<336.954 531.784> 1544.91 102.734<228 358.547 444.016 799.172>
DStem2: 1233.89 451.672 1326.08 444.016 0.512745 0.858541<40.6955 454.37>
LayerCount: 2
UndoRedoHistory
Layer: 0
Undoes
UndoOperation
Index: 0
Type: 1
WasModified: 0
WasOrder2: 0
Layer: 2
Width: 1792
VWidth: 1792
LBearingChange: 0
UnicodeEnc: 0
InstructionsLength: 0
EndUndoOperation
EndUndoes
Redoes
EndRedoes
EndUndoRedoHistory
UndoRedoHistory
Layer: 1
Undoes
UndoOperation
Index: 0
Type: 3
WasModified: 0
WasOrder2: 0
Layer: 2
HStem: 276.516 96.9531<226.177 441.873 832.752 1027.57> 418.547 85.4688<1326.08 1544.91 1647.64 1738.89> 624.016 87.3438<857.168 1024.42> 859.172 98.9062<1514.99 1544.91> 872.609 96.9531<226.122 440.941>
VStem: 53.1094 115.156<435.807 813.111> 694.047 112.344<396.954 591.784> 1054.05 111.406<396.954 591.784> 1544.91 102.734<288 418.547 504.016 859.172>
DStem2: 1233.89 511.672 1326.08 504.016 0.512745 0.858541<40.6955 454.37>
EndUndoOperation
EndUndoes
Redoes
EndRedoes
EndUndoRedoHistory
Fore
SplineSet
334.359375 216.515625 m 0xef80
 246.703125 216.515625 177.875 246.046875 127.953125 305.265625 c 0
 78.03125 364.484375 53.109375 450.421875 53.109375 563.078125 c 0
 53.109375 619.328125 59.515625 668.9375 72.328125 711.828125 c 0
 85.0625 754.71875 103.65625 790.890625 127.953125 820.34375 c 0
 152.328125 849.796875 181.859375 871.984375 216.78125 887.0625 c 0
 251.625 902.0625 290.84375 909.5625 334.359375 909.5625 c 0
 392.640625 909.5625 441.390625 896.828125 480.765625 871.203125 c 0
 520.140625 845.578125 551 807.84375 573.421875 757.921875 c 1
 543.03125 741.28125 512.640625 724.640625 482.25 708 c 1
 470.6875 740.03125 452.953125 765.421875 428.96875 784.328125 c 0
 404.90625 803.234375 373.421875 812.609375 334.359375 812.609375 c 0
 282.5625 812.609375 241.859375 795.03125 212.484375 759.875 c 0
 183.03125 724.640625 168.265625 675.96875 168.265625 613.9375 c 1
 168.265625 580.004882812 168.265625 546.073242188 168.265625 512.140625 c 1
 168.265625 450.109375 183.03125 401.4375 212.484375 366.203125 c 0
 241.859375 331.046875 282.5625 313.46875 334.359375 313.46875 c 0
 374.671875 313.46875 407.484375 323.859375 432.796875 344.640625 c 0
 458.03125 365.421875 476.78125 392.140625 488.96875 424.796875 c 1
 518.083007812 407.192382812 547.198242188 389.588867188 576.3125 371.984375 c 1
 553.890625 323.390625 522.5625 285.265625 482.25 257.765625 c 0
 441.859375 230.265625 392.640625 216.515625 334.359375 216.515625 c 0xef80
930.21875 216.515625 m 0
 893.109375 216.515625 859.984375 222.53125 830.84375 234.71875 c 0
 801.703125 246.90625 777.09375 264.328125 756.9375 287.0625 c 0
 736.78125 309.796875 721.234375 337.140625 710.375 369.09375 c 0
 699.515625 401.125 694.046875 437.296875 694.046875 477.609375 c 0
 694.046875 526.203125 701.390625 571.984375 716.15625 614.875 c 0
 730.84375 657.765625 749.75 697.140625 772.796875 732.921875 c 0
 795.84375 768.78125 821.546875 800.65625 850.0625 828.46875 c 0
 878.5 856.28125 906.546875 879.484375 934.046875 898.078125 c 1
 982.041992188 898.078125 1030.03613281 898.078125 1078.03125 898.078125 c 1xf780
 1040.296875 870.578125 1006.390625 844.015625 976.3125 818.390625 c 0
 946.234375 792.765625 919.984375 766.59375 897.5625 739.71875 c 0
 875.140625 712.765625 856.46875 684.328125 841.390625 654.25 c 0
 826.390625 624.171875 814.671875 591.203125 806.390625 555.34375 c 1
 808.629882812 554.71875 810.870117188 554.09375 813.109375 553.46875 c 1
 820.140625 566.90625 828.265625 579.484375 837.5625 591.359375 c 0
 846.859375 603.234375 857.71875 613.625 870.21875 622.53125 c 0
 882.71875 631.515625 896.9375 638.546875 912.953125 643.703125 c 0
 928.96875 648.78125 947.484375 651.359375 968.578125 651.359375 c 0
 996.78125 651.359375 1022.875 646.59375 1046.859375 636.984375 c 0
 1070.84375 627.375 1091.625 613.46875 1109.28125 595.1875 c 0
 1126.859375 576.984375 1140.609375 555.03125 1150.53125 529.40625 c 0
 1160.453125 503.859375 1165.453125 475.34375 1165.453125 444.015625 c 0
 1165.453125 410.109375 1159.828125 379.171875 1148.578125 351.359375 c 0
 1137.40625 323.546875 1121.546875 299.71875 1101.078125 279.875 c 0
 1080.609375 260.03125 1055.84375 244.484375 1026.703125 233.3125 c 0
 997.5625 222.0625 965.453125 216.515625 930.21875 216.515625 c 0
930.21875 304.796875 m 256
 969.28125 304.796875 999.671875 315.1875 1021.390625 335.96875 c 0
 1043.1875 356.828125 1054.046875 387.375 1054.046875 427.6875 c 1
 1054.046875 432.166992188 1054.046875 436.645507812 1054.046875 441.125 c 1
 1054.046875 481.4375 1043.1875 511.984375 1021.390625 532.765625 c 0
 999.671875 553.625 969.28125 564.015625 930.21875 564.015625 c 256
 891.15625 564.015625 860.765625 553.625 839.046875 532.765625 c 0
 817.25 511.984375 806.390625 481.4375 806.390625 441.125 c 1
 806.390625 436.645507812 806.390625 432.166992188 806.390625 427.6875 c 1
 806.390625 387.375 817.25 356.828125 839.046875 335.96875 c 0
 860.765625 315.1875 891.15625 304.796875 930.21875 304.796875 c 256
1544.90625 228 m 1
 1544.90625 271.515625 1544.90625 315.03125 1544.90625 358.546875 c 1
 1441.234375 358.546875 1337.5625 358.546875 1233.890625 358.546875 c 1
 1233.890625 389.588867188 1233.890625 420.629882812 1233.890625 451.671875 c 1
 1324.46386719 600.473632812 1415.03613281 749.276367188 1505.609375 898.078125 c 1
 1552.953125 898.078125 1600.296875 898.078125 1647.640625 898.078125 c 1
 1647.640625 746.723632812 1647.640625 595.370117188 1647.640625 444.015625 c 1
 1678.05761719 444.015625 1708.47363281 444.015625 1738.890625 444.015625 c 1
 1738.890625 415.526367188 1738.890625 387.036132812 1738.890625 358.546875 c 1
 1708.47363281 358.546875 1678.05761719 358.546875 1647.640625 358.546875 c 1
 1647.640625 315.03125 1647.640625 271.515625 1647.640625 228 c 1
 1613.39550781 228 1579.15136719 228 1544.90625 228 c 1
1326.078125 444.015625 m 1
 1399.02050781 444.015625 1471.96386719 444.015625 1544.90625 444.015625 c 1
 1544.90625 562.401367188 1544.90625 680.786132812 1544.90625 799.171875 c 1
 1542.66699219 799.171875 1540.42675781 799.171875 1538.1875 799.171875 c 1
 1467.484375 680.786132812 1396.78125 562.401367188 1326.078125 444.015625 c 1
EndSplineSet
EndChar

StartChar: uniE104
Encoding: 57604 57604 5
Width: 1792
VWidth: 1732
Flags: HW
HStem: -202.516 96.0156<1128.27 1400.92> 64.359 95.0781<488.266 724.653> 372.562 95<488.266 724.653> 652.016 95.9375<411.817 637.602> 1249.12 95.9375<437.386 655.798>
VStem: 305.922 107.5<1091.89 1228.18> 379.828 108.438<-202.516 64.359 159.438 372.562> 665.922 107.5<775.065 922.258> 748.422 114.297<181.678 350.243> 889.906 103.672<663.5 1176.16> 1019.83 108.438<-106.5 467.562> 1402.56 103.672<663.5 1176.16>
DStem2: 519.984 1064.75 501.703 962.09 0.978916 -0.204262<-84.378 149.631> 1018.5 1333.58 998.344 1176.16 0.468722 -0.883346<129.61 385.178> 1203.81 992.8 1344.91 1067.64 0.468722 0.883346<0 252.858>
LayerCount: 2
UndoRedoHistory
Layer: 0
Undoes
UndoOperation
Index: 0
Type: 1
WasModified: 0
WasOrder2: 0
Layer: 2
Width: 1792
VWidth: 1792
LBearingChange: 0
UnicodeEnc: 0
InstructionsLength: 0
EndUndoOperation
EndUndoes
Redoes
EndRedoes
EndUndoRedoHistory
UndoRedoHistory
Layer: 1
Undoes
UndoOperation
Index: 0
Type: 3
WasModified: 0
WasOrder2: 0
Layer: 2
HStem: -142.516 96.0156<1128.27 1400.92> 124.359 95.0781<488.266 724.653> 432.562 95<488.266 724.653> 712.016 95.9375<411.817 637.602> 1309.12 95.9375<437.386 655.798>
VStem: 305.922 107.5<1151.89 1288.18> 379.828 108.438<-142.516 124.359 219.438 432.562> 665.922 107.5<835.065 982.258> 748.422 114.297<241.678 410.243> 889.906 103.672<723.5 1236.16> 1019.83 108.438<-46.5 527.562> 1402.56 103.672<723.5 1236.16>
DStem2: 519.984 1124.75 501.703 1022.09 0.978916 -0.204262<-84.378 149.631> 1018.5 1393.58 998.344 1236.16 0.468722 -0.883346<129.61 385.178> 1203.81 1052.8 1344.91 1127.64 0.468722 0.883346<0 252.858>
EndUndoOperation
EndUndoes
Redoes
EndRedoes
EndUndoRedoHistory
Fore
SplineSet
379.828125 -202.515625 m 1xfaf0
 379.828125 -184.07421875 l 4
 379.828125 467.5625 l 1
 475.817382812 467.5625 571.807617188 467.5625 667.796875 467.5625 c 1
 729.90625 467.5625 777.875 449.359375 811.78125 412.875 c 0
 845.765625 376.390625 862.71875 327.40625 862.71875 266 c 256
 862.71875 204.515625 845.765625 155.53125 811.78125 119.046875 c 0
 777.875 82.640625 729.90625 64.359375 667.796875 64.359375 c 1
 607.953125 64.359375 548.109375 64.359375 488.265625 64.359375 c 1
 488.265625 -24.599609375 488.265625 -113.557617188 488.265625 -202.515625 c 1
 452.120117188 -202.515625 415.973632812 -202.515625 379.828125 -202.515625 c 1xfaf0
488.265625 159.4375 m 1
 545.870117188 159.4375 603.473632812 159.4375 661.078125 159.4375 c 1
 688.578125 159.4375 710.0625 166.625 725.375 181 c 0
 740.765625 195.375 748.421875 216.078125 748.421875 242.953125 c 1
 748.421875 258.291015625 748.421875 273.629882812 748.421875 288.96875 c 1
 748.421875 315.921875 740.765625 336.546875 725.375 350.921875 c 0
 710.0625 365.296875 688.578125 372.5625 661.078125 372.5625 c 1
 603.473632812 372.5625 545.870117188 372.5625 488.265625 372.5625 c 1
 488.265625 301.520507812 488.265625 230.478515625 488.265625 159.4375 c 1
1019.828125 -202.515625 m 1
 1019.828125 20.84375 1019.828125 244.203125 1019.828125 467.5625 c 1
 1055.97363281 467.5625 1092.12011719 467.5625 1128.265625 467.5625 c 1
 1128.265625 276.208007812 1128.265625 84.853515625 1128.265625 -106.5 c 1
 1219.15136719 -106.5 1310.03613281 -106.5 1400.921875 -106.5 c 1
 1400.921875 -138.505859375 1400.921875 -170.510742188 1400.921875 -202.515625 c 1
 1273.890625 -202.515625 1146.859375 -202.515625 1019.828125 -202.515625 c 1
530.53125 652.015625 m 0
 474.203125 652.015625 426.390625 662.249023438 387.015625 682.71875 c 0
 347.640625 703.1875 313.890625 730.6875 285.765625 765.296875 c 1
 310.713867188 788.65625 335.661132812 812.015625 360.609375 835.375 c 1
 384.28125 806.546875 410.375 784.75 438.8125 770.0625 c 0
 467.328125 755.375 499.828125 747.953125 536.3125 747.953125 c 0
 579.203125 747.953125 611.46875 757.5625 633.265625 776.78125 c 0
 654.984375 796 665.921875 821.9375 665.921875 854.515625 c 0
 665.921875 880.765625 658.1875 901.546875 642.875 916.9375 c 0
 627.484375 932.328125 600.296875 943.8125 561.234375 951.46875 c 1
 541.390625 955.009765625 521.546875 958.551757812 501.703125 962.09375 c 1
 436.46875 974.203125 387.484375 995.6875 354.828125 1026.390625 c 0
 322.171875 1057.09375 305.921875 1099.359375 305.921875 1153.109375 c 0
 305.921875 1182.5625 311.46875 1209.28125 322.71875 1233.265625 c 0
 333.890625 1257.25 349.59375 1277.40625 369.75 1293.734375 c 0
 389.90625 1310.0625 414.359375 1322.71875 443.1875 1331.625 c 0
 471.9375 1340.609375 504.28125 1345.0625 540.140625 1345.0625 c 0
 590.6875 1345.0625 634.515625 1336.3125 671.625 1318.734375 c 0
 708.734375 1301.078125 740.453125 1275.6875 766.703125 1242.40625 c 1
 741.416992188 1220.00976562 716.129882812 1197.61425781 690.84375 1175.21875 c 1
 673.578125 1197.5625 652.484375 1215.53125 627.484375 1228.96875 c 0
 602.5625 1242.40625 571.46875 1249.125 534.359375 1249.125 c 0
 496 1249.125 466.234375 1241.390625 445.0625 1226.078125 c 0
 423.96875 1210.6875 413.421875 1188.265625 413.421875 1158.890625 c 0
 413.421875 1130.6875 422.015625 1109.75 439.359375 1096 c 0
 456.625 1082.25 483.5 1071.78125 519.984375 1064.75 c 1
 539.828125 1060.609375 559.671875 1056.46875 579.515625 1052.328125 c 1
 646.703125 1039.515625 695.84375 1017.71875 726.859375 987.015625 c 0
 757.875 956.3125 773.421875 914.046875 773.421875 860.296875 c 0xfd70
 773.421875 828.96875 767.953125 800.453125 757.09375 774.828125 c 0
 746.234375 749.28125 730.375 727.328125 709.59375 709.125 c 0
 688.734375 690.84375 663.34375 676.78125 633.265625 666.859375 c 0
 603.1875 656.936523438 568.890625 652.015625 530.53125 652.015625 c 0
1402.5625 1176.15625 m 1
 1400.94824219 1176.15625 1399.33300781 1176.15625 1397.71875 1176.15625 c 1
 1380.11425781 1139.984375 1362.51074219 1103.8125 1344.90625 1067.640625 c 1
 1295.94824219 978.369140625 1246.98925781 889.098632812 1198.03125 799.828125 c 1
 1149.07324219 889.098632812 1100.11425781 978.369140625 1051.15625 1067.640625 c 1
 1033.55175781 1103.8125 1015.94824219 1139.984375 998.34375 1176.15625 c 1
 996.754882812 1176.15625 995.166992188 1176.15625 993.578125 1176.15625 c 1
 993.578125 1005.27050781 993.578125 834.384765625 993.578125 663.5 c 1
 959.020507812 663.5 924.463867188 663.5 889.90625 663.5 c 1
 889.90625 886.859375 889.90625 1110.21875 889.90625 1333.578125 c 1
 932.770507812 1333.578125 975.635742188 1333.578125 1018.5 1333.578125 c 1
 1078.34375 1219.984375 1138.1875 1106.390625 1198.03125 992.796875 c 1
 1199.95800781 992.796875 1201.88574219 992.796875 1203.8125 992.796875 c 1
 1263.65625 1106.390625 1323.5 1219.984375 1383.34375 1333.578125 c 1
 1424.30761719 1333.578125 1465.27050781 1333.578125 1506.234375 1333.578125 c 1
 1506.234375 1110.21875 1506.234375 886.859375 1506.234375 663.5 c 1
 1471.67675781 663.5 1437.12011719 663.5 1402.5625 663.5 c 1
 1402.5625 834.384765625 1402.5625 1005.27050781 1402.5625 1176.15625 c 1
EndSplineSet
EndChar

StartChar: uniE105
Encoding: 57605 57605 6
Width: 1792
VWidth: 1732
Flags: HW
HStem: 228 96.0156<814.669 1050.52 1429.91 1750.53> 494.875 95.0781<149.906 386.215> 519.875 95.9375<1429.91 1720.84> 802.062 96.0156<149.906 386.215 813.763 1048.56 1429.91 1750.53>
VStem: 41.4688 108.438<228 494.875 589.953 803.078> 410.062 114.219<612.194 780.759> 651.625 115.156<375.807 753.111> 1321.47 108.438<324.016 519.875 615.812 802.062>
LayerCount: 2
UndoRedoHistory
Layer: 0
Undoes
UndoOperation
Index: 0
Type: 1
WasModified: 0
WasOrder2: 0
Layer: 2
Width: 1792
VWidth: 1792
LBearingChange: 0
UnicodeEnc: 0
InstructionsLength: 0
EndUndoOperation
EndUndoes
Redoes
EndRedoes
EndUndoRedoHistory
UndoRedoHistory
Layer: 1
Undoes
UndoOperation
Index: 0
Type: 3
WasModified: 0
WasOrder2: 0
Layer: 2
HStem: 288 96.0156<814.669 1050.52 1429.91 1750.53> 554.875 95.0781<149.906 386.215> 579.875 95.9375<1429.91 1720.84> 862.062 96.0156<149.906 386.215 813.763 1048.56 1429.91 1750.53>
VStem: 41.4688 108.438<288 554.875 649.953 863.078> 410.062 114.219<672.194 840.759> 651.625 115.156<435.807 813.111> 1321.47 108.438<384.016 579.875 675.812 862.062>
EndUndoOperation
EndUndoes
Redoes
EndRedoes
EndUndoRedoHistory
Fore
SplineSet
41.46875 228 m 1xdf
 41.46875 451.359375 41.46875 674.71875 41.46875 898.078125 c 1
 137.458007812 898.078125 233.448242188 898.078125 329.4375 898.078125 c 1
 391.46875 898.078125 439.4375 879.875 473.34375 843.390625 c 0
 507.40625 806.90625 524.28125 757.921875 524.28125 696.515625 c 256
 524.28125 635.03125 507.40625 586.046875 473.34375 549.5625 c 0
 439.4375 513.15625 391.46875 494.875 329.4375 494.875 c 1
 269.59375 494.875 209.75 494.875 149.90625 494.875 c 1
 149.90625 405.916992188 149.90625 316.958007812 149.90625 228 c 1
 113.760742188 228 77.6142578125 228 41.46875 228 c 1xdf
149.90625 589.953125 m 1
 207.510742188 589.953125 265.114257812 589.953125 322.71875 589.953125 c 1
 350.21875 589.953125 371.625 597.140625 386.9375 611.515625 c 0
 402.40625 625.890625 410.0625 646.59375 410.0625 673.46875 c 1
 410.0625 688.807617188 410.0625 704.145507812 410.0625 719.484375 c 1
 410.0625 746.4375 402.40625 767.0625 386.9375 781.4375 c 0
 371.625 795.8125 350.21875 803.078125 322.71875 803.078125 c 1
 265.114257812 803.078125 207.510742188 803.078125 149.90625 803.078125 c 1
 149.90625 732.036132812 149.90625 660.995117188 149.90625 589.953125 c 1
932.875 216.515625 m 0
 845.21875 216.515625 776.46875 246.046875 726.46875 305.265625 c 0
 676.625 364.484375 651.625 450.421875 651.625 563.078125 c 0
 651.625 619.328125 658.03125 668.9375 670.84375 711.828125 c 0
 683.65625 754.71875 702.25 790.890625 726.46875 820.34375 c 0
 750.84375 849.796875 780.375 871.984375 815.375 887.0625 c 0
 850.21875 902.0625 889.4375 909.5625 932.875 909.5625 c 0
 991.15625 909.5625 1039.90625 896.828125 1079.28125 871.203125 c 0
 1118.65625 845.578125 1149.59375 807.84375 1171.9375 757.921875 c 1
 1141.57324219 741.28125 1111.20800781 724.640625 1080.84375 708 c 1
 1069.28125 740.03125 1051.46875 765.421875 1027.5625 784.328125 c 0
 1003.5 803.234375 971.9375 812.609375 932.875 812.609375 c 0
 881.15625 812.609375 840.375 795.03125 811 759.875 c 0
 781.625 724.640625 766.78125 675.96875 766.78125 613.9375 c 1
 766.78125 580.004882812 766.78125 546.073242188 766.78125 512.140625 c 1
 766.78125 450.109375 781.625 401.4375 811 366.203125 c 0
 840.375 331.046875 881.15625 313.46875 932.875 313.46875 c 0
 973.1875 313.46875 1006 323.859375 1031.3125 344.640625 c 0
 1056.625 365.421875 1075.375 392.140625 1087.5625 424.796875 c 1
 1116.67675781 407.192382812 1145.79199219 389.588867188 1174.90625 371.984375 c 1
 1152.40625 323.390625 1121.15625 285.265625 1080.84375 257.765625 c 0
 1040.375 230.265625 991.15625 216.515625 932.875 216.515625 c 0
1321.46875 228 m 1
 1321.46875 451.359375 1321.46875 674.71875 1321.46875 898.078125 c 1
 1464.48925781 898.078125 1607.51074219 898.078125 1750.53125 898.078125 c 1
 1750.53125 866.073242188 1750.53125 834.067382812 1750.53125 802.0625 c 1
 1643.65625 802.0625 1536.78125 802.0625 1429.90625 802.0625 c 1
 1429.90625 739.979492188 1429.90625 677.895507812 1429.90625 615.8125 c 1
 1526.88574219 615.8125 1623.86425781 615.8125 1720.84375 615.8125 c 1
 1720.84375 583.833007812 1720.84375 551.854492188 1720.84375 519.875 c 1
 1623.86425781 519.875 1526.88574219 519.875 1429.90625 519.875 c 1xbf
 1429.90625 454.588867188 1429.90625 389.301757812 1429.90625 324.015625 c 1
 1536.78125 324.015625 1643.65625 324.015625 1750.53125 324.015625 c 1
 1750.53125 292.010742188 1750.53125 260.004882812 1750.53125 228 c 1
 1607.51074219 228 1464.48925781 228 1321.46875 228 c 1
EndSplineSet
EndChar

StartChar: uniE106
Encoding: 57606 57606 7
Width: 1792
VWidth: 1732
Flags: HW
HStem: 370.958 116.406<389.164 636.43> 856.993 124.805<499.082 527.573>
VStem: 145.609 137.891<144.2 282.091> 745.609 141.602<144.2 285.802> 1220.41 135.547<144.2 537.633>
DStem2: 145.609 144.2 283.5 144.2 0.303392 0.952866<41.8349 280.126 400.882 789.887> 601.664 981.8 516.312 856.993 0.306233 -0.951957<92.6712 481.326> 1087.21 981.8 932.328 981.8 0.479431 -0.877579<0 425.309> 1294.83 608.556 1355.96 476.622 0.477305 0.878738<0 424.748>
LayerCount: 2
UndoRedoHistory
Layer: 0
Undoes
UndoOperation
Index: 0
Type: 1
WasModified: 0
WasOrder2: 0
Layer: 2
Width: 1792
VWidth: 1792
LBearingChange: 0
UnicodeEnc: 0
InstructionsLength: 0
EndUndoOperation
EndUndoes
Redoes
EndRedoes
EndUndoRedoHistory
UndoRedoHistory
Layer: 1
Undoes
UndoOperation
Index: 0
Type: 3
WasModified: 0
WasOrder2: 0
Layer: 2
HStem: 430.958 116.406<389.164 636.43> 916.993 124.805<499.082 527.573>
VStem: 145.609 137.891<204.2 342.091> 745.609 141.602<204.2 345.802> 1220.41 135.547<204.2 597.633>
DStem2: 145.609 204.2 283.5 204.2 0.303392 0.952866<41.8349 280.126 400.882 789.887> 601.664 1041.8 516.312 916.993 0.306233 -0.951957<92.6712 481.326> 1087.21 1041.8 932.328 1041.8 0.479431 -0.877579<0 425.309> 1294.83 668.556 1355.96 536.622 0.477305 0.878738<0 424.748>
EndUndoOperation
EndUndoes
Redoes
EndRedoes
EndUndoRedoHistory
Fore
SplineSet
745.609375 144.200195312 m 1
 720.4140625 219.786132812 695.21875 295.372070312 670.0234375 370.958007812 c 1
 565.596679688 370.958007812 461.168945312 370.958007812 356.7421875 370.958007812 c 1
 332.328125 295.372070312 307.9140625 219.786132812 283.5 144.200195312 c 1
 237.536132812 144.200195312 191.573242188 144.200195312 145.609375 144.200195312 c 1
 240.791992188 423.399414062 335.973632812 702.598632812 431.15625 981.797851562 c 1
 487.9921875 981.797851562 544.828125 981.797851562 601.6640625 981.797851562 c 1
 696.846679688 702.598632812 792.028320312 423.399414062 887.2109375 144.200195312 c 1
 840.010742188 144.200195312 792.809570312 144.200195312 745.609375 144.200195312 c 1
516.3125 856.993164062 m 1
 514.359375 856.993164062 512.40625 856.993164062 510.453125 856.993164062 c 1
 470.0234375 733.783203125 429.59375 610.573242188 389.1640625 487.364257812 c 1
 471.5859375 487.364257812 554.0078125 487.364257812 636.4296875 487.364257812 c 1
 596.390625 610.573242188 556.3515625 733.783203125 516.3125 856.993164062 c 1
1220.4140625 144.200195312 m 1
 1220.4140625 254.193359375 1220.4140625 364.186523438 1220.4140625 474.180664062 c 1
 1124.38574219 643.385742188 1028.35644531 812.591796875 932.328125 981.797851562 c 1
 983.956054688 981.797851562 1035.58300781 981.797851562 1087.2109375 981.797851562 c 1
 1155.1796875 857.383789062 1223.1484375 732.969726562 1291.1171875 608.555664062 c 1
 1292.35449219 608.555664062 1293.59082031 608.555664062 1294.828125 608.555664062 c 1
 1362.40625 732.969726562 1429.984375 857.383789062 1497.5625 981.797851562 c 1
 1547.171875 981.797851562 1596.78125 981.797851562 1646.390625 981.797851562 c 1
 1549.58105469 813.405273438 1452.77050781 645.013671875 1355.9609375 476.622070312 c 1
 1355.9609375 365.814453125 1355.9609375 255.006835938 1355.9609375 144.200195312 c 1
 1310.77832031 144.200195312 1265.59667969 144.200195312 1220.4140625 144.200195312 c 1
EndSplineSet
EndChar

StartChar: uniE107
Encoding: 57607 57607 8
Width: 1792
VWidth: 1732
Flags: HW
HStem: -208.33 91.1719<486.344 688.342 1095.48 1270.78> 105.576 92.1094<518.508 677.882> 393.545 91.1719<497.902 685.553 1095.48 1270.78> 657.686 87.3438<530.171 727.317> 915.889 87.3438<1092.63 1259.92> 975.42 83.5156<544.742 712.82> 1263.39 87.3438<537.628 719.903 1093.28 1280.94>
VStem: 388.742 113.281<773.719 946.73> 408.898 105.625<1083.68 1238.65> 708.586 114.219<224.923 368.321> 722.023 112.344<-86.9403 77.853> 743.039 105.547<1083.68 1238.65> 755.461 113.281<773.719 946.73> 940.305 115.156<-76.3001 352.598 1036.11 1229.56> 1310.85 115.156<-77.1032 353.491 1035.46 1230.29>
LayerCount: 2
UndoRedoHistory
Layer: 0
Undoes
UndoOperation
Index: 0
Type: 1
WasModified: 0
WasOrder2: 0
Layer: 2
Width: 1792
VWidth: 1792
LBearingChange: 0
UnicodeEnc: 0
InstructionsLength: 0
EndUndoOperation
EndUndoes
Redoes
EndRedoes
EndUndoRedoHistory
UndoRedoHistory
Layer: 1
Undoes
UndoOperation
Index: 0
Type: 3
WasModified: 0
WasOrder2: 0
Layer: 2
HStem: -148.33 91.1719<486.344 688.342 1095.48 1270.78> 165.576 92.1094<518.508 677.882> 453.545 91.1719<497.902 685.553 1095.48 1270.78> 717.686 87.3438<530.171 727.317> 975.889 87.3438<1092.63 1259.92> 1035.42 83.5156<544.742 712.82> 1323.39 87.3438<537.628 719.903 1093.28 1280.94>
VStem: 388.742 113.281<833.719 1006.73> 408.898 105.625<1143.68 1298.65> 708.586 114.219<284.923 428.321> 722.023 112.344<-26.9403 137.853> 743.039 105.547<1143.68 1298.65> 755.461 113.281<833.719 1006.73> 940.305 115.156<-16.3001 412.598 1096.11 1289.56> 1310.85 115.156<-17.1032 413.491 1095.46 1290.29>
EndUndoOperation
EndUndoes
Redoes
EndRedoes
EndUndoRedoHistory
Fore
SplineSet
586.6328125 197.685546875 m 1xf226
 628.2734375 197.685546875 658.9765625 206.513671875 678.8203125 224.091796875 c 0
 698.6640625 241.748046875 708.5859375 264.248046875 708.5859375 291.826171875 c 1
 708.5859375 294.065429688 708.5859375 296.305664062 708.5859375 298.544921875 c 1
 708.5859375 329.248046875 698.9765625 352.763671875 679.7578125 369.091796875 c 0
 660.6171875 385.419921875 634.6796875 393.544921875 602.0234375 393.544921875 c 0
 569.9921875 393.544921875 542.8046875 386.357421875 520.4609375 371.982421875 c 0
 498.0390625 357.529296875 479.1328125 337.529296875 463.8203125 311.982421875 c 1
 439.809570312 332.763671875 415.799804688 353.544921875 391.7890625 374.326171875 c 1
 402.0234375 389.091796875 413.5859375 403.154296875 426.3203125 416.591796875 c 0
 439.1328125 430.029296875 454.2109375 441.748046875 471.4765625 451.669921875 c 0
 488.7421875 461.591796875 508.2734375 469.560546875 529.9921875 475.654296875 c 0
 551.7890625 481.748046875 576.7109375 484.716796875 604.9140625 484.716796875 c 0
 636.2421875 484.716796875 665.3828125 480.888671875 692.2578125 473.232421875 c 0
 719.1328125 465.576171875 742.1796875 454.169921875 761.3984375 439.169921875 c 0
 780.6171875 424.091796875 795.6171875 405.888671875 806.4765625 384.404296875 c 0
 817.4140625 362.998046875 822.8046875 338.857421875 822.8046875 311.982421875 c 0xf246
 822.8046875 290.810546875 819.4453125 271.669921875 812.7265625 254.326171875 c 0
 806.0078125 237.060546875 796.7109375 221.904296875 784.9140625 208.779296875 c 0
 773.0390625 195.654296875 759.2890625 184.951171875 743.6640625 176.591796875 c 0
 727.9609375 168.310546875 711.4765625 162.216796875 694.2109375 158.388671875 c 1
 694.2109375 156.774414062 694.2109375 155.159179688 694.2109375 153.544921875 c 1
 713.3515625 149.716796875 731.4765625 143.466796875 748.4296875 134.873046875 c 0
 765.3828125 126.201171875 780.3046875 115.029296875 793.0390625 101.201171875 c 0
 805.8515625 87.451171875 815.9296875 71.123046875 823.2734375 52.294921875 c 0
 830.6953125 33.388671875 834.3671875 11.826171875 834.3671875 -12.548828125 c 0
 834.3671875 -42.001953125 828.5859375 -68.720703125 817.1015625 -92.705078125 c 0
 805.5390625 -116.689453125 789.3671875 -137.314453125 768.5859375 -154.580078125 c 0
 747.8046875 -171.923828125 722.6484375 -185.126953125 693.1953125 -194.423828125 c 0
 663.8203125 -203.720703125 631.1640625 -208.330078125 595.3046875 -208.330078125 c 0
 563.9765625 -208.330078125 536.3984375 -204.970703125 512.7265625 -198.251953125 c 0
 489.0546875 -191.533203125 468.1171875 -182.626953125 449.8359375 -171.376953125 c 0
 431.6328125 -160.205078125 415.6171875 -147.392578125 401.8671875 -133.017578125 c 0
 388.1171875 -118.642578125 376.0859375 -103.720703125 365.8515625 -88.330078125 c 1
 392.4140625 -67.548828125 418.9765625 -46.767578125 445.5390625 -25.986328125 c 1
 453.8984375 -39.423828125 462.6484375 -51.689453125 471.9453125 -62.939453125 c 0
 481.2421875 -74.111328125 491.7890625 -83.720703125 503.6640625 -91.689453125 c 0
 515.4609375 -99.736328125 528.8984375 -105.986328125 543.9765625 -110.439453125 c 0
 558.9765625 -114.892578125 576.0859375 -117.158203125 595.3046875 -117.158203125 c 0
 636.2421875 -117.158203125 667.6484375 -107.392578125 689.3671875 -87.861328125 c 0
 711.1640625 -68.330078125 722.0234375 -41.298828125 722.0234375 -6.767578125 c 1
 722.0234375 -4.5283203125 722.0234375 -2.2880859375 722.0234375 -0.048828125 c 1
 722.0234375 34.482421875 710.5390625 60.732421875 687.4921875 78.701171875 c 0
 664.4453125 96.591796875 631.7890625 105.576171875 589.5234375 105.576171875 c 1
 565.8515625 105.576171875 542.1796875 105.576171875 518.5078125 105.576171875 c 1
 518.5078125 136.279296875 518.5078125 166.982421875 518.5078125 197.685546875 c 1
 541.215820312 197.685546875 563.924804688 197.685546875 586.6328125 197.685546875 c 1xf226
1183.1171875 -208.330078125 m 0
 1141.5546875 -208.330078125 1105.3828125 -200.517578125 1074.6796875 -184.814453125 c 0
 1043.9765625 -169.189453125 1018.6640625 -146.611328125 998.8203125 -117.158203125 c 0
 978.9765625 -87.705078125 964.2890625 -51.533203125 954.6796875 -8.720703125 c 0
 945.0703125 34.169921875 940.3046875 83.154296875 940.3046875 138.232421875 c 0
 940.3046875 192.607421875 945.0703125 241.357421875 954.6796875 284.560546875 c 0
 964.2890625 327.763671875 978.9765625 364.091796875 998.8203125 393.544921875 c 0
 1018.6640625 422.998046875 1043.9765625 445.576171875 1074.6796875 461.201171875 c 0
 1105.3828125 476.904296875 1141.5546875 484.716796875 1183.1171875 484.716796875 c 0
 1266.3203125 484.716796875 1327.6484375 454.326171875 1367.0234375 393.544921875 c 0
 1406.3203125 332.763671875 1426.0078125 247.607421875 1426.0078125 138.232421875 c 256
 1426.0078125 28.779296875 1406.3203125 -56.376953125 1367.0234375 -117.158203125 c 0
 1327.6484375 -177.939453125 1266.3203125 -208.330078125 1183.1171875 -208.330078125 c 0
1183.1171875 -116.220703125 m 256
 1206.1640625 -116.220703125 1225.8515625 -111.533203125 1242.1796875 -102.314453125 c 0
 1258.5078125 -93.017578125 1271.7890625 -79.736328125 1282.0234375 -62.470703125 c 0
 1292.2578125 -45.126953125 1299.6015625 -24.501953125 1304.1328125 -0.517578125 c 0
 1308.5859375 23.466796875 1310.8515625 50.185546875 1310.8515625 79.638671875 c 1
 1310.8515625 118.674804688 1310.8515625 157.711914062 1310.8515625 196.748046875 c 1
 1310.8515625 226.201171875 1308.5859375 252.919921875 1304.1328125 276.904296875 c 0
 1299.6015625 300.888671875 1292.2578125 321.591796875 1282.0234375 338.857421875 c 0
 1271.7890625 356.123046875 1258.5078125 369.404296875 1242.1796875 378.701171875 c 0
 1225.8515625 387.919921875 1206.1640625 392.607421875 1183.1171875 392.607421875 c 256
 1160.0703125 392.607421875 1140.4609375 387.919921875 1124.1328125 378.701171875 c 0
 1107.8046875 369.404296875 1094.5234375 356.123046875 1084.2890625 338.857421875 c 0
 1074.0546875 321.591796875 1066.6328125 300.888671875 1062.1796875 276.904296875 c 0
 1057.7265625 252.919921875 1055.4609375 226.201171875 1055.4609375 196.748046875 c 1
 1055.4609375 157.711914062 1055.4609375 118.674804688 1055.4609375 79.638671875 c 1
 1055.4609375 50.185546875 1057.7265625 23.466796875 1062.1796875 -0.517578125 c 0
 1066.6328125 -24.501953125 1074.0546875 -45.126953125 1084.2890625 -62.470703125 c 0
 1094.5234375 -79.736328125 1107.8046875 -93.017578125 1124.1328125 -102.314453125 c 0
 1140.4609375 -111.533203125 1160.0703125 -116.220703125 1183.1171875 -116.220703125 c 256
628.7421875 657.685546875 m 256
 589.7578125 657.685546875 555.3046875 662.607421875 525.5390625 672.529296875 c 0
 495.8515625 682.451171875 470.8515625 696.044921875 450.6953125 713.310546875 c 0
 430.5390625 730.576171875 415.1484375 751.123046875 404.6015625 774.794921875 c 0
 394.0546875 798.466796875 388.7421875 824.013671875 388.7421875 851.591796875 c 0xf30e
 388.7421875 896.357421875 401.0859375 932.373046875 425.6953125 959.560546875 c 0
 450.3828125 986.748046875 482.8828125 1005.81054688 523.1953125 1016.66992188 c 1
 523.1953125 1019.24804688 523.1953125 1021.82617188 523.1953125 1024.40429688 c 1
 488.5859375 1036.51367188 460.9296875 1055.73242188 440.1484375 1081.98242188 c 0
 419.3671875 1108.23242188 408.8984375 1140.49804688 408.8984375 1178.93554688 c 0
 408.8984375 1204.56054688 413.8984375 1227.91992188 423.8203125 1249.01367188 c 0
 433.7421875 1270.10742188 447.9609375 1288.23242188 466.5546875 1303.23242188 c 0
 485.0703125 1318.31054688 508.1171875 1329.95117188 535.6171875 1338.31054688 c 0
 563.1953125 1346.59179688 594.2109375 1350.73242188 628.7421875 1350.73242188 c 256
 663.3515625 1350.73242188 694.3671875 1346.59179688 721.8671875 1338.31054688 c 0
 749.4453125 1329.95117188 772.4921875 1318.31054688 791.0078125 1303.23242188 c 0
 809.6015625 1288.23242188 823.8203125 1270.10742188 833.7421875 1249.01367188 c 0
 843.6640625 1227.91992188 848.5859375 1204.56054688 848.5859375 1178.93554688 c 0xf296
 848.5859375 1140.49804688 838.1953125 1108.23242188 817.4140625 1081.98242188 c 0
 796.6328125 1055.73242188 768.8984375 1036.51367188 734.3671875 1024.40429688 c 1
 734.3671875 1021.82617188 734.3671875 1019.24804688 734.3671875 1016.66992188 c 1
 774.6796875 1005.81054688 807.1796875 986.748046875 831.7890625 959.560546875 c 0
 856.4765625 932.373046875 868.7421875 896.357421875 868.7421875 851.591796875 c 0xf20e
 868.7421875 824.013671875 863.5078125 798.466796875 852.9609375 774.794921875 c 0
 842.3359375 751.123046875 827.0234375 730.576171875 806.8671875 713.310546875 c 0
 786.7109375 696.044921875 761.7109375 682.451171875 731.9453125 672.529296875 c 0
 702.1796875 662.607421875 667.8046875 657.685546875 628.7421875 657.685546875 c 256
628.7421875 745.029296875 m 256
 669.0546875 745.029296875 700.3046875 754.326171875 722.3359375 772.841796875 c 0
 744.4453125 791.435546875 755.4609375 817.294921875 755.4609375 850.576171875 c 1
 755.4609375 856.982421875 755.4609375 863.388671875 755.4609375 869.794921875 c 1
 755.4609375 903.076171875 744.4453125 929.013671875 722.3359375 947.607421875 c 0
 700.3046875 966.123046875 669.0546875 975.419921875 628.7421875 975.419921875 c 256xf70e
 588.4296875 975.419921875 557.2578125 966.123046875 535.1484375 947.607421875 c 0
 513.1171875 929.013671875 502.0234375 903.076171875 502.0234375 869.794921875 c 1
 502.0234375 863.388671875 502.0234375 856.982421875 502.0234375 850.576171875 c 1
 502.0234375 817.294921875 513.1171875 791.435546875 535.1484375 772.841796875 c 0
 557.2578125 754.326171875 588.4296875 745.029296875 628.7421875 745.029296875 c 256
628.7421875 1058.93554688 m 256
 665.9296875 1058.93554688 694.2109375 1066.90429688 713.7421875 1082.91992188 c 0
 733.2734375 1098.93554688 743.0390625 1122.29492188 743.0390625 1152.99804688 c 1
 743.0390625 1158.44042969 743.0390625 1163.88378906 743.0390625 1169.32617188 c 1
 743.0390625 1200.02929688 733.2734375 1223.38867188 713.7421875 1239.40429688 c 0
 694.2109375 1255.41992188 665.9296875 1263.38867188 628.7421875 1263.38867188 c 256
 591.6328125 1263.38867188 563.3515625 1255.41992188 543.8203125 1239.40429688 c 0
 524.2890625 1223.38867188 514.5234375 1200.02929688 514.5234375 1169.32617188 c 1
 514.5234375 1163.88378906 514.5234375 1158.44042969 514.5234375 1152.99804688 c 1xf696
 514.5234375 1122.29492188 524.2890625 1098.93554688 543.8203125 1082.91992188 c 0
 563.3515625 1066.90429688 591.6328125 1058.93554688 628.7421875 1058.93554688 c 256
1423.0390625 1089.63867188 m 0
 1423.0390625 1041.04492188 1415.6171875 995.263671875 1400.9296875 952.373046875 c 0
 1386.2421875 909.482421875 1367.3359375 870.107421875 1344.2890625 834.326171875 c 0
 1321.2421875 798.466796875 1295.4609375 766.435546875 1267.0234375 738.310546875 c 0
 1238.5078125 710.107421875 1210.5390625 687.060546875 1183.0390625 669.169921875 c 1
 1135.01855469 669.169921875 1086.99707031 669.169921875 1038.9765625 669.169921875 c 1
 1076.7890625 696.669921875 1110.6953125 723.232421875 1140.7734375 748.857421875 c 0
 1170.8515625 774.482421875 1197.1015625 800.654296875 1219.5234375 827.607421875 c 0
 1241.8671875 854.482421875 1260.6171875 882.919921875 1275.6171875 912.998046875 c 0
 1290.6953125 943.076171875 1302.3359375 976.044921875 1310.6953125 1011.90429688 c 1
 1308.45605469 1012.52929688 1306.21582031 1013.15429688 1303.9765625 1013.77929688 c 1
 1296.9453125 1000.34179688 1288.7421875 987.763671875 1279.5234375 975.888671875 c 0
 1270.2265625 964.013671875 1259.3671875 953.623046875 1246.8671875 944.716796875 c 0
 1234.3671875 935.732421875 1220.1484375 928.701171875 1204.1328125 923.544921875 c 0
 1188.1171875 918.466796875 1169.6015625 915.888671875 1148.4296875 915.888671875 c 0xfa06
 1120.3046875 915.888671875 1094.2109375 920.654296875 1070.2265625 930.263671875 c 0
 1046.2421875 939.873046875 1025.3828125 953.779296875 1007.8046875 972.060546875 c 0
 990.2265625 990.263671875 976.4765625 1012.06054688 966.5546875 1037.29492188 c 0
 956.6328125 1062.60742188 951.6328125 1091.27929688 951.6328125 1123.23242188 c 0
 951.6328125 1156.51367188 957.2578125 1187.21679688 968.4296875 1215.41992188 c 0
 979.6796875 1243.54492188 995.4609375 1267.60742188 1016.0078125 1287.37304688 c 0
 1036.4765625 1307.21679688 1061.0859375 1322.76367188 1089.9140625 1333.93554688 c 0
 1118.6640625 1345.18554688 1151.0078125 1350.73242188 1186.8671875 1350.73242188 c 0
 1223.9765625 1350.73242188 1257.1015625 1344.71679688 1286.2421875 1332.52929688 c 0
 1315.3046875 1320.34179688 1339.9921875 1302.91992188 1360.1484375 1280.18554688 c 0
 1380.3046875 1257.45117188 1395.8515625 1230.10742188 1406.7109375 1198.15429688 c 0
 1417.5703125 1166.12304688 1423.0390625 1129.95117188 1423.0390625 1089.63867188 c 0
1186.8671875 1003.23242188 m 256
 1225.9296875 1003.23242188 1256.3203125 1013.62304688 1278.0390625 1034.48242188 c 0
 1299.8359375 1055.26367188 1310.6953125 1085.81054688 1310.6953125 1126.12304688 c 1
 1310.6953125 1130.60253906 1310.6953125 1135.08105469 1310.6953125 1139.56054688 c 1
 1310.6953125 1179.87304688 1299.8359375 1210.41992188 1278.0390625 1231.27929688 c 0
 1256.3203125 1252.06054688 1225.9296875 1262.45117188 1186.8671875 1262.45117188 c 256
 1147.8046875 1262.45117188 1117.4140625 1252.06054688 1095.6171875 1231.27929688 c 0
 1073.8984375 1210.41992188 1063.0390625 1179.87304688 1063.0390625 1139.56054688 c 1
 1063.0390625 1135.08105469 1063.0390625 1130.60253906 1063.0390625 1126.12304688 c 1
 1063.0390625 1085.81054688 1073.8984375 1055.26367188 1095.6171875 1034.48242188 c 0
 1117.4140625 1013.62304688 1147.8046875 1003.23242188 1186.8671875 1003.23242188 c 256
EndSplineSet
EndChar

StartChar: uniE108
Encoding: 57608 57608 9
Width: 1792
VWidth: 1732
Flags: HW
HStem: 228 88.2812<711 802.25 910.688 1002.88> 409.406 93.125<1273.34 1471> 802.062 96.0156<120.375 320.062 428.5 628.188 711 802.25 910.688 1002.88 1359.62 1385.56>
VStem: 320.062 108.438<228 802.062> 711 291.875<228 316.281 809.797 898.078> 1078.34 110.469<228 338.469> 1558.34 113.281<228 341.281>
DStem2: 1078.34 228 1188.81 228 0.303155 0.952941<33.4892 224.122 320.727 631.883> 1443.19 898.078 1375.06 798.234 0.305997 -0.952033<74.2085 385.084>
LayerCount: 2
UndoRedoHistory
Layer: 0
Undoes
UndoOperation
Index: 0
Type: 1
WasModified: 0
WasOrder2: 0
Layer: 2
Width: 1792
VWidth: 1792
LBearingChange: 0
UnicodeEnc: 0
InstructionsLength: 0
EndUndoOperation
EndUndoes
Redoes
EndRedoes
EndUndoRedoHistory
UndoRedoHistory
Layer: 1
Undoes
UndoOperation
Index: 0
Type: 3
WasModified: 0
WasOrder2: 0
Layer: 2
HStem: 288 88.2812<711 802.25 910.688 1002.88> 469.406 93.125<1273.34 1471> 862.062 96.0156<120.375 320.062 428.5 628.188 711 802.25 910.688 1002.88 1359.62 1385.56>
VStem: 320.062 108.438<288 862.062> 711 291.875<288 376.281 869.797 958.078> 1078.34 110.469<288 398.469> 1558.34 113.281<288 401.281>
DStem2: 1078.34 288 1188.81 288 0.303155 0.952941<33.4892 224.122 320.727 631.883> 1443.19 958.078 1375.06 858.234 0.305997 -0.952033<74.2085 385.084>
EndUndoOperation
EndUndoes
Redoes
EndRedoes
EndUndoRedoHistory
Fore
SplineSet
428.5 802.0625 m 1
 428.5 610.708007812 428.5 419.354492188 428.5 228 c 1
 392.354492188 228 356.208007812 228 320.0625 228 c 1
 320.0625 419.354492188 320.0625 610.708007812 320.0625 802.0625 c 1
 253.5 802.0625 186.9375 802.0625 120.375 802.0625 c 1
 120.375 834.067382812 120.375 866.073242188 120.375 898.078125 c 1
 289.645507812 898.078125 458.916992188 898.078125 628.1875 898.078125 c 1
 628.1875 866.073242188 628.1875 834.067382812 628.1875 802.0625 c 1
 561.625 802.0625 495.0625 802.0625 428.5 802.0625 c 1
711 228 m 1
 711 257.426757812 711 286.854492188 711 316.28125 c 1
 741.416992188 316.28125 771.833007812 316.28125 802.25 316.28125 c 1
 802.25 480.786132812 802.25 645.291992188 802.25 809.796875 c 1
 771.833007812 809.796875 741.416992188 809.796875 711 809.796875 c 1
 711 839.223632812 711 868.651367188 711 898.078125 c 1
 808.291992188 898.078125 905.583007812 898.078125 1002.875 898.078125 c 1
 1002.875 868.651367188 1002.875 839.223632812 1002.875 809.796875 c 1
 972.145507812 809.796875 941.416992188 809.796875 910.6875 809.796875 c 1
 910.6875 645.291992188 910.6875 480.786132812 910.6875 316.28125 c 1
 941.416992188 316.28125 972.145507812 316.28125 1002.875 316.28125 c 1
 1002.875 286.854492188 1002.875 257.426757812 1002.875 228 c 1
 905.583007812 228 808.291992188 228 711 228 c 1
1558.34375 228 m 1
 1538.1875 288.46875 1518.03125 348.9375 1497.875 409.40625 c 1
 1414.38574219 409.40625 1330.89550781 409.40625 1247.40625 409.40625 c 1
 1227.875 348.9375 1208.34375 288.46875 1188.8125 228 c 1
 1151.98925781 228 1115.16699219 228 1078.34375 228 c 1
 1154.54199219 451.359375 1230.73925781 674.71875 1306.9375 898.078125 c 1
 1352.35449219 898.078125 1397.77050781 898.078125 1443.1875 898.078125 c 1
 1519.33300781 674.71875 1595.47949219 451.359375 1671.625 228 c 1
 1633.86425781 228 1596.10449219 228 1558.34375 228 c 1
1375.0625 798.234375 m 1
 1373.44824219 798.234375 1371.83300781 798.234375 1370.21875 798.234375 c 1
 1337.92675781 699.666992188 1305.63574219 601.098632812 1273.34375 502.53125 c 1
 1339.22949219 502.53125 1405.11425781 502.53125 1471 502.53125 c 1
 1439.02050781 601.098632812 1407.04199219 699.666992188 1375.0625 798.234375 c 1
EndSplineSet
EndChar

StartChar: uniE109
Encoding: 57609 57609 10
Width: 1792
VWidth: 1732
Flags: HW
HStem: 216.516 95.9375<134.083 359.867> 409.406 93.125<745.609 943.344 1385.61 1583.34> 798.234 99.8438<830.443 859.33 1470.44 1499.33> 813.625 95.9375<159.651 378.063>
VStem: 28.1875 107.5<656.387 792.68> 388.188 107.5<339.565 486.758> 550.688 110.391<228 338.391> 1030.69 113.281<228 341.281> 1190.69 110.391<228 338.391> 1670.69 113.281<228 341.281>
DStem2: 242.25 629.25 223.969 526.594 0.978916 -0.204262<-84.378 149.631> 550.688 228 661.078 228 0.322775 0.946476<35.6313 226.241 322.753 322.753> 915.531 898.078 847.328 798.234 0.306115 -0.951995<74.1727 385.072 481.954 673.162> 1190.69 228 1301.08 228 0.322775 0.946476<35.6313 226.241 322.753 322.753> 1555.53 898.078 1487.33 798.234 0.306115 -0.951995<74.1727 385.072 481.954 673.162>
LayerCount: 2
UndoRedoHistory
Layer: 0
Undoes
UndoOperation
Index: 0
Type: 1
WasModified: 0
WasOrder2: 0
Layer: 2
Width: 1792
VWidth: 1792
LBearingChange: 0
UnicodeEnc: 0
InstructionsLength: 0
EndUndoOperation
EndUndoes
Redoes
EndRedoes
EndUndoRedoHistory
UndoRedoHistory
Layer: 1
Undoes
UndoOperation
Index: 0
Type: 3
WasModified: 0
WasOrder2: 0
Layer: 2
HStem: 276.516 95.9375<134.083 359.867> 469.406 93.125<745.609 943.344 1385.61 1583.34> 858.234 99.8438<830.443 859.33 1470.44 1499.33> 873.625 95.9375<159.651 378.063>
VStem: 28.1875 107.5<716.387 852.68> 388.188 107.5<399.565 546.758> 550.688 110.391<288 398.391> 1030.69 113.281<288 401.281> 1190.69 110.391<288 398.391> 1670.69 113.281<288 401.281>
DStem2: 242.25 689.25 223.969 586.594 0.978916 -0.204262<-84.378 149.631> 550.688 288 661.078 288 0.322775 0.946476<35.6313 226.241 322.753 322.753> 915.531 958.078 847.328 858.234 0.306115 -0.951995<74.1727 385.072 481.954 673.162> 1190.69 288 1301.08 288 0.322775 0.946476<35.6313 226.241 322.753 322.753> 1555.53 958.078 1487.33 858.234 0.306115 -0.951995<74.1727 385.072 481.954 673.162>
EndUndoOperation
EndUndoes
Redoes
EndRedoes
EndUndoRedoHistory
Fore
SplineSet
252.796875 216.515625 m 0xdfc0
 196.46875 216.515625 148.65625 226.75 109.28125 247.21875 c 0
 69.90625 267.6875 36.15625 295.1875 8.03125 329.796875 c 1
 32.9794921875 353.15625 57.9267578125 376.515625 82.875 399.875 c 1
 106.546875 371.046875 132.640625 349.25 161.078125 334.5625 c 0
 189.59375 319.875 222.09375 312.453125 258.578125 312.453125 c 0
 301.46875 312.453125 333.734375 322.0625 355.53125 341.28125 c 0
 377.25 360.5 388.1875 386.4375 388.1875 419.015625 c 0
 388.1875 445.265625 380.453125 466.046875 365.140625 481.4375 c 0
 349.75 496.828125 322.5625 508.3125 283.5 515.96875 c 1
 263.65625 519.510742188 243.8125 523.051757812 223.96875 526.59375 c 1
 158.734375 538.703125 109.75 560.1875 77.09375 590.890625 c 0
 44.4375 621.59375 28.1875 663.859375 28.1875 717.609375 c 0
 28.1875 747.0625 33.734375 773.78125 44.984375 797.765625 c 0
 56.15625 821.75 71.859375 841.90625 92.015625 858.234375 c 0
 112.171875 874.5625 136.625 887.21875 165.453125 896.125 c 0
 194.203125 905.109375 226.546875 909.5625 262.40625 909.5625 c 0
 312.953125 909.5625 356.78125 900.8125 393.890625 883.234375 c 0
 431 865.578125 462.71875 840.1875 488.96875 806.90625 c 1
 463.682617188 784.510742188 438.395507812 762.114257812 413.109375 739.71875 c 1
 395.84375 762.0625 374.75 780.03125 349.75 793.46875 c 0
 324.828125 806.90625 293.734375 813.625 256.625 813.625 c 0
 218.265625 813.625 188.5 805.890625 167.328125 790.578125 c 0
 146.234375 775.1875 135.6875 752.765625 135.6875 723.390625 c 0
 135.6875 695.1875 144.28125 674.25 161.625 660.5 c 0
 178.890625 646.75 205.765625 636.28125 242.25 629.25 c 1
 262.09375 625.109375 281.9375 620.96875 301.78125 616.828125 c 1
 368.96875 604.015625 418.109375 582.21875 449.125 551.515625 c 0
 480.140625 520.8125 495.6875 478.546875 495.6875 424.796875 c 0
 495.6875 393.46875 490.21875 364.953125 479.359375 339.328125 c 0
 468.5 313.78125 452.640625 291.828125 431.859375 273.625 c 0
 411 255.34375 385.609375 241.28125 355.53125 231.359375 c 0
 325.453125 221.4375 291.15625 216.515625 252.796875 216.515625 c 0xdfc0
1030.6875 228 m 1
 1010.53125 288.46875 990.375 348.9375 970.21875 409.40625 c 1
 886.703125 409.40625 803.1875 409.40625 719.671875 409.40625 c 1
 700.140625 348.9375 680.609375 288.46875 661.078125 228 c 1
 624.28125 228 587.484375 228 550.6875 228 c 1
 626.859375 451.359375 703.03125 674.71875 779.203125 898.078125 c 1
 824.645507812 898.078125 870.088867188 898.078125 915.53125 898.078125 c 1xefc0
 991.676757812 674.71875 1067.82324219 451.359375 1143.96875 228 c 1
 1106.20800781 228 1068.44824219 228 1030.6875 228 c 1
847.328125 798.234375 m 1
 845.739257812 798.234375 844.151367188 798.234375 842.5625 798.234375 c 1
 810.245117188 699.666992188 777.926757812 601.098632812 745.609375 502.53125 c 1
 811.520507812 502.53125 877.432617188 502.53125 943.34375 502.53125 c 1
 911.338867188 601.098632812 879.333007812 699.666992188 847.328125 798.234375 c 1
1670.6875 228 m 1
 1650.53125 288.46875 1630.375 348.9375 1610.21875 409.40625 c 1
 1526.703125 409.40625 1443.1875 409.40625 1359.671875 409.40625 c 1
 1340.140625 348.9375 1320.609375 288.46875 1301.078125 228 c 1
 1264.28125 228 1227.484375 228 1190.6875 228 c 1
 1266.859375 451.359375 1343.03125 674.71875 1419.203125 898.078125 c 1
 1464.64550781 898.078125 1510.08886719 898.078125 1555.53125 898.078125 c 1
 1631.67675781 674.71875 1707.82324219 451.359375 1783.96875 228 c 1
 1746.20800781 228 1708.44824219 228 1670.6875 228 c 1
1487.328125 798.234375 m 1
 1485.73925781 798.234375 1484.15136719 798.234375 1482.5625 798.234375 c 1
 1450.24511719 699.666992188 1417.92675781 601.098632812 1385.609375 502.53125 c 1
 1451.52050781 502.53125 1517.43261719 502.53125 1583.34375 502.53125 c 1
 1551.33886719 601.098632812 1519.33300781 699.666992188 1487.328125 798.234375 c 1
EndSplineSet
EndChar

StartChar: uniE10A
Encoding: 57610 57610 11
Width: 1792
VWidth: 1732
Flags: HW
HStem: 228 88.2812<773.109 864.281 972.797 1064.98 1342.08 1563.11> 809.797 88.2812<773.109 864.281 972.797 1064.98 1342.01 1562.58>
VStem: 96.625 112.344<785.734 898.078> 555.531 109.453<788.625 898.078> 773.109 291.875<228 316.281 809.797 898.078> 1172.17 115.156<375.807 753.111>
DStem2: 208.969 898.078 96.625 898.078 0.311738 -0.950168<0 589.589> 383.656 333.625 442.25 228 0.291293 0.956634<0 590.041>
LayerCount: 2
UndoRedoHistory
Layer: 0
Undoes
UndoOperation
Index: 0
Type: 1
WasModified: 0
WasOrder2: 0
Layer: 2
Width: 1792
VWidth: 1792
LBearingChange: 0
UnicodeEnc: 0
InstructionsLength: 0
EndUndoOperation
EndUndoes
Redoes
EndRedoes
EndUndoRedoHistory
UndoRedoHistory
Layer: 1
Undoes
UndoOperation
Index: 0
Type: 3
WasModified: 0
WasOrder2: 0
Layer: 2
HStem: 288 88.2812<773.109 864.281 972.797 1064.98 1342.08 1563.11> 869.797 88.2812<773.109 864.281 972.797 1064.98 1342.01 1562.58>
VStem: 96.625 112.344<845.734 958.078> 555.531 109.453<848.625 958.078> 773.109 291.875<288 376.281 869.797 958.078> 1172.17 115.156<435.807 813.111>
DStem2: 208.969 958.078 96.625 958.078 0.311738 -0.950168<0 589.589> 383.656 393.625 442.25 288 0.291293 0.956634<0 590.041>
EndUndoOperation
EndUndoes
Redoes
EndRedoes
EndUndoRedoHistory
Fore
SplineSet
316.46875 228 m 1
 243.1875 451.359375 169.90625 674.71875 96.625 898.078125 c 1
 134.073242188 898.078125 171.520507812 898.078125 208.96875 898.078125 c 1
 244.489257812 787.6875 280.010742188 677.296875 315.53125 566.90625 c 1
 336.963867188 489.145507812 358.395507812 411.385742188 379.828125 333.625 c 1
 381.104492188 333.625 382.379882812 333.625 383.65625 333.625 c 1
 405.426757812 411.385742188 427.198242188 489.145507812 448.96875 566.90625 c 1
 484.489257812 677.296875 520.010742188 787.6875 555.53125 898.078125 c 1
 592.015625 898.078125 628.5 898.078125 664.984375 898.078125 c 1
 590.739257812 674.71875 516.495117188 451.359375 442.25 228 c 1
 400.323242188 228 358.395507812 228 316.46875 228 c 1
773.109375 228 m 1
 773.109375 257.426757812 773.109375 286.854492188 773.109375 316.28125 c 1
 803.5 316.28125 833.890625 316.28125 864.28125 316.28125 c 1
 864.28125 480.786132812 864.28125 645.291992188 864.28125 809.796875 c 1
 833.890625 809.796875 803.5 809.796875 773.109375 809.796875 c 1
 773.109375 839.223632812 773.109375 868.651367188 773.109375 898.078125 c 1
 870.401367188 898.078125 967.692382812 898.078125 1064.984375 898.078125 c 1
 1064.984375 868.651367188 1064.984375 839.223632812 1064.984375 809.796875 c 1
 1034.25488281 809.796875 1003.52636719 809.796875 972.796875 809.796875 c 1
 972.796875 645.291992188 972.796875 480.786132812 972.796875 316.28125 c 1
 1003.52636719 316.28125 1034.25488281 316.28125 1064.984375 316.28125 c 1
 1064.984375 286.854492188 1064.984375 257.426757812 1064.984375 228 c 1
 967.692382812 228 870.401367188 228 773.109375 228 c 1
1453.421875 216.515625 m 0
 1365.765625 216.515625 1296.9375 246.046875 1247.015625 305.265625 c 0
 1197.09375 364.484375 1172.171875 450.421875 1172.171875 563.078125 c 0
 1172.171875 619.328125 1178.578125 668.9375 1191.390625 711.828125 c 0
 1204.125 754.71875 1222.71875 790.890625 1247.015625 820.34375 c 0
 1271.390625 849.796875 1300.921875 871.984375 1335.84375 887.0625 c 0
 1370.6875 902.0625 1409.90625 909.5625 1453.421875 909.5625 c 0
 1511.703125 909.5625 1560.453125 896.828125 1599.828125 871.203125 c 0
 1639.203125 845.578125 1670.0625 807.84375 1692.484375 757.921875 c 1
 1662.09375 741.28125 1631.703125 724.640625 1601.3125 708 c 1
 1589.75 740.03125 1572.015625 765.421875 1548.03125 784.328125 c 0
 1523.96875 803.234375 1492.484375 812.609375 1453.421875 812.609375 c 0
 1401.625 812.609375 1360.921875 795.03125 1331.546875 759.875 c 0
 1302.09375 724.640625 1287.328125 675.96875 1287.328125 613.9375 c 1
 1287.328125 580.004882812 1287.328125 546.073242188 1287.328125 512.140625 c 1
 1287.328125 450.109375 1302.09375 401.4375 1331.546875 366.203125 c 0
 1360.921875 331.046875 1401.625 313.46875 1453.421875 313.46875 c 0
 1493.734375 313.46875 1526.546875 323.859375 1551.859375 344.640625 c 0
 1577.09375 365.421875 1595.84375 392.140625 1608.03125 424.796875 c 1
 1637.14550781 407.192382812 1666.26074219 389.588867188 1695.375 371.984375 c 1
 1672.953125 323.390625 1641.625 285.265625 1601.3125 257.765625 c 0
 1560.921875 230.265625 1511.703125 216.515625 1453.421875 216.515625 c 0
EndSplineSet
EndChar

StartChar: uniE10B
Encoding: 57611 57611 12
Width: 1792
VWidth: 1732
Flags: HW
HStem: 228 96.0156<820.297 1141> 494.875 95.0781<180.297 416.684> 519.875 95.9375<820.297 1111.23> 802.062 96.0156<180.297 416.684 820.297 1141 1212.33 1412.02 1520.45 1720.14>
VStem: 71.8594 108.438<228 494.875 589.953 803.078> 440.453 114.297<612.194 780.759> 711.859 108.438<324.016 519.875 615.812 802.062> 1412.02 108.438<228 802.062>
LayerCount: 2
UndoRedoHistory
Layer: 0
Undoes
UndoOperation
Index: 0
Type: 1
WasModified: 0
WasOrder2: 0
Layer: 2
Width: 1792
VWidth: 1792
LBearingChange: 0
UnicodeEnc: 0
InstructionsLength: 0
EndUndoOperation
EndUndoes
Redoes
EndRedoes
EndUndoRedoHistory
UndoRedoHistory
Layer: 1
Undoes
UndoOperation
Index: 0
Type: 3
WasModified: 0
WasOrder2: 0
Layer: 2
HStem: 288 96.0156<820.297 1141> 554.875 95.0781<180.297 416.684> 579.875 95.9375<820.297 1111.23> 862.062 96.0156<180.297 416.684 820.297 1141 1212.33 1412.02 1520.45 1720.14>
VStem: 71.8594 108.438<288 554.875 649.953 863.078> 440.453 114.297<672.194 840.759> 711.859 108.438<384.016 579.875 675.812 862.062> 1412.02 108.438<288 862.062>
EndUndoOperation
EndUndoes
Redoes
EndRedoes
EndUndoRedoHistory
Fore
SplineSet
71.859375 228 m 1xdf
 71.859375 451.359375 71.859375 674.71875 71.859375 898.078125 c 1
 167.848632812 898.078125 263.838867188 898.078125 359.828125 898.078125 c 1
 421.9375 898.078125 469.90625 879.875 503.8125 843.390625 c 0
 537.796875 806.90625 554.75 757.921875 554.75 696.515625 c 256
 554.75 635.03125 537.796875 586.046875 503.8125 549.5625 c 0
 469.90625 513.15625 421.9375 494.875 359.828125 494.875 c 1
 299.984375 494.875 240.140625 494.875 180.296875 494.875 c 1
 180.296875 405.916992188 180.296875 316.958007812 180.296875 228 c 1
 144.151367188 228 108.004882812 228 71.859375 228 c 1xdf
180.296875 589.953125 m 1
 237.901367188 589.953125 295.504882812 589.953125 353.109375 589.953125 c 1
 380.609375 589.953125 402.09375 597.140625 417.40625 611.515625 c 0
 432.796875 625.890625 440.453125 646.59375 440.453125 673.46875 c 1
 440.453125 688.807617188 440.453125 704.145507812 440.453125 719.484375 c 1
 440.453125 746.4375 432.796875 767.0625 417.40625 781.4375 c 0
 402.09375 795.8125 380.609375 803.078125 353.109375 803.078125 c 1
 295.504882812 803.078125 237.901367188 803.078125 180.296875 803.078125 c 1
 180.296875 732.036132812 180.296875 660.995117188 180.296875 589.953125 c 1
711.859375 228 m 1
 711.859375 451.359375 711.859375 674.71875 711.859375 898.078125 c 1
 854.90625 898.078125 997.953125 898.078125 1141 898.078125 c 1
 1141 866.073242188 1141 834.067382812 1141 802.0625 c 1
 1034.09863281 802.0625 927.198242188 802.0625 820.296875 802.0625 c 1
 820.296875 739.979492188 820.296875 677.895507812 820.296875 615.8125 c 1
 917.276367188 615.8125 1014.25488281 615.8125 1111.234375 615.8125 c 1
 1111.234375 583.833007812 1111.234375 551.854492188 1111.234375 519.875 c 1
 1014.25488281 519.875 917.276367188 519.875 820.296875 519.875 c 1xbf
 820.296875 454.588867188 820.296875 389.301757812 820.296875 324.015625 c 1
 927.198242188 324.015625 1034.09863281 324.015625 1141 324.015625 c 1
 1141 292.010742188 1141 260.004882812 1141 228 c 1
 997.953125 228 854.90625 228 711.859375 228 c 1
1520.453125 802.0625 m 1
 1520.453125 610.708007812 1520.453125 419.354492188 1520.453125 228 c 1
 1484.30761719 228 1448.16113281 228 1412.015625 228 c 1
 1412.015625 419.354492188 1412.015625 610.708007812 1412.015625 802.0625 c 1
 1345.453125 802.0625 1278.890625 802.0625 1212.328125 802.0625 c 1
 1212.328125 834.067382812 1212.328125 866.073242188 1212.328125 898.078125 c 1
 1381.59863281 898.078125 1550.87011719 898.078125 1720.140625 898.078125 c 1
 1720.140625 866.073242188 1720.140625 834.067382812 1720.140625 802.0625 c 1
 1653.578125 802.0625 1587.015625 802.0625 1520.453125 802.0625 c 1
EndSplineSet
EndChar

StartChar: uniE10C
Encoding: 57612 57612 13
Width: 1792
VWidth: 1732
Flags: HW
HStem: -208.33 85.3906<803.27 978.187> 140.107 85.4688<828.18 977.718> 657.686 89.2188<1388.21 1579.14> 669.17 92.1875<328.559 354.926> 942.76 85.4688<802.406 938.743> 1249.95 89.2969<802.406 1011.58 1380.73 1582.23>
VStem: 82.0938 106.562<1232.69 1339.25> 493.891 104.688<1234.56 1339.25> 674.359 107.5<-102.67 120.457> 700.609 101.797<669.17 942.76 1028.23 1249.95> 998.891 107.5<-102.386 119.315> 1030.84 108.516<1047.5 1230.69> 1233.73 109.453<795.416 1213>
DStem2: 188.656 1339.25 82.0938 1339.25 0.271727 -0.962374<0 593.586> 375.844 917.842 402.719 669.17 0.269742 0.962933<-155.735 437.628> 1024.12 950.42 922.406 942.76 0.413517 -0.910496<0 262.054>
LayerCount: 2
UndoRedoHistory
Layer: 0
Undoes
UndoOperation
Index: 0
Type: 1
WasModified: 0
WasOrder2: 0
Layer: 2
Width: 1792
VWidth: 1792
LBearingChange: 0
UnicodeEnc: 0
InstructionsLength: 0
EndUndoOperation
EndUndoes
Redoes
EndRedoes
EndUndoRedoHistory
UndoRedoHistory
Layer: 1
Undoes
UndoOperation
Index: 0
Type: 3
WasModified: 0
WasOrder2: 0
Layer: 2
HStem: -148.33 85.3906<803.27 978.187> 200.107 85.4688<828.18 977.718> 717.686 89.2188<1388.21 1579.14> 729.17 92.1875<328.559 354.926> 1002.76 85.4688<802.406 938.743> 1309.95 89.2969<802.406 1011.58 1380.73 1582.23>
VStem: 82.0938 106.562<1292.69 1399.25> 493.891 104.688<1294.56 1399.25> 674.359 107.5<-42.67 180.457> 700.609 101.797<729.17 1002.76 1088.23 1309.95> 998.891 107.5<-42.3858 179.315> 1030.84 108.516<1107.5 1290.69> 1233.73 109.453<855.416 1273>
DStem2: 188.656 1399.25 82.0938 1399.25 0.271727 -0.962374<0 593.586> 375.844 977.842 402.719 729.17 0.269742 0.962933<-155.735 437.628> 1024.12 1010.42 922.406 1002.76 0.413517 -0.910496<0 262.054>
EndUndoOperation
EndUndoes
Redoes
EndRedoes
EndUndoRedoHistory
Fore
SplineSet
890.296875 -208.330078125 m 0xcfa8
 818.734375 -208.330078125 764.828125 -186.298828125 728.578125 -142.158203125 c 0
 692.484375 -97.939453125 674.359375 -33.642578125 674.359375 50.810546875 c 0
 674.359375 91.123046875 679.515625 131.435546875 689.671875 171.826171875 c 0
 699.984375 212.138671875 714.671875 250.654296875 733.890625 287.451171875 c 0
 753.109375 324.248046875 775.921875 358.701171875 802.484375 390.654296875 c 0
 829.046875 422.685546875 858.734375 450.185546875 891.390625 473.232421875 c 1
 937.120117188 473.232421875 982.848632812 473.232421875 1028.578125 473.232421875 c 1
 989.515625 443.154296875 955.921875 414.482421875 927.796875 387.294921875 c 0
 899.671875 360.107421875 875.765625 333.076171875 856.234375 306.201171875 c 0
 836.703125 279.326171875 820.921875 251.669921875 808.734375 223.154296875 c 0
 796.546875 194.638671875 787.328125 163.779296875 780.921875 130.498046875 c 1
 785.088867188 130.498046875 789.254882812 130.498046875 793.421875 130.498046875 c 1
 804.359375 161.201171875 821.546875 184.716796875 845.296875 201.044921875 c 0
 868.890625 217.373046875 897.015625 225.576171875 929.671875 225.576171875 c 0
 984.046875 225.576171875 1027.171875 207.919921875 1058.890625 172.763671875 c 0
 1090.453125 137.529296875 1106.390625 85.732421875 1106.390625 17.216796875 c 0
 1106.390625 -53.798828125 1087.953125 -109.189453125 1051.234375 -148.876953125 c 0
 1014.359375 -188.564453125 960.765625 -208.330078125 890.296875 -208.330078125 c 0xcfa8
890.296875 -122.939453125 m 256
 962.640625 -122.939453125 998.890625 -83.251953125 998.890625 -3.876953125 c 1
 998.890625 4.4306640625 998.890625 12.7373046875 998.890625 21.044921875 c 1
 998.890625 100.419921875 962.640625 140.107421875 890.296875 140.107421875 c 256
 818.109375 140.107421875 781.859375 100.419921875 781.859375 21.044921875 c 1
 781.859375 12.7373046875 781.859375 4.4306640625 781.859375 -3.876953125 c 1
 781.859375 -83.251953125 818.109375 -122.939453125 890.296875 -122.939453125 c 256
278.890625 669.169921875 m 1xdf08
 213.291992188 892.529296875 147.692382812 1115.88867188 82.09375 1339.24804688 c 1
 117.614257812 1339.24804688 153.135742188 1339.24804688 188.65625 1339.24804688 c 1
 228.317382812 1198.77929688 267.979492188 1058.31054688 307.640625 917.841796875 c 1
 316.9375 865.680664062 326.234375 813.518554688 335.53125 761.357421875 c 1
 339.671875 761.357421875 343.8125 761.357421875 347.953125 761.357421875 c 1
 357.25 813.518554688 366.546875 865.680664062 375.84375 917.841796875 c 1
 415.192382812 1058.31054688 454.541992188 1198.77929688 493.890625 1339.24804688 c 1
 528.786132812 1339.24804688 563.682617188 1339.24804688 598.578125 1339.24804688 c 1
 533.291992188 1115.88867188 468.004882812 892.529296875 402.71875 669.169921875 c 1
 361.442382812 669.169921875 320.166992188 669.169921875 278.890625 669.169921875 c 1xdf08
802.40625 669.169921875 m 1xdf58
 768.473632812 669.169921875 734.541992188 669.169921875 700.609375 669.169921875 c 1
 700.609375 892.529296875 700.609375 1115.88867188 700.609375 1339.24804688 c 1
 788.942382812 1339.24804688 877.276367188 1339.24804688 965.609375 1339.24804688 c 1
 1023.1875 1339.24804688 1066.546875 1322.13867188 1095.6875 1287.91992188 c 0
 1124.75 1253.62304688 1139.359375 1204.56054688 1139.359375 1140.49804688 c 0
 1139.359375 1088.70117188 1129.75 1046.74804688 1110.53125 1014.79492188 c 0
 1091.3125 982.763671875 1062.5625 961.357421875 1024.125 950.419921875 c 1
 1066.703125 856.669921875 1109.28125 762.919921875 1151.859375 669.169921875 c 1
 1114.09863281 669.169921875 1076.33886719 669.169921875 1038.578125 669.169921875 c 1
 999.854492188 760.368164062 961.129882812 851.565429688 922.40625 942.763671875 c 1
 882.40625 942.763671875 842.40625 942.763671875 802.40625 942.763671875 c 1
 802.40625 851.565429688 802.40625 760.368164062 802.40625 669.169921875 c 1xdf58
956.9375 1028.23242188 m 1
 981.234375 1028.23242188 999.671875 1034.48242188 1012.171875 1046.90429688 c 0
 1024.59375 1059.40429688 1030.84375 1079.71679688 1030.84375 1107.91992188 c 1
 1030.84375 1128.70117188 1030.84375 1149.48242188 1030.84375 1170.26367188 c 1
 1030.84375 1198.46679688 1024.59375 1218.77929688 1012.171875 1231.27929688 c 0
 999.671875 1243.70117188 981.234375 1249.95117188 956.9375 1249.95117188 c 1
 905.426757812 1249.95117188 853.916992188 1249.95117188 802.40625 1249.95117188 c 1
 802.40625 1176.04492188 802.40625 1102.13867188 802.40625 1028.23242188 c 1
 853.916992188 1028.23242188 905.426757812 1028.23242188 956.9375 1028.23242188 c 1
1487.171875 657.685546875 m 0xef08
 1448.109375 657.685546875 1413.109375 664.248046875 1382.09375 677.294921875 c 0
 1351 690.419921875 1324.4375 711.123046875 1302.40625 739.248046875 c 0
 1280.296875 767.373046875 1263.34375 803.388671875 1251.46875 847.216796875 c 0
 1239.671875 891.123046875 1233.734375 943.388671875 1233.734375 1004.24804688 c 256
 1233.734375 1065.02929688 1239.671875 1117.29492188 1251.46875 1161.20117188 c 0
 1263.34375 1205.02929688 1280.296875 1241.04492188 1302.40625 1269.16992188 c 0
 1324.4375 1297.29492188 1351 1317.99804688 1382.09375 1331.12304688 c 0
 1413.109375 1344.24804688 1448.109375 1350.73242188 1487.171875 1350.73242188 c 0
 1544.125 1350.73242188 1589.75 1338.46679688 1623.96875 1313.77929688 c 0
 1658.1875 1289.16992188 1685.609375 1252.21679688 1706.078125 1202.91992188 c 1
 1677.27636719 1186.93066406 1648.47363281 1170.94042969 1619.671875 1154.95117188 c 1
 1608.109375 1192.68554688 1592.015625 1219.87304688 1571.15625 1236.51367188 c 0
 1550.375 1253.15429688 1522.40625 1261.51367188 1487.171875 1261.51367188 c 0
 1441.78125 1261.51367188 1406.390625 1245.81054688 1381.078125 1214.48242188 c 0
 1355.84375 1183.07617188 1343.1875 1139.87304688 1343.1875 1084.87304688 c 1
 1343.1875 1031.09667969 1343.1875 977.321289062 1343.1875 923.544921875 c 1
 1343.1875 868.544921875 1355.84375 825.341796875 1381.078125 793.935546875 c 0
 1406.390625 762.607421875 1441.78125 746.904296875 1487.171875 746.904296875 c 0
 1523.03125 746.904296875 1552.015625 755.888671875 1574.046875 773.779296875 c 0
 1596.15625 791.748046875 1613.265625 820.498046875 1625.453125 860.185546875 c 1
 1653.60449219 843.544921875 1681.75488281 826.904296875 1709.90625 810.263671875 c 1
 1688.8125 761.044921875 1660.609375 723.232421875 1625.453125 696.982421875 c 0
 1590.21875 670.732421875 1544.125 657.685546875 1487.171875 657.685546875 c 0xef08
EndSplineSet
EndChar

StartChar: uniE10D
Encoding: 57613 57613 14
Width: 1792
VWidth: 1732
Flags: HW
HStem: -202.516 96.0156<568.266 840.922 1048.27 1320.92> 652.016 96.9531<456.756 680.46> 930.375 95.0781<1137.88 1374.26> 1248.11 96.9531<456.756 680.46 1137.88 1374.26>
VStem: 279.672 116.172<812.663 1184.42> 459.828 108.438<-106.5 467.562> 741.391 116.172<812.663 1184.42> 939.828 108.438<-106.5 467.562> 1029.44 108.438<663.5 930.375 1025.45 1238.58> 1398.03 114.297<1047.69 1216.26>
LayerCount: 2
UndoRedoHistory
Layer: 0
Undoes
UndoOperation
Index: 0
Type: 1
WasModified: 0
WasOrder2: 0
Layer: 2
Width: 1792
VWidth: 1792
LBearingChange: 0
UnicodeEnc: 0
InstructionsLength: 0
EndUndoOperation
EndUndoes
Redoes
EndRedoes
EndUndoRedoHistory
UndoRedoHistory
Layer: 1
Undoes
UndoOperation
Index: 0
Type: 3
WasModified: 0
WasOrder2: 0
Layer: 2
HStem: -142.516 96.0156<568.266 840.922 1048.27 1320.92> 712.016 96.9531<456.756 680.46> 990.375 95.0781<1137.88 1374.26> 1308.11 96.9531<456.756 680.46 1137.88 1374.26>
VStem: 279.672 116.172<872.663 1244.42> 459.828 108.438<-46.5 527.562> 741.391 116.172<872.663 1244.42> 939.828 108.438<-46.5 527.562> 1029.44 108.438<723.5 990.375 1085.45 1298.58> 1398.03 114.297<1107.69 1276.26>
EndUndoOperation
EndUndoes
Redoes
EndRedoes
EndUndoRedoHistory
Fore
SplineSet
459.828125 -202.515625 m 1xfe40
 459.828125 20.84375 459.828125 244.203125 459.828125 467.5625 c 1
 495.973632812 467.5625 532.120117188 467.5625 568.265625 467.5625 c 1
 568.265625 276.208007812 568.265625 84.853515625 568.265625 -106.5 c 1
 659.151367188 -106.5 750.036132812 -106.5 840.921875 -106.5 c 1
 840.921875 -138.505859375 840.921875 -170.510742188 840.921875 -202.515625 c 1
 713.890625 -202.515625 586.859375 -202.515625 459.828125 -202.515625 c 1xfe40
939.828125 -202.515625 m 1xff40
 939.828125 20.84375 939.828125 244.203125 939.828125 467.5625 c 1
 975.973632812 467.5625 1012.12011719 467.5625 1048.265625 467.5625 c 1
 1048.265625 276.208007812 1048.265625 84.853515625 1048.265625 -106.5 c 1
 1139.15136719 -106.5 1230.03613281 -106.5 1320.921875 -106.5 c 1
 1320.921875 -138.505859375 1320.921875 -170.510742188 1320.921875 -202.515625 c 1
 1193.890625 -202.515625 1066.859375 -202.515625 939.828125 -202.515625 c 1xff40
568.65625 652.015625 m 256
 525.0625 652.015625 485.609375 659.515625 450.0625 674.515625 c 0
 414.515625 689.59375 384.125 711.625 358.890625 740.765625 c 0
 333.578125 769.90625 314.046875 806.078125 300.296875 849.28125 c 0
 286.546875 892.484375 279.671875 942.25 279.671875 998.578125 c 256
 279.671875 1054.828125 286.546875 1104.59375 300.296875 1147.796875 c 0
 314.046875 1191 333.578125 1227.171875 358.890625 1256.3125 c 0
 384.125 1285.453125 414.515625 1307.484375 450.0625 1322.5625 c 0
 485.609375 1337.5625 525.0625 1345.0625 568.65625 1345.0625 c 256
 612.171875 1345.0625 651.625 1337.5625 687.171875 1322.5625 c 0
 722.71875 1307.484375 753.109375 1285.453125 778.34375 1256.3125 c 0
 803.65625 1227.171875 823.1875 1191 836.9375 1147.796875 c 0
 850.6875 1104.59375 857.5625 1054.828125 857.5625 998.578125 c 256
 857.5625 942.25 850.6875 892.484375 836.9375 849.28125 c 0
 823.1875 806.078125 803.65625 769.90625 778.34375 740.765625 c 0
 753.109375 711.625 722.71875 689.59375 687.171875 674.515625 c 0
 651.625 659.515625 612.171875 652.015625 568.65625 652.015625 c 256
568.65625 748.96875 m 0
 594.203125 748.96875 617.71875 753.421875 639.203125 762.40625 c 0
 660.609375 771.3125 678.890625 784.28125 693.890625 801.234375 c 0
 708.96875 818.1875 720.609375 838.890625 728.96875 863.1875 c 0
 737.25 887.484375 741.390625 914.984375 741.390625 945.765625 c 1
 741.390625 980.947265625 741.390625 1016.12988281 741.390625 1051.3125 c 1
 741.390625 1082.09375 737.25 1109.59375 728.96875 1133.890625 c 0
 720.609375 1158.1875 708.96875 1178.890625 693.890625 1195.84375 c 0
 678.890625 1212.796875 660.609375 1225.765625 639.203125 1234.671875 c 0
 617.71875 1243.65625 594.203125 1248.109375 568.65625 1248.109375 c 0
 542.40625 1248.109375 518.734375 1243.65625 497.5625 1234.671875 c 0
 476.46875 1225.765625 458.34375 1212.796875 443.34375 1195.84375 c 0
 428.265625 1178.890625 416.625 1158.1875 408.265625 1133.890625 c 0
 399.984375 1109.59375 395.84375 1082.09375 395.84375 1051.3125 c 1
 395.84375 1016.12988281 395.84375 980.947265625 395.84375 945.765625 c 1
 395.84375 914.984375 399.984375 887.484375 408.265625 863.1875 c 0
 416.625 838.890625 428.265625 818.1875 443.34375 801.234375 c 0
 458.34375 784.28125 476.46875 771.3125 497.5625 762.40625 c 0
 518.734375 753.421875 542.40625 748.96875 568.65625 748.96875 c 0
1029.4375 663.5 m 1xfec0
 1029.4375 886.859375 1029.4375 1110.21875 1029.4375 1333.578125 c 1
 1125.42675781 1333.578125 1221.41699219 1333.578125 1317.40625 1333.578125 c 1
 1379.515625 1333.578125 1427.484375 1315.37402344 1461.390625 1278.890625 c 0
 1495.375 1242.40527344 1512.328125 1193.421875 1512.328125 1132.015625 c 256
 1512.328125 1070.53027344 1495.375 1021.546875 1461.390625 985.0625 c 0
 1427.484375 948.65625 1379.515625 930.375 1317.40625 930.375 c 1
 1257.5625 930.375 1197.71875 930.375 1137.875 930.375 c 1
 1137.875 841.416015625 1137.875 752.458007812 1137.875 663.5 c 1
 1101.72949219 663.5 1065.58300781 663.5 1029.4375 663.5 c 1xfec0
1137.875 1025.453125 m 1
 1195.47949219 1025.453125 1253.08300781 1025.453125 1310.6875 1025.453125 c 1
 1338.1875 1025.453125 1359.671875 1032.640625 1374.984375 1047.015625 c 0
 1390.375 1061.390625 1398.03125 1082.09277344 1398.03125 1108.96875 c 1
 1398.03125 1124.30664062 1398.03125 1139.64550781 1398.03125 1154.984375 c 1
 1398.03125 1181.9375 1390.375 1202.56152344 1374.984375 1216.9375 c 0
 1359.671875 1231.31152344 1338.1875 1238.578125 1310.6875 1238.578125 c 1
 1253.08300781 1238.578125 1195.47949219 1238.578125 1137.875 1238.578125 c 1
 1137.875 1167.53613281 1137.875 1096.49414062 1137.875 1025.453125 c 1
EndSplineSet
EndChar

StartChar: uniE10E
Encoding: 57614 57614 15
Width: 1792
VWidth: 1732
Flags: HW
HStem: 228 96.0156<177.043 421.987 1508.81 1781.47> 494.875 95.0781<868.812 1105.12> 803.078 95<177.765 421.265 868.812 1105.12>
VStem: 10.5312 116.25<377.163 748.916> 472.25 116.25<377.163 748.916> 760.375 108.438<228 494.875 589.953 803.078> 1128.97 114.219<612.194 780.759> 1400.38 108.438<324.016 898.078>
LayerCount: 2
UndoRedoHistory
Layer: 0
Undoes
UndoOperation
Index: 0
Type: 1
WasModified: 0
WasOrder2: 0
Layer: 2
Width: 1792
VWidth: 1792
LBearingChange: 0
UnicodeEnc: 0
InstructionsLength: 0
EndUndoOperation
EndUndoes
Redoes
EndRedoes
EndUndoRedoHistory
UndoRedoHistory
Layer: 1
Undoes
UndoOperation
Index: 0
Type: 3
WasModified: 0
WasOrder2: 0
Layer: 2
HStem: 288 96.0156<177.043 421.987 1508.81 1781.47> 554.875 95.0781<868.812 1105.12> 863.078 95<177.765 421.265 868.812 1105.12>
VStem: 10.5312 116.25<437.163 808.916> 472.25 116.25<437.163 808.916> 760.375 108.438<288 554.875 649.953 863.078> 1128.97 114.219<672.194 840.759> 1400.38 108.438<384.016 958.078>
EndUndoOperation
EndUndoes
Redoes
EndRedoes
EndUndoRedoHistory
Fore
SplineSet
299.59375 216.515625 m 256
 256 216.515625 216.46875 224.015625 181 239.015625 c 0
 145.375 254.09375 115.0625 276.125 89.75 305.265625 c 0
 64.4375 334.40625 44.90625 370.578125 31.15625 413.78125 c 0
 17.40625 456.984375 10.53125 506.75 10.53125 563.078125 c 256
 10.53125 619.328125 17.40625 669.09375 31.15625 712.296875 c 0
 44.90625 755.5 64.4375 791.671875 89.75 820.8125 c 0
 115.0625 849.953125 145.375 871.984375 181 887.0625 c 0
 216.46875 902.0625 256 909.5625 299.59375 909.5625 c 256
 343.03125 909.5625 382.5625 902.0625 418.03125 887.0625 c 0
 453.65625 871.984375 483.96875 849.953125 509.28125 820.8125 c 0
 534.59375 791.671875 554.125 755.5 567.875 712.296875 c 0
 581.625 669.09375 588.5 619.328125 588.5 563.078125 c 256
 588.5 506.75 581.625 456.984375 567.875 413.78125 c 0
 554.125 370.578125 534.59375 334.40625 509.28125 305.265625 c 0
 483.96875 276.125 453.65625 254.09375 418.03125 239.015625 c 0
 382.5625 224.015625 343.03125 216.515625 299.59375 216.515625 c 256
299.59375 313.46875 m 0
 325.0625 313.46875 348.65625 317.921875 370.0625 326.90625 c 0
 391.46875 335.8125 409.75 348.78125 424.75 365.734375 c 0
 439.90625 382.6875 451.46875 403.390625 459.90625 427.6875 c 0
 468.1875 451.984375 472.25 479.484375 472.25 510.265625 c 1
 472.25 545.448242188 472.25 580.629882812 472.25 615.8125 c 1
 472.25 646.59375 468.1875 674.09375 459.90625 698.390625 c 0
 451.46875 722.6875 439.90625 743.390625 424.75 760.34375 c 0
 409.75 777.296875 391.46875 790.265625 370.0625 799.171875 c 0
 348.65625 808.15625 325.0625 812.609375 299.59375 812.609375 c 0
 273.34375 812.609375 249.59375 808.15625 228.5 799.171875 c 0
 207.40625 790.265625 189.28125 777.296875 174.28125 760.34375 c 0
 159.125 743.390625 147.5625 722.6875 139.125 698.390625 c 0
 130.84375 674.09375 126.78125 646.59375 126.78125 615.8125 c 1
 126.78125 580.629882812 126.78125 545.448242188 126.78125 510.265625 c 1
 126.78125 479.484375 130.84375 451.984375 139.125 427.6875 c 0
 147.5625 403.390625 159.125 382.6875 174.28125 365.734375 c 0
 189.28125 348.78125 207.40625 335.8125 228.5 326.90625 c 0
 249.59375 317.921875 273.34375 313.46875 299.59375 313.46875 c 0
760.375 228 m 1
 760.375 451.359375 760.375 674.71875 760.375 898.078125 c 1
 856.364257812 898.078125 952.354492188 898.078125 1048.34375 898.078125 c 1
 1110.375 898.078125 1158.34375 879.875 1192.25 843.390625 c 0
 1226.3125 806.90625 1243.1875 757.921875 1243.1875 696.515625 c 256
 1243.1875 635.03125 1226.3125 586.046875 1192.25 549.5625 c 0
 1158.34375 513.15625 1110.375 494.875 1048.34375 494.875 c 1
 988.5 494.875 928.65625 494.875 868.8125 494.875 c 1
 868.8125 405.916992188 868.8125 316.958007812 868.8125 228 c 1
 832.666992188 228 796.520507812 228 760.375 228 c 1
868.8125 589.953125 m 1
 926.416992188 589.953125 984.020507812 589.953125 1041.625 589.953125 c 1
 1069.125 589.953125 1090.53125 597.140625 1105.84375 611.515625 c 0
 1121.3125 625.890625 1128.96875 646.59375 1128.96875 673.46875 c 1
 1128.96875 688.807617188 1128.96875 704.145507812 1128.96875 719.484375 c 1
 1128.96875 746.4375 1121.3125 767.0625 1105.84375 781.4375 c 0
 1090.53125 795.8125 1069.125 803.078125 1041.625 803.078125 c 1
 984.020507812 803.078125 926.416992188 803.078125 868.8125 803.078125 c 1
 868.8125 732.036132812 868.8125 660.995117188 868.8125 589.953125 c 1
1400.375 228 m 1
 1400.375 451.359375 1400.375 674.71875 1400.375 898.078125 c 1
 1436.52050781 898.078125 1472.66699219 898.078125 1508.8125 898.078125 c 1
 1508.8125 706.723632812 1508.8125 515.370117188 1508.8125 324.015625 c 1
 1599.69824219 324.015625 1690.58300781 324.015625 1781.46875 324.015625 c 1
 1781.46875 292.010742188 1781.46875 260.004882812 1781.46875 228 c 1
 1654.4375 228 1527.40625 228 1400.375 228 c 1
EndSplineSet
EndChar

StartChar: uniE10F
Encoding: 57615 57615 16
Width: 1792
VWidth: 1732
Flags: HW
HStem: 228 96.0156<742.719 983.085 1340.88 1585.94> 519.875 95.9375<182.719 458.188 1468.24 1586.52> 802.062 96.0156<182.719 492.719 742.719 983.085 1378.58 1614.18>
VStem: 74.2812 108.438<228 519.875 615.812 802.062> 634.281 108.438<324.016 802.062> 1038.34 116.25<379.419 746.659> 1250.22 107.5<656.387 792.68> 1610.22 107.5<339.565 486.758>
DStem2: 1464.28 629.25 1446 526.594 0.978916 -0.204262<-84.3745 149.704>
LayerCount: 2
UndoRedoHistory
Layer: 0
Undoes
UndoOperation
Index: 0
Type: 1
WasModified: 0
WasOrder2: 0
Layer: 2
Width: 1792
VWidth: 1792
LBearingChange: 0
UnicodeEnc: 0
InstructionsLength: 0
EndUndoOperation
EndUndoes
Redoes
EndRedoes
EndUndoRedoHistory
UndoRedoHistory
Layer: 1
Undoes
UndoOperation
Index: 0
Type: 3
WasModified: 0
WasOrder2: 0
Layer: 2
HStem: 288 96.0156<742.719 983.085 1340.88 1585.94> 579.875 95.9375<182.719 458.188 1468.24 1586.52> 862.062 96.0156<182.719 492.719 742.719 983.085 1378.58 1614.18>
VStem: 74.2812 108.438<288 579.875 675.812 862.062> 634.281 108.438<384.016 862.062> 1038.34 116.25<439.419 806.659> 1250.22 107.5<716.387 852.68> 1610.22 107.5<399.565 546.758>
DStem2: 1464.28 689.25 1446 586.594 0.978916 -0.204262<-84.3745 149.704>
EndUndoOperation
EndUndoes
Redoes
EndRedoes
EndUndoRedoHistory
Fore
SplineSet
74.28125 228 m 1
 74.28125 451.359375 74.28125 674.71875 74.28125 898.078125 c 1
 213.760742188 898.078125 353.239257812 898.078125 492.71875 898.078125 c 1
 492.71875 866.073242188 492.71875 834.067382812 492.71875 802.0625 c 1
 389.385742188 802.0625 286.051757812 802.0625 182.71875 802.0625 c 1
 182.71875 739.979492188 182.71875 677.895507812 182.71875 615.8125 c 1
 274.541992188 615.8125 366.364257812 615.8125 458.1875 615.8125 c 1
 458.1875 583.833007812 458.1875 551.854492188 458.1875 519.875 c 1
 366.364257812 519.875 274.541992188 519.875 182.71875 519.875 c 1
 182.71875 422.583007812 182.71875 325.291992188 182.71875 228 c 1
 146.573242188 228 110.426757812 228 74.28125 228 c 1
634.28125 898.078125 m 1
 713.291992188 898.078125 792.301757812 898.078125 871.3125 898.078125 c 1
 914.28125 898.078125 953.03125 891.046875 988.03125 876.984375 c 0
 1022.875 862.84375 1052.5625 841.90625 1077.25 814.09375 c 0
 1101.9375 786.203125 1121 751.359375 1134.4375 709.40625 c 0
 1147.875 667.53125 1154.59375 618.703125 1154.59375 563.078125 c 256
 1154.59375 507.375 1147.875 458.546875 1134.4375 416.671875 c 0
 1121 374.71875 1101.9375 339.875 1077.25 311.984375 c 0
 1052.5625 284.171875 1022.875 263.234375 988.03125 249.09375 c 0
 953.03125 235.03125 914.28125 228 871.3125 228 c 1
 792.301757812 228 713.291992188 228 634.28125 228 c 1
 634.28125 451.359375 634.28125 674.71875 634.28125 898.078125 c 1
871.3125 324.015625 m 1
 921.3125 324.015625 961.625 339.71875 992.25 371.046875 c 0
 1023.03125 402.375 1038.34375 448.46875 1038.34375 509.25 c 1
 1038.34375 545.109375 1038.34375 580.96875 1038.34375 616.828125 c 1
 1038.34375 677.609375 1023.03125 723.703125 992.25 755.03125 c 0
 961.625 786.4375 921.3125 802.0625 871.3125 802.0625 c 1
 828.448242188 802.0625 785.583007812 802.0625 742.71875 802.0625 c 1
 742.71875 642.713867188 742.71875 483.364257812 742.71875 324.015625 c 1
 785.583007812 324.015625 828.448242188 324.015625 871.3125 324.015625 c 1
1474.90625 216.515625 m 0
 1418.5 216.515625 1370.6875 226.75 1331.3125 247.21875 c 0
 1291.9375 267.6875 1258.1875 295.1875 1230.0625 329.796875 c 1
 1255.01074219 353.15625 1279.95800781 376.515625 1304.90625 399.875 c 1
 1328.65625 371.046875 1354.75 349.25 1383.1875 334.5625 c 0
 1411.625 319.875 1444.125 312.453125 1480.6875 312.453125 c 0
 1523.5 312.453125 1555.84375 322.0625 1577.5625 341.28125 c 0
 1599.28125 360.5 1610.21875 386.4375 1610.21875 419.015625 c 0
 1610.21875 445.265625 1602.5625 466.046875 1587.25 481.4375 c 0
 1571.78125 496.828125 1544.59375 508.3125 1505.53125 515.96875 c 1
 1485.6875 519.510742188 1465.84375 523.051757812 1446 526.59375 c 1
 1380.84375 538.703125 1331.78125 560.1875 1299.125 590.890625 c 0
 1266.46875 621.59375 1250.21875 663.859375 1250.21875 717.609375 c 0
 1250.21875 747.0625 1255.84375 773.78125 1267.09375 797.765625 c 0
 1278.1875 821.75 1293.96875 841.90625 1314.125 858.234375 c 0
 1334.28125 874.5625 1358.65625 887.21875 1387.5625 896.125 c 0
 1416.3125 905.109375 1448.65625 909.5625 1484.4375 909.5625 c 0
 1535.0625 909.5625 1578.8125 900.8125 1616 883.234375 c 0
 1653.03125 865.578125 1684.75 840.1875 1711 806.90625 c 1
 1685.73925781 784.510742188 1660.47949219 762.114257812 1635.21875 739.71875 c 1
 1617.875 762.0625 1596.78125 780.03125 1571.78125 793.46875 c 0
 1546.9375 806.90625 1515.84375 813.625 1478.65625 813.625 c 0
 1440.375 813.625 1410.53125 805.890625 1389.4375 790.578125 c 0
 1368.34375 775.1875 1357.71875 752.765625 1357.71875 723.390625 c 0
 1357.71875 695.1875 1366.3125 674.25 1383.65625 660.5 c 0
 1401 646.75 1427.875 636.28125 1464.28125 629.25 c 1
 1484.125 625.109375 1503.96875 620.96875 1523.8125 616.828125 c 1
 1591 604.015625 1640.21875 582.21875 1671.15625 551.515625 c 0
 1702.25 520.8125 1717.71875 478.546875 1717.71875 424.796875 c 0
 1717.71875 393.46875 1712.25 364.953125 1701.46875 339.328125 c 0
 1690.53125 313.78125 1674.75 291.828125 1653.96875 273.625 c 0
 1633.03125 255.34375 1607.71875 241.28125 1577.5625 231.359375 c 0
 1547.5625 221.4375 1513.1875 216.515625 1474.90625 216.515625 c 0
EndSplineSet
EndChar

StartChar: uniE110
Encoding: 57616 57616 17
Width: 1792
VWidth: 1732
Flags: HW
HStem: 144.2 116.406<1160.36 1475.04> 515.001 112.793<1160.36 1447.48> 865.392 116.406<1160.36 1447.48>
VStem: 143.168 140.43<841.368 981.8> 716.801 136.816<844.981 981.8> 1024.81 135.547<260.606 515.001 627.794 865.392> 1475.98 142.773<654.386 838.799> 1505.96 142.871<289.11 486.498>
DStem2: 283.598 981.8 143.168 981.8 0.311738 -0.950168<0 736.986> 501.957 276.231 575.199 144.2 0.291293 0.956634<0 737.551>
LayerCount: 2
UndoRedoHistory
Layer: 0
Undoes
UndoOperation
Index: 0
Type: 1
WasModified: 0
WasOrder2: 0
Layer: 2
Width: 1792
VWidth: 1792
LBearingChange: 0
UnicodeEnc: 0
InstructionsLength: 0
EndUndoOperation
EndUndoes
Redoes
EndRedoes
EndUndoRedoHistory
UndoRedoHistory
Layer: 1
Undoes
UndoOperation
Index: 0
Type: 3
WasModified: 0
WasOrder2: 0
Layer: 2
HStem: 204.2 116.406<1160.36 1475.04> 575.001 112.793<1160.36 1447.48> 925.392 116.406<1160.36 1447.48>
VStem: 143.168 140.43<901.368 1041.8> 716.801 136.816<904.981 1041.8> 1024.81 135.547<320.606 575.001 687.794 925.392> 1475.98 142.773<714.386 898.799> 1505.96 142.871<349.11 546.498>
DStem2: 283.598 1041.8 143.168 1041.8 0.311738 -0.950168<0 736.986> 501.957 336.231 575.199 204.2 0.291293 0.956634<0 737.551>
EndUndoOperation
EndUndoes
Redoes
EndRedoes
EndUndoRedoHistory
Fore
SplineSet
417.97265625 144.200195312 m 1xfc
 326.37109375 423.399414062 234.76953125 702.598632812 143.16796875 981.797851562 c 1
 189.977539062 981.797851562 236.788085938 981.797851562 283.59765625 981.797851562 c 1
 327.999023438 843.809570312 372.399414062 705.821289062 416.80078125 567.833007812 c 1
 443.590820312 470.631835938 470.381835938 373.431640625 497.171875 276.231445312 c 1
 498.766601562 276.231445312 500.362304688 276.231445312 501.95703125 276.231445312 c 1
 529.170898438 373.431640625 556.383789062 470.631835938 583.59765625 567.833007812 c 1
 627.999023438 705.821289062 672.399414062 843.809570312 716.80078125 981.797851562 c 1
 762.40625 981.797851562 808.01171875 981.797851562 853.6171875 981.797851562 c 1
 760.811523438 702.598632812 668.004882812 423.399414062 575.19921875 144.200195312 c 1
 522.790039062 144.200195312 470.381835938 144.200195312 417.97265625 144.200195312 c 1xfc
1024.80859375 981.797851562 m 1
 1148.40917969 981.797851562 1272.00878906 981.797851562 1395.609375 981.797851562 c 1
 1465.140625 981.797851562 1519.828125 962.168945312 1559.37890625 923.008789062 c 0
 1599.02734375 883.848632812 1618.75390625 831.407226562 1618.75390625 765.782226562 c 0xfe
 1618.75390625 734.629882812 1614.359375 707.969726562 1605.5703125 685.997070312 c 0
 1596.78125 664.024414062 1585.55078125 645.958007812 1571.9765625 631.993164062 c 0
 1558.40234375 618.028320312 1542.77734375 607.579101562 1525.19921875 600.840820312 c 0
 1507.62109375 594.004882812 1490.43359375 589.805664062 1473.5390625 588.243164062 c 1
 1473.5390625 585.833984375 1473.5390625 583.424804688 1473.5390625 581.016601562 c 1
 1490.43359375 580.235351562 1508.98828125 576.231445312 1529.3984375 569.004882812 c 0
 1549.80859375 561.778320312 1568.75390625 550.352539062 1586.4296875 534.825195312 c 0
 1604.0078125 519.200195312 1618.75390625 499.180664062 1630.765625 474.766601562 c 0
 1642.77734375 450.352539062 1648.83203125 420.567382812 1648.83203125 385.411132812 c 0xfd
 1648.83203125 351.817382812 1643.36328125 320.176757812 1632.62109375 290.586914062 c 0
 1621.78125 260.997070312 1606.7421875 235.411132812 1587.6015625 213.829101562 c 0
 1568.36328125 192.247070312 1545.609375 175.157226562 1519.14453125 162.754882812 c 0
 1492.77734375 150.352539062 1463.96875 144.200195312 1432.81640625 144.200195312 c 1
 1296.81347656 144.200195312 1160.81152344 144.200195312 1024.80859375 144.200195312 c 1
 1024.80859375 423.399414062 1024.80859375 702.598632812 1024.80859375 981.797851562 c 1
1160.35546875 260.606445312 m 1
 1237.95996094 260.606445312 1315.56347656 260.606445312 1393.16796875 260.606445312 c 1
 1428.421875 260.606445312 1455.9609375 269.786132812 1475.98046875 288.243164062 c 0xfe
 1496 306.602539062 1505.9609375 332.969726562 1505.9609375 367.442382812 c 1
 1505.9609375 381.016601562 1505.9609375 394.590820312 1505.9609375 408.165039062 c 1xfd
 1505.9609375 442.637695312 1496 469.004882812 1475.98046875 487.364257812 c 0
 1455.9609375 505.821289062 1428.421875 515.000976562 1393.16796875 515.000976562 c 1
 1315.56347656 515.000976562 1237.95996094 515.000976562 1160.35546875 515.000976562 c 1
 1160.35546875 430.202148438 1160.35546875 345.404296875 1160.35546875 260.606445312 c 1
1160.35546875 627.793945312 m 1
 1230.375 627.793945312 1300.39453125 627.793945312 1370.4140625 627.793945312 c 1
 1404.0078125 627.793945312 1429.984375 636.387695312 1448.34375 653.575195312 c 0
 1466.80078125 670.762695312 1475.98046875 695.372070312 1475.98046875 727.403320312 c 1
 1475.98046875 740.196289062 1475.98046875 752.989257812 1475.98046875 765.782226562 c 1
 1475.98046875 797.813476562 1466.80078125 822.422851562 1448.34375 839.610351562 c 0
 1429.984375 856.797851562 1404.0078125 865.391601562 1370.4140625 865.391601562 c 1
 1300.39453125 865.391601562 1230.375 865.391601562 1160.35546875 865.391601562 c 1
 1160.35546875 786.192382812 1160.35546875 706.993164062 1160.35546875 627.793945312 c 1
EndSplineSet
EndChar

StartChar: uniE111
Encoding: 57617 57617 18
Width: 1792
VWidth: 1732
Flags: HW
HStem: -202.66 88.2812<529.736 717.81 1048.08 1247.08> 111.246 92.1094<1077.25 1236.62> 144.84 87.3438<550.762 718.015> 399.215 91.1719<1056.64 1244.29> 674.84 90.2344<1027.95 1216.16 1322.72 1485.92> 1266.17 78.75<1171.98 1216.16>
VStem: 306.078 103.672<674.84 1187.5> 387.641 112.344<-82.2222 112.609> 722.719 103.672<832.262 1344.92> 747.641 111.406<-82.2222 112.609> 1216.16 106.562<765.074 1266.17> 1267.33 114.219<230.593 373.991> 1280.77 112.344<-81.2704 83.523>
DStem2: 645.922 974.37 486.547 1045.39 0.508638 -0.860981<-299.653 157.446> 986.703 1159.61 1052.95 1100.15 0.683543 0.72991<1.41729 229.335>
LayerCount: 2
UndoRedoHistory
Layer: 0
Undoes
UndoOperation
Index: 0
Type: 1
WasModified: 0
WasOrder2: 0
Layer: 2
Width: 1792
VWidth: 1792
LBearingChange: 0
UnicodeEnc: 0
InstructionsLength: 0
EndUndoOperation
EndUndoes
Redoes
EndRedoes
EndUndoRedoHistory
UndoRedoHistory
Layer: 1
Undoes
UndoOperation
Index: 0
Type: 3
WasModified: 0
WasOrder2: 0
Layer: 2
HStem: -142.66 88.2812<529.736 717.81 1048.08 1247.08> 171.246 92.1094<1077.25 1236.62> 204.84 87.3438<550.762 718.015> 459.215 91.1719<1056.64 1244.29> 734.84 90.2344<1027.95 1216.16 1322.72 1485.92> 1326.17 78.75<1171.98 1216.16>
VStem: 306.078 103.672<734.84 1247.5> 387.641 112.344<-22.2222 172.609> 722.719 103.672<892.262 1404.92> 747.641 111.406<-22.2222 172.609> 1216.16 106.562<825.074 1326.17> 1267.33 114.219<290.593 433.991> 1280.77 112.344<-21.2704 143.523>
DStem2: 645.922 1034.37 486.547 1105.39 0.508638 -0.860981<-299.653 157.446> 986.703 1219.61 1052.95 1160.15 0.683543 0.72991<1.41729 229.335>
EndUndoOperation
EndUndoes
Redoes
EndRedoes
EndUndoRedoHistory
Fore
SplineSet
623.8125 -202.66015625 m 0xbd40
 586.703125 -202.66015625 553.578125 -196.64453125 524.4375 -184.45703125 c 0
 495.296875 -172.26953125 470.6875 -154.84765625 450.53125 -132.11328125 c 0
 430.375 -109.37890625 414.828125 -82.03515625 403.96875 -50.08203125 c 0
 393.109375 -18.05078125 387.640625 18.12109375 387.640625 58.43359375 c 0xbd40
 387.640625 107.02734375 394.984375 152.80859375 409.75 195.69921875 c 0xbe
 424.4375 238.58984375 443.34375 277.96484375 466.390625 313.74609375 c 0
 489.4375 349.60546875 515.140625 381.48046875 543.65625 409.29296875 c 0
 572.09375 437.10546875 600.140625 460.30859375 627.640625 478.90234375 c 1
 675.635742188 478.90234375 723.629882812 478.90234375 771.625 478.90234375 c 1
 733.890625 451.40234375 699.984375 424.83984375 669.90625 399.21484375 c 0
 639.828125 373.58984375 613.578125 347.41796875 591.15625 320.54296875 c 0
 568.734375 293.58984375 550.0625 265.15234375 534.984375 235.07421875 c 0
 519.984375 204.99609375 508.265625 172.02734375 499.984375 136.16796875 c 1
 502.223632812 135.54296875 504.463867188 134.91796875 506.703125 134.29296875 c 1
 513.734375 147.73046875 521.859375 160.30859375 531.15625 172.18359375 c 0
 540.453125 184.05859375 551.3125 194.44921875 563.8125 203.35546875 c 0xdd
 576.3125 212.33984375 590.53125 219.37109375 606.546875 224.52734375 c 0
 622.5625 229.60546875 641.078125 232.18359375 662.171875 232.18359375 c 0
 690.375 232.18359375 716.46875 227.41796875 740.453125 217.80859375 c 0
 764.4375 208.19921875 785.21875 194.29296875 802.875 176.01171875 c 0
 820.453125 157.80859375 834.203125 135.85546875 844.125 110.23046875 c 0
 854.046875 84.68359375 859.046875 56.16796875 859.046875 24.83984375 c 0
 859.046875 -9.06640625 853.421875 -40.00390625 842.171875 -67.81640625 c 0
 831 -95.62890625 815.140625 -119.45703125 794.671875 -139.30078125 c 0
 774.203125 -159.14453125 749.4375 -174.69140625 720.296875 -185.86328125 c 0
 691.15625 -197.11328125 659.046875 -202.66015625 623.8125 -202.66015625 c 0xbd40
623.8125 -114.37890625 m 256
 662.875 -114.37890625 693.265625 -103.98828125 714.984375 -83.20703125 c 0
 736.78125 -62.34765625 747.640625 -31.80078125 747.640625 8.51171875 c 1
 747.640625 12.9912109375 747.640625 17.470703125 747.640625 21.94921875 c 1
 747.640625 62.26171875 736.78125 92.80859375 714.984375 113.58984375 c 0
 693.265625 134.44921875 662.875 144.83984375 623.8125 144.83984375 c 256
 584.75 144.83984375 554.359375 134.44921875 532.640625 113.58984375 c 0
 510.84375 92.80859375 499.984375 62.26171875 499.984375 21.94921875 c 1
 499.984375 17.470703125 499.984375 12.9912109375 499.984375 8.51171875 c 1
 499.984375 -31.80078125 510.84375 -62.34765625 532.640625 -83.20703125 c 0
 554.359375 -103.98828125 584.75 -114.37890625 623.8125 -114.37890625 c 256
1145.375 203.35546875 m 1xdc08
 1187.015625 203.35546875 1217.71875 212.18359375 1237.5625 229.76171875 c 0
 1257.40625 247.41796875 1267.328125 269.918945312 1267.328125 297.49609375 c 1
 1267.328125 299.736328125 1267.328125 301.975585938 1267.328125 304.21484375 c 1
 1267.328125 334.918945312 1257.71875 358.43359375 1238.5 374.76171875 c 0
 1219.359375 391.08984375 1193.421875 399.21484375 1160.765625 399.21484375 c 0
 1128.734375 399.21484375 1101.546875 392.02734375 1079.203125 377.65234375 c 0
 1056.78125 363.19921875 1037.875 343.19921875 1022.5625 317.65234375 c 1
 998.551757812 338.43359375 974.541992188 359.21484375 950.53125 379.99609375 c 1
 960.765625 394.76171875 972.328125 408.82421875 985.0625 422.26171875 c 0
 997.875 435.69921875 1012.953125 447.41796875 1030.21875 457.33984375 c 0
 1047.484375 467.26171875 1067.015625 475.23046875 1088.734375 481.32421875 c 0
 1110.53125 487.41796875 1135.453125 490.38671875 1163.65625 490.38671875 c 0
 1194.984375 490.38671875 1224.125 486.55859375 1251 478.90234375 c 0
 1277.875 471.24609375 1300.921875 459.83984375 1320.140625 444.83984375 c 0
 1339.359375 429.76171875 1354.359375 411.55859375 1365.21875 390.07421875 c 0
 1376.15625 368.66796875 1381.546875 344.528320312 1381.546875 317.65234375 c 0xdc10
 1381.546875 296.48046875 1378.1875 277.33984375 1371.46875 259.99609375 c 0
 1364.75 242.73046875 1355.453125 227.575195312 1343.65625 214.44921875 c 0
 1331.78125 201.325195312 1318.03125 190.622070312 1302.40625 182.26171875 c 0
 1286.703125 173.981445312 1270.21875 167.88671875 1252.953125 164.05859375 c 1
 1252.953125 162.444335938 1252.953125 160.830078125 1252.953125 159.21484375 c 1
 1272.09375 155.387695312 1290.21875 149.137695312 1307.171875 140.54296875 c 0
 1324.125 131.87109375 1339.046875 120.69921875 1351.78125 106.87109375 c 0
 1364.59375 93.12109375 1374.671875 76.79296875 1382.015625 57.96484375 c 0
 1389.4375 39.05859375 1393.109375 17.4970703125 1393.109375 -6.87890625 c 0
 1393.109375 -36.33203125 1387.328125 -63.0498046875 1375.84375 -87.03515625 c 0
 1364.28125 -111.018554688 1348.109375 -131.643554688 1327.328125 -148.91015625 c 0
 1306.546875 -166.252929688 1281.390625 -179.456054688 1251.9375 -188.75390625 c 0
 1222.5625 -198.049804688 1189.90625 -202.66015625 1154.046875 -202.66015625 c 0
 1122.71875 -202.66015625 1095.140625 -199.299804688 1071.46875 -192.58203125 c 0
 1047.796875 -185.862304688 1026.859375 -176.95703125 1008.578125 -165.70703125 c 0
 990.375 -154.53515625 974.359375 -141.72265625 960.609375 -127.34765625 c 0
 946.859375 -112.97265625 934.828125 -98.05078125 924.59375 -82.66015625 c 1
 951.15625 -61.87890625 977.71875 -41.09765625 1004.28125 -20.31640625 c 1
 1012.640625 -33.75390625 1021.390625 -46.01953125 1030.6875 -57.26953125 c 0
 1039.984375 -68.44140625 1050.53125 -78.05078125 1062.40625 -86.01953125 c 0
 1074.203125 -94.0654296875 1087.640625 -100.315429688 1102.71875 -104.76953125 c 0
 1117.71875 -109.22265625 1134.828125 -111.48828125 1154.046875 -111.48828125 c 0
 1194.984375 -111.48828125 1226.390625 -101.72265625 1248.109375 -82.19140625 c 0
 1269.90625 -62.66015625 1280.765625 -35.62890625 1280.765625 -1.09765625 c 1
 1280.765625 1.142578125 1280.765625 3.3818359375 1280.765625 5.62109375 c 1
 1280.765625 40.1533203125 1269.28125 66.40234375 1246.234375 84.37109375 c 0
 1223.1875 102.26171875 1190.53125 111.24609375 1148.265625 111.24609375 c 1
 1124.59375 111.24609375 1100.921875 111.24609375 1077.25 111.24609375 c 1
 1077.25 141.94921875 1077.25 172.65234375 1077.25 203.35546875 c 1
 1099.95800781 203.35546875 1122.66699219 203.35546875 1145.375 203.35546875 c 1xdc08
486.546875 1045.38671875 m 1
 461.911132812 1092.75683594 437.276367188 1140.12695312 412.640625 1187.49609375 c 1
 411.676757812 1187.49609375 410.713867188 1187.49609375 409.75 1187.49609375 c 1
 409.75 1016.61132812 409.75 845.725585938 409.75 674.83984375 c 1
 375.192382812 674.83984375 340.635742188 674.83984375 306.078125 674.83984375 c 1
 306.078125 898.19921875 306.078125 1121.55859375 306.078125 1344.91796875 c 1
 346.390625 1344.91796875 386.703125 1344.91796875 427.015625 1344.91796875 c 1
 499.984375 1221.40234375 572.953125 1097.88671875 645.921875 974.37109375 c 1
 670.557617188 927.001953125 695.192382812 879.631835938 719.828125 832.26171875 c 1
 720.791992188 832.26171875 721.754882812 832.26171875 722.71875 832.26171875 c 1
 722.71875 1003.14746094 722.71875 1174.03320312 722.71875 1344.91796875 c 1
 757.276367188 1344.91796875 791.833007812 1344.91796875 826.390625 1344.91796875 c 1
 826.390625 1121.55859375 826.390625 898.19921875 826.390625 674.83984375 c 1x9e80
 786.078125 674.83984375 745.765625 674.83984375 705.453125 674.83984375 c 1
 632.484375 798.35546875 559.515625 921.87109375 486.546875 1045.38671875 c 1
1027.953125 674.83984375 m 1
 1027.953125 704.91796875 1027.953125 734.99609375 1027.953125 765.07421875 c 1
 1090.6875 765.07421875 1153.421875 765.07421875 1216.15625 765.07421875 c 1
 1216.15625 932.10546875 1216.15625 1099.13671875 1216.15625 1266.16796875 c 1
 1213.578125 1266.16796875 1211 1266.16796875 1208.421875 1266.16796875 c 1
 1156.59863281 1210.83007812 1104.77636719 1155.49121094 1052.953125 1100.15234375 c 1
 1030.87011719 1119.97070312 1008.78613281 1139.78808594 986.703125 1159.60546875 c 1
 1043.65625 1221.37695312 1100.609375 1283.14746094 1157.5625 1344.91796875 c 1
 1212.61425781 1344.91796875 1267.66699219 1344.91796875 1322.71875 1344.91796875 c 1
 1322.71875 1151.63671875 1322.71875 958.35546875 1322.71875 765.07421875 c 1x9c20
 1377.12011719 765.07421875 1431.52050781 765.07421875 1485.921875 765.07421875 c 1
 1485.921875 734.99609375 1485.921875 704.91796875 1485.921875 674.83984375 c 1
 1333.265625 674.83984375 1180.609375 674.83984375 1027.953125 674.83984375 c 1
EndSplineSet
EndChar

StartChar: uniE112
Encoding: 57618 57618 19
Width: 1792
VWidth: 1732
Flags: HW
HStem: 216.516 96.9531<151.634 379.752 774.678 990.363 1414.68 1630.36> 812.609 96.9531<178.808 399.181 774.597 989.432 1414.6 1629.43>
VStem: 47.4062 107.5<656.387 792.68> 407.406 107.5<339.565 486.758> 601.625 115.156<375.807 753.111> 1241.62 115.156<375.807 753.111>
DStem2: 261.469 629.25 243.188 526.594 0.978916 -0.204262<-84.3815 149.558>
LayerCount: 2
UndoRedoHistory
Layer: 0
Undoes
UndoOperation
Index: 0
Type: 1
WasModified: 0
WasOrder2: 0
Layer: 2
Width: 1792
VWidth: 1792
LBearingChange: 0
UnicodeEnc: 0
InstructionsLength: 0
EndUndoOperation
EndUndoes
Redoes
EndRedoes
EndUndoRedoHistory
UndoRedoHistory
Layer: 1
Undoes
UndoOperation
Index: 0
Type: 3
WasModified: 0
WasOrder2: 0
Layer: 2
HStem: 276.516 96.9531<151.634 379.752 774.678 990.363 1414.68 1630.36> 872.609 96.9531<178.808 399.181 774.597 989.432 1414.6 1629.43>
VStem: 47.4062 107.5<716.387 852.68> 407.406 107.5<399.565 546.758> 601.625 115.156<435.807 813.111> 1241.62 115.156<435.807 813.111>
DStem2: 261.469 689.25 243.188 586.594 0.978916 -0.204262<-84.3815 149.558>
EndUndoOperation
EndUndoes
Redoes
EndRedoes
EndUndoRedoHistory
Fore
SplineSet
271.9375 216.515625 m 0
 215.6875 216.515625 167.875 226.75 128.5 247.21875 c 0
 89.125 267.6875 55.375 295.1875 27.25 329.796875 c 1
 52.1982421875 353.15625 77.1455078125 376.515625 102.09375 399.875 c 1
 125.6875 371.046875 151.78125 349.25 180.21875 334.5625 c 0
 208.8125 319.875 241.3125 312.453125 277.71875 312.453125 c 0
 320.6875 312.453125 352.875 322.0625 374.75 341.28125 c 0
 396.46875 360.5 407.40625 386.4375 407.40625 419.015625 c 0
 407.40625 445.265625 399.59375 466.046875 384.28125 481.4375 c 0
 368.96875 496.828125 341.78125 508.3125 302.71875 515.96875 c 1
 282.875 519.510742188 263.03125 523.051757812 243.1875 526.59375 c 1
 177.875 538.703125 128.96875 560.1875 96.3125 590.890625 c 0
 63.65625 621.59375 47.40625 663.859375 47.40625 717.609375 c 0
 47.40625 747.0625 52.875 773.78125 64.125 797.765625 c 0
 75.375 821.75 91 841.90625 111.15625 858.234375 c 0
 131.3125 874.5625 155.84375 887.21875 184.59375 896.125 c 0
 213.34375 905.109375 245.6875 909.5625 281.625 909.5625 c 0
 332.09375 909.5625 376 900.8125 413.03125 883.234375 c 0
 450.21875 865.578125 481.9375 840.1875 508.1875 806.90625 c 1
 482.875 784.510742188 457.5625 762.114257812 432.25 739.71875 c 1
 415.0625 762.0625 393.96875 780.03125 368.96875 793.46875 c 0
 343.96875 806.90625 312.875 813.625 275.84375 813.625 c 0
 237.40625 813.625 207.71875 805.890625 186.46875 790.578125 c 0
 165.375 775.1875 154.90625 752.765625 154.90625 723.390625 c 0
 154.90625 695.1875 163.5 674.25 180.84375 660.5 c 0
 198.03125 646.75 224.90625 636.28125 261.46875 629.25 c 1
 281.3125 625.109375 301.15625 620.96875 321 616.828125 c 1
 388.1875 604.015625 437.25 582.21875 468.34375 551.515625 c 0
 499.28125 520.8125 514.90625 478.546875 514.90625 424.796875 c 0
 514.90625 393.46875 509.4375 364.953125 498.5 339.328125 c 0
 487.71875 313.78125 471.78125 291.828125 451 273.625 c 0
 430.21875 255.34375 404.75 241.28125 374.75 231.359375 c 0
 344.59375 221.4375 310.375 216.515625 271.9375 216.515625 c 0
882.875 216.515625 m 0
 795.21875 216.515625 726.3125 246.046875 676.46875 305.265625 c 0
 626.46875 364.484375 601.625 450.421875 601.625 563.078125 c 0
 601.625 619.328125 608.03125 668.9375 620.84375 711.828125 c 0
 633.5 754.71875 652.09375 790.890625 676.46875 820.34375 c 0
 700.84375 849.796875 730.375 871.984375 765.21875 887.0625 c 0
 800.0625 902.0625 839.28125 909.5625 882.875 909.5625 c 0
 941.15625 909.5625 989.90625 896.828125 1029.28125 871.203125 c 0
 1068.65625 845.578125 1099.4375 807.84375 1121.9375 757.921875 c 1
 1091.52050781 741.28125 1061.10449219 724.640625 1030.6875 708 c 1
 1019.125 740.03125 1001.46875 765.421875 977.40625 784.328125 c 0
 953.34375 803.234375 921.9375 812.609375 882.875 812.609375 c 0
 831 812.609375 790.375 795.03125 761 759.875 c 0
 731.46875 724.640625 716.78125 675.96875 716.78125 613.9375 c 1
 716.78125 580.004882812 716.78125 546.073242188 716.78125 512.140625 c 1
 716.78125 450.109375 731.46875 401.4375 761 366.203125 c 0
 790.375 331.046875 831 313.46875 882.875 313.46875 c 0
 923.1875 313.46875 956 323.859375 981.3125 344.640625 c 0
 1006.46875 365.421875 1025.21875 392.140625 1037.40625 424.796875 c 1
 1066.52050781 407.192382812 1095.63574219 389.588867188 1124.75 371.984375 c 1
 1102.40625 323.390625 1071 285.265625 1030.6875 257.765625 c 0
 990.375 230.265625 941.15625 216.515625 882.875 216.515625 c 0
1522.875 216.515625 m 0
 1435.21875 216.515625 1366.3125 246.046875 1316.46875 305.265625 c 0
 1266.46875 364.484375 1241.625 450.421875 1241.625 563.078125 c 0
 1241.625 619.328125 1248.03125 668.9375 1260.84375 711.828125 c 0
 1273.5 754.71875 1292.09375 790.890625 1316.46875 820.34375 c 0
 1340.84375 849.796875 1370.375 871.984375 1405.21875 887.0625 c 0
 1440.0625 902.0625 1479.28125 909.5625 1522.875 909.5625 c 0
 1581.15625 909.5625 1629.90625 896.828125 1669.28125 871.203125 c 0
 1708.65625 845.578125 1739.4375 807.84375 1761.9375 757.921875 c 1
 1731.52050781 741.28125 1701.10449219 724.640625 1670.6875 708 c 1
 1659.125 740.03125 1641.46875 765.421875 1617.40625 784.328125 c 0
 1593.34375 803.234375 1561.9375 812.609375 1522.875 812.609375 c 0
 1471 812.609375 1430.375 795.03125 1401 759.875 c 0
 1371.46875 724.640625 1356.78125 675.96875 1356.78125 613.9375 c 1
 1356.78125 580.004882812 1356.78125 546.073242188 1356.78125 512.140625 c 1
 1356.78125 450.109375 1371.46875 401.4375 1401 366.203125 c 0
 1430.375 331.046875 1471 313.46875 1522.875 313.46875 c 0
 1563.1875 313.46875 1596 323.859375 1621.3125 344.640625 c 0
 1646.46875 365.421875 1665.21875 392.140625 1677.40625 424.796875 c 1
 1706.52050781 407.192382812 1735.63574219 389.588867188 1764.75 371.984375 c 1
 1742.40625 323.390625 1711 285.265625 1670.6875 257.765625 c 0
 1630.375 230.265625 1581.15625 216.515625 1522.875 216.515625 c 0
EndSplineSet
EndChar

StartChar: uniE113
Encoding: 57619 57619 20
Width: 1792
VWidth: 1732
Flags: HW
HStem: 228 89.2969<228.172 451.245 1380.3 1712.48> 498.703 90.2344<848.188 1057.36> 808.781 89.2969<228.172 451.245 848.188 1057.36 1280.45 1586.7>
VStem: 79.5156 109.453<354.775 771.303> 490.375 109.453<354.775 771.303> 746.391 101.797<228 498.703 588.938 807.844> 1076.62 108.516<608.279 788.506>
DStem2: 1265.14 319.172 1380.3 317.297 0.548962 0.835847<61.6492 585.764>
LayerCount: 2
UndoRedoHistory
Layer: 0
Undoes
UndoOperation
Index: 0
Type: 1
WasModified: 0
WasOrder2: 0
Layer: 2
Width: 1792
VWidth: 1792
LBearingChange: 0
UnicodeEnc: 0
InstructionsLength: 0
EndUndoOperation
EndUndoes
Redoes
EndRedoes
EndUndoRedoHistory
UndoRedoHistory
Layer: 1
Undoes
UndoOperation
Index: 0
Type: 3
WasModified: 0
WasOrder2: 0
Layer: 2
HStem: 288 89.2969<228.172 451.245 1380.3 1712.48> 558.703 90.2344<848.188 1057.36> 868.781 89.2969<228.172 451.245 848.188 1057.36 1280.45 1586.7>
VStem: 79.5156 109.453<414.775 831.303> 490.375 109.453<414.775 831.303> 746.391 101.797<288 558.703 648.938 867.844> 1076.62 108.516<668.279 848.506>
DStem2: 1265.14 379.172 1380.3 377.297 0.548962 0.835847<61.6492 585.764>
EndUndoOperation
EndUndoes
Redoes
EndRedoes
EndUndoRedoHistory
Fore
SplineSet
339.671875 216.515625 m 256
 299.359375 216.515625 263.1875 223.078125 231.234375 236.125 c 0
 199.203125 249.25 171.859375 269.953125 149.125 298.078125 c 0
 126.390625 326.203125 109.125 362.21875 97.25 406.046875 c 0
 85.453125 449.953125 79.515625 502.21875 79.515625 563.078125 c 256
 79.515625 623.859375 85.453125 676.125 97.25 720.03125 c 0
 109.125 763.859375 126.390625 799.875 149.125 828 c 0
 171.859375 856.125 199.203125 876.828125 231.234375 889.953125 c 0
 263.1875 903.078125 299.359375 909.5625 339.671875 909.5625 c 256
 379.984375 909.5625 416.15625 903.078125 448.1875 889.953125 c 0
 480.140625 876.828125 507.5625 856.125 530.21875 828 c 0
 552.953125 799.875 570.21875 763.859375 582.09375 720.03125 c 0
 593.890625 676.125 599.828125 623.859375 599.828125 563.078125 c 256
 599.828125 502.21875 593.890625 449.953125 582.09375 406.046875 c 0
 570.21875 362.21875 552.953125 326.203125 530.21875 298.078125 c 0
 507.5625 269.953125 480.140625 249.25 448.1875 236.125 c 0
 416.15625 223.078125 379.984375 216.515625 339.671875 216.515625 c 256
339.671875 306.75 m 256
 387.71875 306.75 424.828125 322.21875 451.078125 353.3125 c 0
 477.25 384.328125 490.375 427.375 490.375 482.375 c 1
 490.375 536.151367188 490.375 589.926757812 490.375 643.703125 c 1
 490.375 698.703125 477.25 741.75 451.078125 772.765625 c 0
 424.828125 803.859375 387.71875 819.328125 339.671875 819.328125 c 256
 291.703125 819.328125 254.59375 803.859375 228.34375 772.765625 c 0
 202.09375 741.75 188.96875 698.703125 188.96875 643.703125 c 1
 188.96875 589.926757812 188.96875 536.151367188 188.96875 482.375 c 1
 188.96875 427.375 202.09375 384.328125 228.34375 353.3125 c 0
 254.59375 322.21875 291.703125 306.75 339.671875 306.75 c 256
746.390625 228 m 1
 746.390625 451.359375 746.390625 674.71875 746.390625 898.078125 c 1
 834.723632812 898.078125 923.057617188 898.078125 1011.390625 898.078125 c 1
 1068.96875 898.078125 1112.328125 880.96875 1141.46875 846.75 c 0
 1170.53125 812.453125 1185.140625 763.078125 1185.140625 698.390625 c 256
 1185.140625 633.78125 1170.53125 584.328125 1141.46875 550.109375 c 0
 1112.328125 515.8125 1068.96875 498.703125 1011.390625 498.703125 c 1
 956.989257812 498.703125 902.588867188 498.703125 848.1875 498.703125 c 1
 848.1875 408.46875 848.1875 318.234375 848.1875 228 c 1
 814.254882812 228 780.323242188 228 746.390625 228 c 1
848.1875 588.9375 m 1
 899.698242188 588.9375 951.208007812 588.9375 1002.71875 588.9375 c 1
 1027.015625 588.9375 1045.453125 595.1875 1057.953125 607.6875 c 0
 1070.375 620.1875 1076.625 640.1875 1076.625 667.6875 c 1
 1076.625 688.15625 1076.625 708.625 1076.625 729.09375 c 1
 1076.625 756.671875 1070.375 776.671875 1057.953125 789.09375 c 0
 1045.453125 801.59375 1027.015625 807.84375 1002.71875 807.84375 c 1
 951.208007812 807.84375 899.698242188 807.84375 848.1875 807.84375 c 1
 848.1875 734.875 848.1875 661.90625 848.1875 588.9375 c 1
1712.484375 228 m 1
 1563.37011719 228 1414.25488281 228 1265.140625 228 c 1
 1265.140625 258.390625 1265.140625 288.78125 1265.140625 319.171875 c 1
 1372.328125 482.375 1479.515625 645.578125 1586.703125 808.78125 c 1
 1484.62011719 808.78125 1382.53613281 808.78125 1280.453125 808.78125 c 1
 1280.453125 838.546875 1280.453125 868.3125 1280.453125 898.078125 c 1
 1420.94824219 898.078125 1561.44238281 898.078125 1701.9375 898.078125 c 1
 1701.9375 867.6875 1701.9375 837.296875 1701.9375 806.90625 c 1
 1594.72363281 643.703125 1487.51074219 480.5 1380.296875 317.296875 c 1
 1491.02636719 317.296875 1601.75488281 317.296875 1712.484375 317.296875 c 1
 1712.484375 287.53125 1712.484375 257.765625 1712.484375 228 c 1
EndSplineSet
EndChar

StartChar: uniE114
Encoding: 57620 57620 21
Width: 1792
VWidth: 1732
Flags: HW
HStem: -202.516 96.0156<794.758 1115.46> 89.359 95.9375<794.758 1085.7> 371.547 96.0156<794.758 1115.46> 652.016 96.9531<1094.81 1318.51> 930.375 95.0781<415.93 652.317> 1238.58 95<415.93 652.317 1084.89 1328.46>
VStem: 46.3203 108.438<-202.516 49.388 127.719 467.562> 307.492 108.438<663.5 930.375 1025.45 1238.58> 435.07 126.719<340.844 467.562> 450.461 130.547<-202.516 -71.9688> 686.32 108.438<-106.5 89.359 185.297 371.547 1047.69 1216.26> 917.727 116.172<812.663 1184.42> 1379.45 116.172<812.662 1184.42> 1404.68 108.516<-202.516 124.921>
DStem2: 158.586 127.719 246.945 110.453 0.660468 0.750854<0 45.3946 144.153 437.782> 322.805 185.297 246.945 110.453 0.545149 -0.838339<21.3897 394.71> 1298.12 467.562 1174.29 467.562 0.479608 -0.877483<0 340.284> 1464.21 168.969 1513.2 63.422 0.477483 0.878641<0 339.836>
LayerCount: 2
UndoRedoHistory
Layer: 0
Undoes
UndoOperation
Index: 0
Type: 1
WasModified: 0
WasOrder2: 0
Layer: 2
Width: 1792
VWidth: 1792
LBearingChange: 0
UnicodeEnc: 0
InstructionsLength: 0
EndUndoOperation
EndUndoes
Redoes
EndRedoes
EndUndoRedoHistory
UndoRedoHistory
Layer: 1
Undoes
UndoOperation
Index: 0
Type: 3
WasModified: 0
WasOrder2: 0
Layer: 2
HStem: -142.516 96.0156<794.758 1115.46> 149.359 95.9375<794.758 1085.7> 431.547 96.0156<794.758 1115.46> 712.016 96.9531<1094.81 1318.51> 990.375 95.0781<415.93 652.317> 1298.58 95<415.93 652.317 1084.89 1328.46>
VStem: 46.3203 108.438<-142.516 109.388 187.719 527.562> 307.492 108.438<723.5 990.375 1085.45 1298.58> 435.07 126.719<400.844 527.562> 450.461 130.547<-142.516 -11.9688> 686.32 108.438<-46.5 149.359 245.297 431.547 1107.69 1276.26> 917.727 116.172<872.663 1244.42> 1379.45 116.172<872.662 1244.42> 1404.68 108.516<-142.516 184.921>
DStem2: 158.586 187.719 246.945 170.453 0.660468 0.750854<0 45.3946 144.153 437.782> 322.805 245.297 246.945 170.453 0.545149 -0.838339<21.3897 394.71> 1298.12 527.562 1174.29 527.562 0.479608 -0.877483<0 340.284> 1464.21 228.969 1513.2 123.422 0.477483 0.878641<0 339.836>
EndUndoOperation
EndUndoes
Redoes
EndRedoes
EndUndoRedoHistory
Fore
SplineSet
246.9453125 110.453125 m 1xff70
 216.215820312 75.244140625 185.487304688 40.0361328125 154.7578125 4.828125 c 1
 154.7578125 -64.287109375 154.7578125 -133.401367188 154.7578125 -202.515625 c 1
 118.612304688 -202.515625 82.4658203125 -202.515625 46.3203125 -202.515625 c 1
 46.3203125 20.84375 46.3203125 244.203125 46.3203125 467.5625 c 1
 82.4658203125 467.5625 118.612304688 467.5625 154.7578125 467.5625 c 1
 154.7578125 354.28125 154.7578125 241 154.7578125 127.71875 c 1
 156.034179688 127.71875 157.309570312 127.71875 158.5859375 127.71875 c 1
 190.590820312 168.369140625 222.596679688 209.020507812 254.6015625 249.671875 c 1
 314.7578125 322.301757812 374.9140625 394.931640625 435.0703125 467.5625 c 1
 477.309570312 467.5625 519.549804688 467.5625 561.7890625 467.5625 c 1xffb0
 482.127929688 373.473632812 402.465820312 279.384765625 322.8046875 185.296875 c 1
 408.872070312 56.025390625 494.940429688 -73.2451171875 581.0078125 -202.515625 c 1
 537.4921875 -202.515625 493.9765625 -202.515625 450.4609375 -202.515625 c 1
 382.622070312 -98.193359375 314.784179688 6.1298828125 246.9453125 110.453125 c 1xff70
686.3203125 -202.515625 m 1
 686.3203125 20.84375 686.3203125 244.203125 686.3203125 467.5625 c 1
 829.3671875 467.5625 972.4140625 467.5625 1115.4609375 467.5625 c 1
 1115.4609375 435.556640625 1115.4609375 403.551757812 1115.4609375 371.546875 c 1
 1008.55957031 371.546875 901.659179688 371.546875 794.7578125 371.546875 c 1
 794.7578125 309.462890625 794.7578125 247.379882812 794.7578125 185.296875 c 1
 891.737304688 185.296875 988.715820312 185.296875 1085.6953125 185.296875 c 1
 1085.6953125 153.317382812 1085.6953125 121.337890625 1085.6953125 89.359375 c 1
 988.715820312 89.359375 891.737304688 89.359375 794.7578125 89.359375 c 1
 794.7578125 24.072265625 794.7578125 -41.2138671875 794.7578125 -106.5 c 1
 901.659179688 -106.5 1008.55957031 -106.5 1115.4609375 -106.5 c 1
 1115.4609375 -138.505859375 1115.4609375 -170.510742188 1115.4609375 -202.515625 c 1
 972.4140625 -202.515625 829.3671875 -202.515625 686.3203125 -202.515625 c 1
1404.6796875 -202.515625 m 1xff34
 1404.6796875 -114.521484375 1404.6796875 -26.5263671875 1404.6796875 61.46875 c 1
 1327.8828125 196.833007812 1251.0859375 332.197265625 1174.2890625 467.5625 c 1
 1215.56542969 467.5625 1256.84082031 467.5625 1298.1171875 467.5625 c 1
 1352.51855469 368.03125 1406.91894531 268.5 1461.3203125 168.96875 c 1
 1462.28417969 168.96875 1463.24707031 168.96875 1464.2109375 168.96875 c 1
 1518.29980469 268.5 1572.38769531 368.03125 1626.4765625 467.5625 c 1
 1666.1640625 467.5625 1705.8515625 467.5625 1745.5390625 467.5625 c 1
 1668.09082031 332.848632812 1590.64355469 198.134765625 1513.1953125 63.421875 c 1
 1513.1953125 -25.224609375 1513.1953125 -113.870117188 1513.1953125 -202.515625 c 1
 1477.0234375 -202.515625 1440.8515625 -202.515625 1404.6796875 -202.515625 c 1xff34
307.4921875 663.5 m 1
 307.4921875 886.859375 307.4921875 1110.21875 307.4921875 1333.578125 c 1
 403.481445312 1333.578125 499.471679688 1333.578125 595.4609375 1333.578125 c 1
 657.5703125 1333.578125 705.5390625 1315.375 739.4453125 1278.890625 c 0
 773.4296875 1242.40625 790.3828125 1193.421875 790.3828125 1132.015625 c 256
 790.3828125 1070.53125 773.4296875 1021.546875 739.4453125 985.0625 c 0
 705.5390625 948.65625 657.5703125 930.375 595.4609375 930.375 c 1
 535.6171875 930.375 475.7734375 930.375 415.9296875 930.375 c 1
 415.9296875 841.416015625 415.9296875 752.458007812 415.9296875 663.5 c 1
 379.784179688 663.5 343.637695312 663.5 307.4921875 663.5 c 1
415.9296875 1025.453125 m 1
 473.534179688 1025.453125 531.137695312 1025.453125 588.7421875 1025.453125 c 1
 616.2421875 1025.453125 637.7265625 1032.640625 653.0390625 1047.015625 c 0
 668.4296875 1061.390625 676.0859375 1082.09375 676.0859375 1108.96875 c 1
 676.0859375 1124.30664062 676.0859375 1139.64550781 676.0859375 1154.984375 c 1
 676.0859375 1181.9375 668.4296875 1202.5625 653.0390625 1216.9375 c 0
 637.7265625 1231.3125 616.2421875 1238.578125 588.7421875 1238.578125 c 1
 531.137695312 1238.578125 473.534179688 1238.578125 415.9296875 1238.578125 c 1
 415.9296875 1167.53613281 415.9296875 1096.49414062 415.9296875 1025.453125 c 1
1206.7109375 652.015625 m 256
 1163.1171875 652.015625 1123.6640625 659.515625 1088.1171875 674.515625 c 0
 1052.5703125 689.59375 1022.1796875 711.624023438 996.9453125 740.765625 c 0
 971.6328125 769.90625 952.1015625 806.078125 938.3515625 849.28125 c 0
 924.6015625 892.484375 917.7265625 942.25 917.7265625 998.578125 c 256
 917.7265625 1054.828125 924.6015625 1104.59375 938.3515625 1147.796875 c 0
 952.1015625 1191 971.6328125 1227.171875 996.9453125 1256.3125 c 0
 1022.1796875 1285.453125 1052.5703125 1307.48339844 1088.1171875 1322.5625 c 0
 1123.6640625 1337.56152344 1163.1171875 1345.0625 1206.7109375 1345.0625 c 256
 1250.2265625 1345.0625 1289.6796875 1337.5625 1325.2265625 1322.5625 c 0
 1360.7734375 1307.48339844 1391.1640625 1285.45214844 1416.3984375 1256.3125 c 0
 1441.7109375 1227.171875 1461.2421875 1191 1474.9921875 1147.796875 c 0
 1488.7421875 1104.59375 1495.6171875 1054.82714844 1495.6171875 998.578125 c 256xff38
 1495.6171875 942.25 1488.7421875 892.483398438 1474.9921875 849.28125 c 0
 1461.2421875 806.077148438 1441.7109375 769.905273438 1416.3984375 740.765625 c 0
 1391.1640625 711.625 1360.7734375 689.59375 1325.2265625 674.515625 c 0
 1289.6796875 659.515625 1250.2265625 652.015625 1206.7109375 652.015625 c 256
1206.7109375 748.96875 m 0
 1232.2578125 748.96875 1255.7734375 753.421875 1277.2578125 762.40625 c 0
 1298.6640625 771.3125 1316.9453125 784.28125 1331.9453125 801.234375 c 0
 1347.0234375 818.186523438 1358.6640625 838.890625 1367.0234375 863.1875 c 0
 1375.3046875 887.484375 1379.4453125 914.983398438 1379.4453125 945.765625 c 1
 1379.4453125 980.947265625 1379.4453125 1016.12988281 1379.4453125 1051.3125 c 1
 1379.4453125 1082.09375 1375.3046875 1109.59277344 1367.0234375 1133.890625 c 0
 1358.6640625 1158.18652344 1347.0234375 1178.890625 1331.9453125 1195.84375 c 0
 1316.9453125 1212.79589844 1298.6640625 1225.76464844 1277.2578125 1234.671875 c 0
 1255.7734375 1243.65625 1232.2578125 1248.109375 1206.7109375 1248.109375 c 0
 1180.4609375 1248.109375 1156.7890625 1243.65625 1135.6171875 1234.671875 c 0
 1114.5234375 1225.765625 1096.3984375 1212.796875 1081.3984375 1195.84375 c 0
 1066.3203125 1178.890625 1054.6796875 1158.18652344 1046.3203125 1133.890625 c 0
 1038.0390625 1109.59277344 1033.8984375 1082.09375 1033.8984375 1051.3125 c 1
 1033.8984375 1016.12988281 1033.8984375 980.947265625 1033.8984375 945.765625 c 1
 1033.8984375 914.983398438 1038.0390625 887.484375 1046.3203125 863.1875 c 0
 1054.6796875 838.890625 1066.3203125 818.186523438 1081.3984375 801.234375 c 0
 1096.3984375 784.280273438 1114.5234375 771.311523438 1135.6171875 762.40625 c 0
 1156.7890625 753.420898438 1180.4609375 748.96875 1206.7109375 748.96875 c 0
EndSplineSet
EndChar

StartChar: uniE115
Encoding: 57621 57621 22
Width: 1792
VWidth: 1732
Flags: HW
HStem: 60.5 139.688<684.242 1061.86> 505.461 135.352<684.242 1028.79> 925.93 139.688<684.242 1028.79>
VStem: 521.586 162.656<200.188 505.461 640.812 925.93> 1062.99 171.328<672.723 894.019> 1098.97 171.445<234.391 471.257>
LayerCount: 2
UndoRedoHistory
Layer: 0
Undoes
UndoOperation
Index: 0
Type: 1
WasModified: 0
WasOrder2: 0
Layer: 2
Width: 1792
VWidth: 1792
LBearingChange: 0
UnicodeEnc: 0
InstructionsLength: 0
EndUndoOperation
EndUndoes
Redoes
EndRedoes
EndUndoRedoHistory
UndoRedoHistory
Layer: 1
Undoes
UndoOperation
Index: 0
Type: 3
WasModified: 0
WasOrder2: 0
Layer: 2
HStem: 120.5 139.688<684.242 1061.86> 565.461 135.352<684.242 1028.79> 985.93 139.688<684.242 1028.79>
VStem: 521.586 162.656<260.188 565.461 700.812 985.93> 1062.99 171.328<732.723 954.019> 1098.97 171.445<294.391 531.257>
EndUndoOperation
EndUndoes
Redoes
EndRedoes
EndUndoRedoHistory
Fore
SplineSet
521.5859375 1065.6171875 m 1xf4
 669.90625 1065.6171875 818.2265625 1065.6171875 966.546875 1065.6171875 c 1
 1049.984375 1065.6171875 1115.609375 1042.0625 1163.0703125 995.0703125 c 0
 1210.6484375 948.078125 1234.3203125 885.1484375 1234.3203125 806.3984375 c 0xf8
 1234.3203125 769.015625 1229.046875 737.0234375 1218.5 710.65625 c 0
 1207.953125 684.2890625 1194.4765625 662.609375 1178.1875 645.8515625 c 0
 1161.8984375 629.09375 1143.1484375 616.5546875 1122.0546875 608.46875 c 0
 1100.9609375 600.265625 1080.3359375 595.2265625 1060.0625 593.3515625 c 1
 1060.0625 590.4609375 1060.0625 587.5703125 1060.0625 584.6796875 c 1
 1080.3359375 583.7421875 1102.6015625 578.9375 1127.09375 570.265625 c 0
 1151.5859375 561.59375 1174.3203125 547.8828125 1195.53125 529.25 c 0
 1216.625 510.5 1234.3203125 486.4765625 1248.734375 457.1796875 c 0
 1263.1484375 427.8828125 1270.4140625 392.140625 1270.4140625 349.953125 c 0
 1270.4140625 309.640625 1263.8515625 271.671875 1250.9609375 236.1640625 c 0
 1237.953125 200.65625 1219.90625 169.953125 1196.9375 144.0546875 c 0
 1173.8515625 118.15625 1146.546875 97.6484375 1114.7890625 82.765625 c 0
 1083.1484375 67.8828125 1048.578125 60.5 1011.1953125 60.5 c 1
 847.9921875 60.5 684.7890625 60.5 521.5859375 60.5 c 1
 521.5859375 395.5390625 521.5859375 730.578125 521.5859375 1065.6171875 c 1xf4
684.2421875 200.1875 m 1
 777.3671875 200.1875 870.4921875 200.1875 963.6171875 200.1875 c 1
 1005.921875 200.1875 1038.96875 211.203125 1062.9921875 233.3515625 c 0xf8
 1087.015625 255.3828125 1098.96875 287.0234375 1098.96875 328.390625 c 1
 1098.96875 344.6796875 1098.96875 360.96875 1098.96875 377.2578125 c 1xf4
 1098.96875 418.625 1087.015625 450.265625 1062.9921875 472.296875 c 0
 1038.96875 494.4453125 1005.921875 505.4609375 963.6171875 505.4609375 c 1
 870.4921875 505.4609375 777.3671875 505.4609375 684.2421875 505.4609375 c 1
 684.2421875 403.703125 684.2421875 301.9453125 684.2421875 200.1875 c 1
684.2421875 640.8125 m 1
 768.265625 640.8125 852.2890625 640.8125 936.3125 640.8125 c 1
 976.625 640.8125 1007.796875 651.125 1029.828125 671.75 c 0
 1051.9765625 692.375 1062.9921875 721.90625 1062.9921875 760.34375 c 1
 1062.9921875 775.6953125 1062.9921875 791.046875 1062.9921875 806.3984375 c 1
 1062.9921875 844.8359375 1051.9765625 874.3671875 1029.828125 894.9921875 c 0
 1007.796875 915.6171875 976.625 925.9296875 936.3125 925.9296875 c 1
 852.2890625 925.9296875 768.265625 925.9296875 684.2421875 925.9296875 c 1
 684.2421875 830.890625 684.2421875 735.8515625 684.2421875 640.8125 c 1
EndSplineSet
EndChar

StartChar: uniE116
Encoding: 57622 57622 23
Width: 1792
VWidth: 1732
Flags: HW
HStem: -21.1094 93.125<474.359 672.172> 367.719 99.8438<559.262 588.09> 652.016 95.9375<328.301 554.086> 663.5 124.766<964.387 984.548 1352.16 1364.12> 1249.12 95.9375<353.87 572.282>
VStem: 222.406 107.5<1091.89 1228.18> 279.516 110.312<-202.516 -92.2031> 582.406 107.5<775.065 922.258> 746.859 110.391<1223.19 1333.58> 759.516 113.281<-202.516 -89.2344> 980.922 103.75<-202.516 310.141> 1397.64 103.594<-45.0938 467.562> 1483.19 106.562<1227.02 1333.58>
DStem2: 279.516 -202.516 389.828 -202.516 0.303392 0.952866<33.468 224.101 320.706 631.909> 436.469 1064.75 418.188 962.09 0.978916 -0.204262<-84.378 149.631> 644.359 467.562 576.078 367.719 0.306233 -0.951957<74.137 385.061 481.942 673.15> 857.25 1333.58 746.859 1333.58 0.206752 -0.978393<0 557.355> 975.297 788.266 1027.17 663.5 0.24367 0.969858<0 458.809> 1320.77 97.016 1161.39 168.031 0.508638 -0.860981<-299.653 157.446> 1229.75 1333.58 1167.33 1213.58 0.238997 -0.97102<101.604 559.948> 1364.12 789.281 1424.59 663.5 0.213693 0.976901<0 557.167>
LayerCount: 2
UndoRedoHistory
Layer: 0
Undoes
UndoOperation
Index: 0
Type: 1
WasModified: 0
WasOrder2: 0
Layer: 2
Width: 1792
VWidth: 1792
LBearingChange: 0
UnicodeEnc: 0
InstructionsLength: 0
EndUndoOperation
EndUndoes
Redoes
EndRedoes
EndUndoRedoHistory
UndoRedoHistory
Layer: 1
Undoes
UndoOperation
Index: 0
Type: 3
WasModified: 0
WasOrder2: 0
Layer: 2
HStem: 38.8906 93.125<474.359 672.172> 427.719 99.8438<559.262 588.09> 712.016 95.9375<328.301 554.086> 723.5 124.766<964.387 984.548 1352.16 1364.12> 1309.12 95.9375<353.87 572.282>
VStem: 222.406 107.5<1151.89 1288.18> 279.516 110.312<-142.516 -32.2031> 582.406 107.5<835.065 982.258> 746.859 110.391<1283.19 1393.58> 759.516 113.281<-142.516 -29.2344> 980.922 103.75<-142.516 370.141> 1397.64 103.594<14.9062 527.562> 1483.19 106.562<1287.02 1393.58>
DStem2: 279.516 -142.516 389.828 -142.516 0.303392 0.952866<33.468 224.101 320.706 631.909> 436.469 1124.75 418.188 1022.09 0.978916 -0.204262<-84.378 149.631> 644.359 527.562 576.078 427.719 0.306233 -0.951957<74.137 385.061 481.942 673.15> 857.25 1393.58 746.859 1393.58 0.206752 -0.978393<0 557.355> 975.297 848.266 1027.17 723.5 0.24367 0.969858<0 458.809> 1320.77 157.016 1161.39 228.031 0.508638 -0.860981<-299.653 157.446> 1229.75 1393.58 1167.33 1273.58 0.238997 -0.97102<101.604 559.948> 1364.12 849.281 1424.59 723.5 0.213693 0.976901<0 557.167>
EndUndoOperation
EndUndoes
Redoes
EndRedoes
EndUndoRedoHistory
Fore
SplineSet
759.515625 -202.515625 m 1xcb60
 739.359375 -142.046875 719.203125 -81.578125 699.046875 -21.109375 c 1
 615.504882812 -21.109375 531.963867188 -21.109375 448.421875 -21.109375 c 1
 428.890625 -81.578125 409.359375 -142.046875 389.828125 -202.515625 c 1
 353.057617188 -202.515625 316.286132812 -202.515625 279.515625 -202.515625 c 1
 355.661132812 20.84375 431.807617188 244.203125 507.953125 467.5625 c 1
 553.421875 467.5625 598.890625 467.5625 644.359375 467.5625 c 1
 720.504882812 244.203125 796.651367188 20.84375 872.796875 -202.515625 c 1
 835.036132812 -202.515625 797.276367188 -202.515625 759.515625 -202.515625 c 1xcb60
576.078125 367.71875 m 1
 574.515625 367.71875 572.953125 367.71875 571.390625 367.71875 c 1
 539.046875 269.150390625 506.703125 170.583007812 474.359375 72.015625 c 1
 540.296875 72.015625 606.234375 72.015625 672.171875 72.015625 c 1
 640.140625 170.583007812 608.109375 269.150390625 576.078125 367.71875 c 1
1161.390625 168.03125 m 1
 1136.75488281 215.400390625 1112.12011719 262.770507812 1087.484375 310.140625 c 1
 1086.546875 310.140625 1085.609375 310.140625 1084.671875 310.140625 c 1
 1084.671875 139.254882812 1084.671875 -31.630859375 1084.671875 -202.515625 c 1
 1050.08886719 -202.515625 1015.50488281 -202.515625 980.921875 -202.515625 c 1
 980.921875 20.84375 980.921875 244.203125 980.921875 467.5625 c 1
 1021.234375 467.5625 1061.546875 467.5625 1101.859375 467.5625 c 1
 1174.828125 344.046875 1247.796875 220.53125 1320.765625 97.015625 c 1
 1345.40136719 49.6455078125 1370.03613281 2.275390625 1394.671875 -45.09375 c 1
 1395.66113281 -45.09375 1396.65136719 -45.09375 1397.640625 -45.09375 c 1
 1397.640625 125.791015625 1397.640625 296.676757812 1397.640625 467.5625 c 1
 1432.171875 467.5625 1466.703125 467.5625 1501.234375 467.5625 c 1
 1501.234375 244.203125 1501.234375 20.84375 1501.234375 -202.515625 c 1xc930
 1460.921875 -202.515625 1420.609375 -202.515625 1380.296875 -202.515625 c 1
 1307.328125 -79 1234.359375 44.515625 1161.390625 168.03125 c 1
447.015625 652.015625 m 0xed20
 390.6875 652.015625 342.875 662.249023438 303.5 682.71875 c 0
 264.125 703.1875 230.375 730.6875 202.25 765.296875 c 1
 227.198242188 788.65625 252.145507812 812.015625 277.09375 835.375 c 1
 300.765625 806.546875 326.859375 784.75 355.296875 770.0625 c 0
 383.8125 755.375 416.3125 747.953125 452.796875 747.953125 c 0
 495.6875 747.953125 527.953125 757.5625 549.75 776.78125 c 0
 571.46875 796 582.40625 821.9375 582.40625 854.515625 c 0
 582.40625 880.765625 574.671875 901.546875 559.359375 916.9375 c 0
 543.96875 932.328125 516.78125 943.8125 477.71875 951.46875 c 1
 457.875 955.009765625 438.03125 958.551757812 418.1875 962.09375 c 1
 352.953125 974.203125 303.96875 995.6875 271.3125 1026.390625 c 0
 238.65625 1057.09375 222.40625 1099.359375 222.40625 1153.109375 c 0
 222.40625 1182.5625 227.953125 1209.28125 239.203125 1233.265625 c 0
 250.375 1257.25 266.078125 1277.40625 286.234375 1293.734375 c 0
 306.390625 1310.0625 330.84375 1322.71875 359.671875 1331.625 c 0
 388.421875 1340.609375 420.765625 1345.0625 456.625 1345.0625 c 0
 507.171875 1345.0625 551 1336.3125 588.109375 1318.734375 c 0
 625.21875 1301.078125 656.9375 1275.6875 683.1875 1242.40625 c 1
 657.901367188 1220.00976562 632.614257812 1197.61425781 607.328125 1175.21875 c 1
 590.0625 1197.5625 568.96875 1215.53125 543.96875 1228.96875 c 0
 519.046875 1242.40625 487.953125 1249.125 450.84375 1249.125 c 0
 412.484375 1249.125 382.71875 1241.390625 361.546875 1226.078125 c 0
 340.453125 1210.6875 329.90625 1188.265625 329.90625 1158.890625 c 0
 329.90625 1130.6875 338.5 1109.75 355.84375 1096 c 0
 373.109375 1082.25 399.984375 1071.78125 436.46875 1064.75 c 1
 456.3125 1060.609375 476.15625 1056.46875 496 1052.328125 c 1
 563.1875 1039.515625 612.328125 1017.71875 643.34375 987.015625 c 0
 674.359375 956.3125 689.90625 914.046875 689.90625 860.296875 c 0
 689.90625 828.96875 684.4375 800.453125 673.578125 774.828125 c 0
 662.71875 749.28125 646.859375 727.328125 626.078125 709.125 c 0
 605.21875 690.84375 579.828125 676.78125 549.75 666.859375 c 0
 519.671875 656.936523438 485.375 652.015625 447.015625 652.015625 c 0xed20
905.21875 663.5 m 1xd9a8
 852.432617188 886.859375 799.645507812 1110.21875 746.859375 1333.578125 c 1
 783.65625 1333.578125 820.453125 1333.578125 857.25 1333.578125 c 1
 879.958007812 1226.05175781 902.666992188 1118.52539062 925.375 1011 c 1
 941.078125 936.754882812 956.78125 862.509765625 972.484375 788.265625 c 1
 973.421875 788.265625 974.359375 788.265625 975.296875 788.265625 c 1
 993.239257812 862.509765625 1011.18261719 936.754882812 1029.125 1011 c 1
 1055.66113281 1118.52539062 1082.19824219 1226.05175781 1108.734375 1333.578125 c 1
 1149.07324219 1333.578125 1189.41113281 1333.578125 1229.75 1333.578125 c 1
 1255.97363281 1226.05175781 1282.19824219 1118.52539062 1308.421875 1011 c 1
 1326.02636719 937.09375 1343.62988281 863.1875 1361.234375 789.28125 c 1
 1362.19824219 789.28125 1363.16113281 789.28125 1364.125 789.28125 c 1
 1380.453125 863.1875 1396.78125 937.09375 1413.109375 1011 c 1
 1436.46875 1118.52539062 1459.828125 1226.05175781 1483.1875 1333.578125 c 1
 1518.70800781 1333.578125 1554.22949219 1333.578125 1589.75 1333.578125 c 1
 1534.69824219 1110.21875 1479.64550781 886.859375 1424.59375 663.5 c 1
 1383.96875 663.5 1343.34375 663.5 1302.71875 663.5 c 1
 1274.22949219 779.020507812 1245.73925781 894.541015625 1217.25 1010.0625 c 1
 1200.609375 1077.90039062 1183.96875 1145.73925781 1167.328125 1213.578125 c 1
 1166.67675781 1213.578125 1166.02636719 1213.578125 1165.375 1213.578125 c 1
 1148.421875 1145.73925781 1131.46875 1077.90039062 1114.515625 1010.0625 c 1
 1085.40136719 894.541015625 1056.28613281 779.020507812 1027.171875 663.5 c 1
 986.520507812 663.5 945.870117188 663.5 905.21875 663.5 c 1xd9a8
EndSplineSet
EndChar

StartChar: uniE117
Encoding: 57623 57623 24
Width: 1792
VWidth: 1732
Flags: HW
HStem: 669.17 96.0156<520.383 793.039>
VStem: 280.539 103.75<-196.846 315.811> 411.945 108.438<765.186 1339.25> 697.258 103.594<-39.4238 473.232> 938.195 120<-196.846 -76.8457> 945.852 127.656<345.576 473.232> 1050.3 108.516<669.17 996.61> 1383.66 127.656<-196.846 -69.1894 345.576 473.232>
DStem2: 620.383 102.686 461.008 173.701 0.508638 -0.860981<-299.653 157.446> 943.742 1339.25 819.914 1339.25 0.479608 -0.877483<0 340.284> 938.195 -196.846 1058.2 -196.846 0.552681 0.833393<66.3217 372.475 510.607 804.036> 1073.51 473.232 945.852 473.232 0.546973 -0.83715<0 292.459 418.391 730.603> 1109.84 1040.65 1158.82 935.107 0.477483 0.878641<0 339.836>
LayerCount: 2
UndoRedoHistory
Layer: 0
Undoes
UndoOperation
Index: 0
Type: 1
WasModified: 0
WasOrder2: 0
Layer: 2
Width: 1792
VWidth: 1792
LBearingChange: 0
UnicodeEnc: 0
InstructionsLength: 0
EndUndoOperation
EndUndoes
Redoes
EndRedoes
EndUndoRedoHistory
UndoRedoHistory
Layer: 1
Undoes
UndoOperation
Index: 0
Type: 3
WasModified: 0
WasOrder2: 0
Layer: 2
HStem: 729.17 96.0156<520.383 793.039>
VStem: 280.539 103.75<-136.846 375.811> 411.945 108.438<825.186 1399.25> 697.258 103.594<20.5762 533.232> 938.195 120<-136.846 -16.8457> 945.852 127.656<405.576 533.232> 1050.3 108.516<729.17 1056.61> 1383.66 127.656<-136.846 -9.18945 405.576 533.232>
DStem2: 620.383 162.686 461.008 233.701 0.508638 -0.860981<-299.653 157.446> 943.742 1399.25 819.914 1399.25 0.479608 -0.877483<0 340.284> 938.195 -136.846 1058.2 -136.846 0.552681 0.833393<66.3217 372.475 510.607 804.036> 1073.51 533.232 945.852 533.232 0.546973 -0.83715<0 292.459 418.391 730.603> 1109.84 1100.65 1158.82 995.107 0.477483 0.878641<0 339.836>
EndUndoOperation
EndUndoes
Redoes
EndRedoes
EndUndoRedoHistory
Fore
SplineSet
461.0078125 173.701171875 m 1xf1
 436.372070312 221.071289062 411.737304688 268.440429688 387.1015625 315.810546875 c 1
 386.1640625 315.810546875 385.2265625 315.810546875 384.2890625 315.810546875 c 1
 384.2890625 144.924804688 384.2890625 -25.9599609375 384.2890625 -196.845703125 c 1
 349.706054688 -196.845703125 315.122070312 -196.845703125 280.5390625 -196.845703125 c 1
 280.5390625 26.513671875 280.5390625 249.873046875 280.5390625 473.232421875 c 1
 320.8515625 473.232421875 361.1640625 473.232421875 401.4765625 473.232421875 c 1
 474.4453125 349.716796875 547.4140625 226.201171875 620.3828125 102.685546875 c 1
 645.018554688 55.3154296875 669.653320312 7.9462890625 694.2890625 -39.423828125 c 1
 695.278320312 -39.423828125 696.268554688 -39.423828125 697.2578125 -39.423828125 c 1
 697.2578125 131.461914062 697.2578125 302.346679688 697.2578125 473.232421875 c 1
 731.7890625 473.232421875 766.3203125 473.232421875 800.8515625 473.232421875 c 1
 800.8515625 249.873046875 800.8515625 26.513671875 800.8515625 -196.845703125 c 1
 760.5390625 -196.845703125 720.2265625 -196.845703125 679.9140625 -196.845703125 c 1
 606.9453125 -73.330078125 533.9765625 50.185546875 461.0078125 173.701171875 c 1xf1
1511.3203125 -196.845703125 m 1
 1468.76855469 -196.845703125 1426.21582031 -196.845703125 1383.6640625 -196.845703125 c 1
 1329.54980469 -107.887695312 1275.43457031 -18.9287109375 1221.3203125 70.029296875 c 1
 1220.3828125 70.029296875 1219.4453125 70.029296875 1218.5078125 70.029296875 c 1
 1165.0703125 -18.9287109375 1111.6328125 -107.887695312 1058.1953125 -196.845703125 c 1
 1018.1953125 -196.845703125 978.1953125 -196.845703125 938.1953125 -196.845703125 c 1xf9
 1010.48730469 -82.6005859375 1082.77832031 31.6435546875 1155.0703125 145.888671875 c 1
 1085.33105469 255.002929688 1015.59082031 364.118164062 945.8515625 473.232421875 c 1
 988.403320312 473.232421875 1030.95605469 473.232421875 1073.5078125 473.232421875 c 1xf5
 1124.39355469 390.029296875 1175.27832031 306.826171875 1226.1640625 223.623046875 c 1
 1226.7890625 223.623046875 1227.4140625 223.623046875 1228.0390625 223.623046875 c 1
 1279.54980469 306.826171875 1331.05957031 390.029296875 1382.5703125 473.232421875 c 1
 1422.5703125 473.232421875 1462.5703125 473.232421875 1502.5703125 473.232421875 c 1
 1432.20605469 364.430664062 1361.84082031 255.627929688 1291.4765625 146.826171875 c 1
 1364.7578125 32.2685546875 1438.0390625 -82.2880859375 1511.3203125 -196.845703125 c 1
411.9453125 669.169921875 m 1
 411.9453125 892.529296875 411.9453125 1115.88867188 411.9453125 1339.24804688 c 1
 448.090820312 1339.24804688 484.237304688 1339.24804688 520.3828125 1339.24804688 c 1
 520.3828125 1147.89355469 520.3828125 956.540039062 520.3828125 765.185546875 c 1
 611.268554688 765.185546875 702.153320312 765.185546875 793.0390625 765.185546875 c 1
 793.0390625 733.180664062 793.0390625 701.174804688 793.0390625 669.169921875 c 1
 666.0078125 669.169921875 538.9765625 669.169921875 411.9453125 669.169921875 c 1
1050.3046875 669.169921875 m 1xf3
 1050.3046875 757.165039062 1050.3046875 845.159179688 1050.3046875 933.154296875 c 1
 973.5078125 1068.51855469 896.7109375 1203.88378906 819.9140625 1339.24804688 c 1
 861.190429688 1339.24804688 902.465820312 1339.24804688 943.7421875 1339.24804688 c 1
 998.143554688 1239.71679688 1052.54394531 1140.18554688 1106.9453125 1040.65429688 c 1
 1107.90917969 1040.65429688 1108.87207031 1040.65429688 1109.8359375 1040.65429688 c 1
 1163.92480469 1140.18554688 1218.01269531 1239.71679688 1272.1015625 1339.24804688 c 1
 1311.7890625 1339.24804688 1351.4765625 1339.24804688 1391.1640625 1339.24804688 c 1
 1313.71582031 1204.53417969 1236.26855469 1069.82128906 1158.8203125 935.107421875 c 1
 1158.8203125 846.461914062 1158.8203125 757.815429688 1158.8203125 669.169921875 c 1
 1122.6484375 669.169921875 1086.4765625 669.169921875 1050.3046875 669.169921875 c 1xf3
EndSplineSet
EndChar

StartChar: uniE118
Encoding: 57624 57624 25
Width: 1792
VWidth: 1732
Flags: HW
HStem: -15.4395 93.125<1083.51 1281.16> 73.857 91.25<418.508 570.842> 378.232 95<418.508 654.817 1169.79 1195.72> 669.17 96.0156<609.465 629.562 1148.12 1468.74> 961.04 95.9375<1148.12 1439.05> 1243.23 96.0156<1148.12 1468.74>
VStem: 310.07 108.438<-196.846 73.857 165.107 378.232> 334.367 112.344<1226.9 1339.25> 678.664 114.219<187.348 355.913> 793.273 109.375<1229.87 1339.25> 888.508 110.469<-196.846 -86.377> 1039.68 108.438<765.186 961.04 1056.98 1243.23> 1368.51 113.281<-196.846 -83.5645>
DStem2: 446.711 1339.25 334.367 1339.25 0.311738 -0.950168<0 589.564> 662.258 85.42 551.945 73.857 0.456936 -0.8895<0 262.07> 621.398 774.795 679.992 669.17 0.315331 0.948982<0 589.853> 888.508 -196.846 998.977 -196.846 0.303155 0.952941<33.4892 224.122 320.727 631.883> 1253.35 473.232 1185.23 373.389 0.305997 -0.952033<74.2085 385.084>
LayerCount: 2
UndoRedoHistory
Layer: 0
Undoes
UndoOperation
Index: 0
Type: 1
WasModified: 0
WasOrder2: 0
Layer: 2
Width: 1792
VWidth: 1792
LBearingChange: 0
UnicodeEnc: 0
InstructionsLength: 0
EndUndoOperation
EndUndoes
Redoes
EndRedoes
EndUndoRedoHistory
UndoRedoHistory
Layer: 1
Undoes
UndoOperation
Index: 0
Type: 3
WasModified: 0
WasOrder2: 0
Layer: 2
HStem: 44.5605 93.125<1083.51 1281.16> 133.857 91.25<418.508 570.842> 438.232 95<418.508 654.817 1169.79 1195.72> 729.17 96.0156<609.465 629.562 1148.12 1468.74> 1021.04 95.9375<1148.12 1439.05> 1303.23 96.0156<1148.12 1468.74>
VStem: 310.07 108.438<-136.846 133.857 225.107 438.232> 334.367 112.344<1286.9 1399.25> 678.664 114.219<247.348 415.913> 793.273 109.375<1289.87 1399.25> 888.508 110.469<-136.846 -26.377> 1039.68 108.438<825.186 1021.04 1116.98 1303.23> 1368.51 113.281<-136.846 -23.5645>
DStem2: 446.711 1399.25 334.367 1399.25 0.311738 -0.950168<0 589.564> 662.258 145.42 551.945 133.857 0.456936 -0.8895<0 262.07> 621.398 834.795 679.992 729.17 0.315331 0.948982<0 589.853> 888.508 -136.846 998.977 -136.846 0.303155 0.952941<33.4892 224.122 320.727 631.883> 1253.35 533.232 1185.23 433.389 0.305997 -0.952033<74.2085 385.084>
EndUndoOperation
EndUndoes
Redoes
EndRedoes
EndUndoRedoHistory
Fore
SplineSet
418.5078125 -196.845703125 m 1x7e98
 382.362304688 -196.845703125 346.215820312 -196.845703125 310.0703125 -196.845703125 c 1
 310.0703125 26.513671875 310.0703125 249.873046875 310.0703125 473.232421875 c 1
 406.372070312 473.232421875 502.674804688 473.232421875 598.9765625 473.232421875 c 1
 659.1328125 473.232421875 706.4765625 455.185546875 741.0078125 419.013671875 c 0
 775.5390625 382.841796875 792.8828125 333.701171875 792.8828125 271.669921875 c 0
 792.8828125 223.623046875 781.7890625 183.779296875 759.7578125 152.138671875 c 0
 737.7265625 120.419921875 705.2265625 98.232421875 662.2578125 85.419921875 c 1
 710.590820312 -8.6689453125 758.924804688 -102.756835938 807.2578125 -196.845703125 c 1
 766.9453125 -196.845703125 726.6328125 -196.845703125 686.3203125 -196.845703125 c 1
 641.528320312 -106.611328125 596.737304688 -16.376953125 551.9453125 73.857421875 c 1
 507.465820312 73.857421875 462.987304688 73.857421875 418.5078125 73.857421875 c 1
 418.5078125 -16.376953125 418.5078125 -106.611328125 418.5078125 -196.845703125 c 1x7e98
591.3203125 165.107421875 m 1
 618.8203125 165.107421875 640.2265625 172.294921875 655.5390625 186.669921875 c 0
 671.0078125 201.044921875 678.6640625 221.748046875 678.6640625 248.623046875 c 1
 678.6640625 263.961914062 678.6640625 279.299804688 678.6640625 294.638671875 c 1
 678.6640625 321.591796875 671.0078125 342.216796875 655.5390625 356.591796875 c 0
 640.2265625 370.966796875 618.8203125 378.232421875 591.3203125 378.232421875 c 1
 533.715820312 378.232421875 476.112304688 378.232421875 418.5078125 378.232421875 c 1
 418.5078125 307.190429688 418.5078125 236.149414062 418.5078125 165.107421875 c 1
 476.112304688 165.107421875 533.715820312 165.107421875 591.3203125 165.107421875 c 1
1368.5078125 -196.845703125 m 1
 1348.3515625 -136.376953125 1328.1953125 -75.908203125 1308.0390625 -15.439453125 c 1
 1224.54980469 -15.439453125 1141.05957031 -15.439453125 1057.5703125 -15.439453125 c 1
 1038.0390625 -75.908203125 1018.5078125 -136.376953125 998.9765625 -196.845703125 c 1
 962.153320312 -196.845703125 925.331054688 -196.845703125 888.5078125 -196.845703125 c 1xbcb8
 964.706054688 26.513671875 1040.90332031 249.873046875 1117.1015625 473.232421875 c 1
 1162.51855469 473.232421875 1207.93457031 473.232421875 1253.3515625 473.232421875 c 1
 1329.49707031 249.873046875 1405.64355469 26.513671875 1481.7890625 -196.845703125 c 1
 1444.02832031 -196.845703125 1406.26855469 -196.845703125 1368.5078125 -196.845703125 c 1
1185.2265625 373.388671875 m 1
 1183.61230469 373.388671875 1181.99707031 373.388671875 1180.3828125 373.388671875 c 1
 1148.09082031 274.821289062 1115.79980469 176.252929688 1083.5078125 77.685546875 c 1
 1149.39355469 77.685546875 1215.27832031 77.685546875 1281.1640625 77.685546875 c 1
 1249.18457031 176.252929688 1217.20605469 274.821289062 1185.2265625 373.388671875 c 1
554.2109375 669.169921875 m 1
 480.9296875 892.529296875 407.6484375 1115.88867188 334.3671875 1339.24804688 c 1
 371.815429688 1339.24804688 409.262695312 1339.24804688 446.7109375 1339.24804688 c 1
 482.231445312 1228.85742188 517.752929688 1118.46679688 553.2734375 1008.07617188 c 1
 574.6796875 930.315429688 596.0859375 852.555664062 617.4921875 774.794921875 c 1
 618.793945312 774.794921875 620.096679688 774.794921875 621.3984375 774.794921875 c 1
 643.168945312 852.555664062 664.940429688 930.315429688 686.7109375 1008.07617188 c 1
 722.231445312 1118.46679688 757.752929688 1228.85742188 793.2734375 1339.24804688 c 1
 829.731445312 1339.24804688 866.190429688 1339.24804688 902.6484375 1339.24804688 c 1x3dd8
 828.4296875 1115.88867188 754.2109375 892.529296875 679.9921875 669.169921875 c 1
 638.065429688 669.169921875 596.137695312 669.169921875 554.2109375 669.169921875 c 1
1039.6796875 669.169921875 m 1
 1039.6796875 892.529296875 1039.6796875 1115.88867188 1039.6796875 1339.24804688 c 1
 1182.70019531 1339.24804688 1325.72167969 1339.24804688 1468.7421875 1339.24804688 c 1
 1468.7421875 1307.24316406 1468.7421875 1275.23730469 1468.7421875 1243.23242188 c 1
 1361.8671875 1243.23242188 1254.9921875 1243.23242188 1148.1171875 1243.23242188 c 1
 1148.1171875 1181.14941406 1148.1171875 1119.06542969 1148.1171875 1056.98242188 c 1
 1245.09667969 1056.98242188 1342.07519531 1056.98242188 1439.0546875 1056.98242188 c 1
 1439.0546875 1025.00292969 1439.0546875 993.024414062 1439.0546875 961.044921875 c 1
 1342.07519531 961.044921875 1245.09667969 961.044921875 1148.1171875 961.044921875 c 1
 1148.1171875 895.758789062 1148.1171875 830.471679688 1148.1171875 765.185546875 c 1
 1254.9921875 765.185546875 1361.8671875 765.185546875 1468.7421875 765.185546875 c 1
 1468.7421875 733.180664062 1468.7421875 701.174804688 1468.7421875 669.169921875 c 1
 1325.72167969 669.169921875 1182.70019531 669.169921875 1039.6796875 669.169921875 c 1
EndSplineSet
EndChar

StartChar: uniE119
Encoding: 57625 57625 26
Width: 1792
VWidth: 1732
Flags: HW
HStem: 144.2 112.793<1049.91 1285.26 1418.46 1622.37> 883.36 98.4375<1239.05 1285.26>
VStem: 169.633 150<144.2 294.2> 179.203 159.57<822.228 981.8> 726.469 159.57<144.2 303.771 822.228 981.8> 1285.26 133.203<256.993 883.36>
DStem2: 169.633 144.2 319.633 144.2 0.552681 0.833393<82.9021 411.831 638.258 1005.04> 338.773 981.8 179.203 981.8 0.546973 -0.83715<0 365.574 522.989 913.254> 998.344 750.157 1081.16 675.841 0.683539 0.729914<1.88118 286.669>
LayerCount: 2
UndoRedoHistory
Layer: 0
Undoes
UndoOperation
Index: 0
Type: 1
WasModified: 0
WasOrder2: 0
Layer: 2
Width: 1792
VWidth: 1792
LBearingChange: 0
UnicodeEnc: 0
InstructionsLength: 0
EndUndoOperation
EndUndoes
Redoes
EndRedoes
EndUndoRedoHistory
UndoRedoHistory
Layer: 1
Undoes
UndoOperation
Index: 0
Type: 3
WasModified: 0
WasOrder2: 0
Layer: 2
HStem: 204.2 112.793<1049.91 1285.26 1418.46 1622.37> 943.36 98.4375<1239.05 1285.26>
VStem: 169.633 150<204.2 354.2> 179.203 159.57<882.228 1041.8> 726.469 159.57<204.2 363.771 882.228 1041.8> 1285.26 133.203<316.993 943.36>
DStem2: 169.633 204.2 319.633 204.2 0.552681 0.833393<82.9021 411.831 638.258 1005.04> 338.773 1041.8 179.203 1041.8 0.546973 -0.83715<0 365.574 522.989 913.254> 998.344 810.157 1081.16 735.841 0.683539 0.729914<1.88118 286.669>
EndUndoOperation
EndUndoes
Redoes
EndRedoes
EndUndoRedoHistory
Fore
SplineSet
886.0390625 144.200195312 m 1xdc
 832.848632812 144.200195312 779.659179688 144.200195312 726.46875 144.200195312 c 1
 658.825195312 255.397460938 591.182617188 366.595703125 523.5390625 477.793945312 c 1
 522.3671875 477.793945312 521.1953125 477.793945312 520.0234375 477.793945312 c 1
 453.2265625 366.595703125 386.4296875 255.397460938 319.6328125 144.200195312 c 1
 269.6328125 144.200195312 219.6328125 144.200195312 169.6328125 144.200195312 c 1xec
 259.997070312 287.005859375 350.362304688 429.811523438 440.7265625 572.618164062 c 1
 353.551757812 709.010742188 266.377929688 845.404296875 179.203125 981.797851562 c 1
 232.393554688 981.797851562 285.583007812 981.797851562 338.7734375 981.797851562 c 1
 402.379882812 877.793945312 465.987304688 773.790039062 529.59375 669.786132812 c 1
 530.375 669.786132812 531.15625 669.786132812 531.9375 669.786132812 c 1
 596.325195312 773.790039062 660.713867188 877.793945312 725.1015625 981.797851562 c 1
 775.1015625 981.797851562 825.1015625 981.797851562 875.1015625 981.797851562 c 1
 787.145507812 845.794921875 699.190429688 709.791992188 611.234375 573.790039062 c 1
 702.8359375 430.592773438 794.4375 287.396484375 886.0390625 144.200195312 c 1xdc
1049.90625 144.200195312 m 1
 1049.90625 181.797851562 1049.90625 219.395507812 1049.90625 256.993164062 c 1
 1128.35644531 256.993164062 1206.80761719 256.993164062 1285.2578125 256.993164062 c 1
 1285.2578125 465.782226562 1285.2578125 674.571289062 1285.2578125 883.360351562 c 1
 1282.00292969 883.360351562 1278.74707031 883.360351562 1275.4921875 883.360351562 c 1
 1210.71386719 814.186523438 1145.93457031 745.013671875 1081.15625 675.840820312 c 1
 1053.55175781 700.612304688 1025.94824219 725.384765625 998.34375 750.157226562 c 1
 1069.56738281 827.370117188 1140.79199219 904.583984375 1212.015625 981.797851562 c 1
 1280.83105469 981.797851562 1349.64550781 981.797851562 1418.4609375 981.797851562 c 1
 1418.4609375 740.196289062 1418.4609375 498.594726562 1418.4609375 256.993164062 c 1
 1486.4296875 256.993164062 1554.3984375 256.993164062 1622.3671875 256.993164062 c 1
 1622.3671875 219.395507812 1622.3671875 181.797851562 1622.3671875 144.200195312 c 1
 1431.546875 144.200195312 1240.7265625 144.200195312 1049.90625 144.200195312 c 1
EndSplineSet
EndChar

StartChar: uniE11A
Encoding: 57626 57626 27
Width: 1792
VWidth: 1732
Flags: HW
HStem: -208.33 85.3906<443.27 618.187 1139.04 1341.37> 140.107 85.4688<468.18 617.718> 395.498 89.2188<1163.21 1360.78> 657.686 89.2188<1388.21 1579.14> 669.17 92.1875<328.559 354.926> 942.76 85.4688<802.406 938.743> 1249.95 89.2969<802.406 1011.58 1380.73 1582.23>
VStem: 82.0938 106.562<1232.69 1339.25> 314.359 107.5<-102.67 120.457> 493.891 104.688<1234.56 1339.25> 638.891 107.5<-102.386 119.315> 700.609 101.797<669.17 942.76 1028.23 1249.95> 1040.14 101.719<228.688 375.925 1047.5 1230.69> 1233.73 109.453<795.416 1213> 1364.67 101.719<-98.4167 64.863>
DStem2: 188.656 1339.25 82.0938 1339.25 0.271727 -0.962374<0 593.586> 375.844 917.842 402.719 669.17 0.269742 0.962933<-155.735 437.628> 1024.12 950.42 922.406 942.76 0.413517 -0.910496<0 262.054> 1234.05 201.592 1215.77 105.576 0.978371 -0.206857<-75.1218 135.909>
LayerCount: 2
UndoRedoHistory
Layer: 0
Undoes
UndoOperation
Index: 0
Type: 1
WasModified: 0
WasOrder2: 0
Layer: 2
Width: 1792
VWidth: 1792
LBearingChange: 0
UnicodeEnc: 0
InstructionsLength: 0
EndUndoOperation
EndUndoes
Redoes
EndRedoes
EndUndoRedoHistory
UndoRedoHistory
Layer: 1
Undoes
UndoOperation
Index: 0
Type: 3
WasModified: 0
WasOrder2: 0
Layer: 2
HStem: -148.33 85.3906<443.27 618.187 1139.04 1341.37> 200.107 85.4688<468.18 617.718> 455.498 89.2188<1163.21 1360.78> 717.686 89.2188<1388.21 1579.14> 729.17 92.1875<328.559 354.926> 1002.76 85.4688<802.406 938.743> 1309.95 89.2969<802.406 1011.58 1380.73 1582.23>
VStem: 82.0938 106.562<1292.69 1399.25> 314.359 107.5<-42.67 180.457> 493.891 104.688<1294.56 1399.25> 638.891 107.5<-42.3858 179.315> 700.609 101.797<729.17 1002.76 1088.23 1309.95> 1040.14 101.719<288.688 435.925 1107.5 1290.69> 1233.73 109.453<855.416 1273> 1364.67 101.719<-38.4167 124.863>
DStem2: 188.656 1399.25 82.0938 1399.25 0.271727 -0.962374<0 593.586> 375.844 977.842 402.719 729.17 0.269742 0.962933<-155.735 437.628> 1024.12 1010.42 922.406 1002.76 0.413517 -0.910496<0 262.054> 1234.05 261.592 1215.77 165.576 0.978371 -0.206857<-75.1218 135.909>
EndUndoOperation
EndUndoes
Redoes
EndRedoes
EndUndoRedoHistory
Fore
SplineSet
530.296875 -208.330078125 m 0xe7ee
 458.734375 -208.330078125 404.828125 -186.298828125 368.578125 -142.158203125 c 0
 332.484375 -97.939453125 314.359375 -33.642578125 314.359375 50.810546875 c 0
 314.359375 91.123046875 319.515625 131.435546875 329.671875 171.826171875 c 0
 339.984375 212.138671875 354.671875 250.654296875 373.890625 287.451171875 c 0
 393.109375 324.248046875 415.921875 358.701171875 442.484375 390.654296875 c 0
 469.046875 422.685546875 498.734375 450.185546875 531.390625 473.232421875 c 1
 577.120117188 473.232421875 622.848632812 473.232421875 668.578125 473.232421875 c 1
 629.515625 443.154296875 595.921875 414.482421875 567.796875 387.294921875 c 0
 539.671875 360.107421875 515.765625 333.076171875 496.234375 306.201171875 c 0
 476.703125 279.326171875 460.921875 251.669921875 448.734375 223.154296875 c 0
 436.546875 194.638671875 427.328125 163.779296875 420.921875 130.498046875 c 1
 425.088867188 130.498046875 429.254882812 130.498046875 433.421875 130.498046875 c 1
 444.359375 161.201171875 461.546875 184.716796875 485.296875 201.044921875 c 0
 508.890625 217.373046875 537.015625 225.576171875 569.671875 225.576171875 c 0
 624.046875 225.576171875 667.171875 207.919921875 698.890625 172.763671875 c 0
 730.453125 137.529296875 746.390625 85.732421875 746.390625 17.216796875 c 0
 746.390625 -53.798828125 727.953125 -109.189453125 691.234375 -148.876953125 c 0
 654.359375 -188.564453125 600.765625 -208.330078125 530.296875 -208.330078125 c 0xe7ee
530.296875 -122.939453125 m 256
 602.640625 -122.939453125 638.890625 -83.251953125 638.890625 -3.876953125 c 1
 638.890625 4.4306640625 638.890625 12.7373046875 638.890625 21.044921875 c 1
 638.890625 100.419921875 602.640625 140.107421875 530.296875 140.107421875 c 256
 458.109375 140.107421875 421.859375 100.419921875 421.859375 21.044921875 c 1
 421.859375 12.7373046875 421.859375 4.4306640625 421.859375 -3.876953125 c 1
 421.859375 -83.251953125 458.109375 -122.939453125 530.296875 -122.939453125 c 256
1244.671875 -208.330078125 m 0
 1194.671875 -208.330078125 1151.390625 -198.955078125 1114.515625 -180.048828125 c 0
 1077.796875 -161.142578125 1046.234375 -133.798828125 1019.984375 -97.939453125 c 1
 1043.31738281 -76.5068359375 1066.65136719 -55.0751953125 1089.984375 -33.642578125 c 1
 1109.828125 -61.142578125 1132.640625 -82.314453125 1158.265625 -97.001953125 c 0
 1183.734375 -111.689453125 1212.953125 -119.111328125 1245.609375 -119.111328125 c 0
 1324.984375 -119.111328125 1364.671875 -82.626953125 1364.671875 -9.658203125 c 0
 1364.671875 19.794921875 1357.484375 42.373046875 1343.421875 57.998046875 c 0
 1329.359375 73.701171875 1305.140625 85.732421875 1270.453125 94.013671875 c 1
 1252.22363281 97.8681640625 1233.99511719 101.721679688 1215.765625 105.576171875 c 1
 1155.609375 119.013671875 1111.390625 140.576171875 1082.796875 170.341796875 c 0
 1054.359375 200.107421875 1040.140625 241.904296875 1040.140625 295.654296875 c 0
 1040.140625 357.685546875 1058.890625 404.716796875 1096.234375 436.748046875 c 0
 1133.734375 468.779296875 1186.078125 484.716796875 1253.265625 484.716796875 c 0
 1301.234375 484.716796875 1341.703125 476.591796875 1374.671875 460.263671875 c 0
 1407.640625 443.935546875 1436.234375 418.544921875 1460.609375 383.935546875 c 1
 1437.22363281 363.466796875 1413.83886719 342.998046875 1390.453125 322.529296875 c 1
 1373.265625 346.826171875 1353.890625 365.107421875 1332.484375 377.216796875 c 0
 1311.078125 389.404296875 1283.890625 395.498046875 1251.390625 395.498046875 c 0
 1214.828125 395.498046875 1187.484375 387.919921875 1169.203125 372.919921875 c 0
 1151.078125 357.841796875 1141.859375 333.076171875 1141.859375 298.544921875 c 0
 1141.859375 270.341796875 1149.046875 249.091796875 1163.421875 234.638671875 c 0
 1177.953125 220.263671875 1201.390625 209.248046875 1234.046875 201.591796875 c 1
 1252.27636719 197.424804688 1270.50488281 193.258789062 1288.734375 189.091796875 c 1
 1320.765625 182.060546875 1347.953125 173.232421875 1370.296875 162.685546875 c 0
 1392.796875 152.138671875 1411.234375 139.169921875 1425.609375 123.779296875 c 0
 1439.984375 108.466796875 1450.296875 90.341796875 1456.703125 69.560546875 c 0
 1463.109375 48.779296875 1466.390625 24.560546875 1466.390625 -2.939453125 c 0
 1466.390625 -70.126953125 1447.015625 -121.142578125 1408.265625 -156.064453125 c 0
 1369.515625 -190.908203125 1314.984375 -208.330078125 1244.671875 -208.330078125 c 0
278.890625 669.169921875 m 1xefce
 213.291992188 892.529296875 147.692382812 1115.88867188 82.09375 1339.24804688 c 1
 117.614257812 1339.24804688 153.135742188 1339.24804688 188.65625 1339.24804688 c 1
 228.317382812 1198.77929688 267.979492188 1058.31054688 307.640625 917.841796875 c 1
 316.9375 865.680664062 326.234375 813.518554688 335.53125 761.357421875 c 1
 339.671875 761.357421875 343.8125 761.357421875 347.953125 761.357421875 c 1
 357.25 813.518554688 366.546875 865.680664062 375.84375 917.841796875 c 1
 415.192382812 1058.31054688 454.541992188 1198.77929688 493.890625 1339.24804688 c 1
 528.786132812 1339.24804688 563.682617188 1339.24804688 598.578125 1339.24804688 c 1
 533.291992188 1115.88867188 468.004882812 892.529296875 402.71875 669.169921875 c 1
 361.442382812 669.169921875 320.166992188 669.169921875 278.890625 669.169921875 c 1xefce
802.40625 669.169921875 m 1xefde
 768.473632812 669.169921875 734.541992188 669.169921875 700.609375 669.169921875 c 1
 700.609375 892.529296875 700.609375 1115.88867188 700.609375 1339.24804688 c 1
 788.942382812 1339.24804688 877.276367188 1339.24804688 965.609375 1339.24804688 c 1
 1023.1875 1339.24804688 1066.546875 1322.13867188 1095.6875 1287.91992188 c 0
 1124.75 1253.62304688 1139.359375 1204.56054688 1139.359375 1140.49804688 c 0
 1139.359375 1088.70117188 1129.75 1046.74804688 1110.53125 1014.79492188 c 0
 1091.3125 982.763671875 1062.5625 961.357421875 1024.125 950.419921875 c 1
 1066.703125 856.669921875 1109.28125 762.919921875 1151.859375 669.169921875 c 1
 1114.09863281 669.169921875 1076.33886719 669.169921875 1038.578125 669.169921875 c 1
 999.854492188 760.368164062 961.129882812 851.565429688 922.40625 942.763671875 c 1
 882.40625 942.763671875 842.40625 942.763671875 802.40625 942.763671875 c 1
 802.40625 851.565429688 802.40625 760.368164062 802.40625 669.169921875 c 1xefde
956.9375 1028.23242188 m 1
 981.234375 1028.23242188 999.671875 1034.48242188 1012.171875 1046.90429688 c 0
 1024.59375 1059.40429688 1030.84375 1079.71679688 1030.84375 1107.91992188 c 1
 1030.84375 1128.70117188 1030.84375 1149.48242188 1030.84375 1170.26367188 c 1
 1030.84375 1198.46679688 1024.59375 1218.77929688 1012.171875 1231.27929688 c 0
 999.671875 1243.70117188 981.234375 1249.95117188 956.9375 1249.95117188 c 1
 905.426757812 1249.95117188 853.916992188 1249.95117188 802.40625 1249.95117188 c 1
 802.40625 1176.04492188 802.40625 1102.13867188 802.40625 1028.23242188 c 1
 853.916992188 1028.23242188 905.426757812 1028.23242188 956.9375 1028.23242188 c 1
1487.171875 657.685546875 m 0xf7ce
 1448.109375 657.685546875 1413.109375 664.248046875 1382.09375 677.294921875 c 0
 1351 690.419921875 1324.4375 711.123046875 1302.40625 739.248046875 c 0
 1280.296875 767.373046875 1263.34375 803.388671875 1251.46875 847.216796875 c 0
 1239.671875 891.123046875 1233.734375 943.388671875 1233.734375 1004.24804688 c 256
 1233.734375 1065.02929688 1239.671875 1117.29492188 1251.46875 1161.20117188 c 0
 1263.34375 1205.02929688 1280.296875 1241.04492188 1302.40625 1269.16992188 c 0
 1324.4375 1297.29492188 1351 1317.99804688 1382.09375 1331.12304688 c 0
 1413.109375 1344.24804688 1448.109375 1350.73242188 1487.171875 1350.73242188 c 0
 1544.125 1350.73242188 1589.75 1338.46679688 1623.96875 1313.77929688 c 0
 1658.1875 1289.16992188 1685.609375 1252.21679688 1706.078125 1202.91992188 c 1
 1677.27636719 1186.93066406 1648.47363281 1170.94042969 1619.671875 1154.95117188 c 1
 1608.109375 1192.68554688 1592.015625 1219.87304688 1571.15625 1236.51367188 c 0
 1550.375 1253.15429688 1522.40625 1261.51367188 1487.171875 1261.51367188 c 0
 1441.78125 1261.51367188 1406.390625 1245.81054688 1381.078125 1214.48242188 c 0
 1355.84375 1183.07617188 1343.1875 1139.87304688 1343.1875 1084.87304688 c 1
 1343.1875 1031.09667969 1343.1875 977.321289062 1343.1875 923.544921875 c 1
 1343.1875 868.544921875 1355.84375 825.341796875 1381.078125 793.935546875 c 0
 1406.390625 762.607421875 1441.78125 746.904296875 1487.171875 746.904296875 c 0
 1523.03125 746.904296875 1552.015625 755.888671875 1574.046875 773.779296875 c 0
 1596.15625 791.748046875 1613.265625 820.498046875 1625.453125 860.185546875 c 1
 1653.60449219 843.544921875 1681.75488281 826.904296875 1709.90625 810.263671875 c 1
 1688.8125 761.044921875 1660.609375 723.232421875 1625.453125 696.982421875 c 0
 1590.21875 670.732421875 1544.125 657.685546875 1487.171875 657.685546875 c 0xf7ce
EndSplineSet
EndChar

StartChar: uniE11B
Encoding: 57627 57627 28
Width: 1792
VWidth: 1732
Flags: HW
HStem: -208.33 96.9531<1073.4 1297.1> 377.217 96.0156<306.547 506.234 614.672 814.359 1062.75 1307.77> 657.686 96.9531<474.093 697.732> 1243.23 96.0156<463.45 708.394 987.25 1186.94 1295.38 1495.06>
VStem: 296.938 116.25<818.332 1190.09> 506.234 108.438<-196.846 377.217> 758.656 116.25<818.332 1190.09> 896.312 116.172<-47.6831 324.07> 1186.94 108.438<669.17 1243.23> 1358.03 116.172<-47.6831 324.07>
LayerCount: 2
UndoRedoHistory
Layer: 0
Undoes
UndoOperation
Index: 0
Type: 1
WasModified: 0
WasOrder2: 0
Layer: 2
Width: 1792
VWidth: 1792
LBearingChange: 0
UnicodeEnc: 0
InstructionsLength: 0
EndUndoOperation
EndUndoes
Redoes
EndRedoes
EndUndoRedoHistory
UndoRedoHistory
Layer: 1
Undoes
UndoOperation
Index: 0
Type: 3
WasModified: 0
WasOrder2: 0
Layer: 2
HStem: -148.33 96.9531<1073.4 1297.1> 437.217 96.0156<306.547 506.234 614.672 814.359 1062.75 1307.77> 717.686 96.9531<474.093 697.732> 1303.23 96.0156<463.45 708.394 987.25 1186.94 1295.38 1495.06>
VStem: 296.938 116.25<878.332 1250.09> 506.234 108.438<-136.846 437.217> 758.656 116.25<878.332 1250.09> 896.312 116.172<12.3169 384.07> 1186.94 108.438<729.17 1303.23> 1358.03 116.172<12.3169 384.07>
EndUndoOperation
EndUndoes
Redoes
EndRedoes
EndUndoRedoHistory
Fore
SplineSet
614.671875 377.216796875 m 1
 614.671875 185.862304688 614.671875 -5.4912109375 614.671875 -196.845703125 c 1
 578.526367188 -196.845703125 542.379882812 -196.845703125 506.234375 -196.845703125 c 1
 506.234375 -5.4912109375 506.234375 185.862304688 506.234375 377.216796875 c 1
 439.671875 377.216796875 373.109375 377.216796875 306.546875 377.216796875 c 1
 306.546875 409.221679688 306.546875 441.227539062 306.546875 473.232421875 c 1
 475.817382812 473.232421875 645.088867188 473.232421875 814.359375 473.232421875 c 1
 814.359375 441.227539062 814.359375 409.221679688 814.359375 377.216796875 c 1
 747.796875 377.216796875 681.234375 377.216796875 614.671875 377.216796875 c 1
1185.296875 -208.330078125 m 256
 1141.703125 -208.330078125 1102.25 -200.830078125 1066.703125 -185.830078125 c 0
 1031.15625 -170.751953125 1000.765625 -148.720703125 975.53125 -119.580078125 c 0
 950.21875 -90.439453125 930.6875 -54.267578125 916.9375 -11.064453125 c 0
 903.1875 32.138671875 896.3125 81.904296875 896.3125 138.232421875 c 256
 896.3125 194.482421875 903.1875 244.248046875 916.9375 287.451171875 c 0
 930.6875 330.654296875 950.21875 366.826171875 975.53125 395.966796875 c 0
 1000.765625 425.107421875 1031.15625 447.138671875 1066.703125 462.216796875 c 0
 1102.25 477.216796875 1141.703125 484.716796875 1185.296875 484.716796875 c 256
 1228.8125 484.716796875 1268.265625 477.216796875 1303.8125 462.216796875 c 0
 1339.359375 447.138671875 1369.75 425.107421875 1394.984375 395.966796875 c 0
 1420.296875 366.826171875 1439.828125 330.654296875 1453.578125 287.451171875 c 0
 1467.328125 244.248046875 1474.203125 194.482421875 1474.203125 138.232421875 c 256
 1474.203125 81.904296875 1467.328125 32.138671875 1453.578125 -11.064453125 c 0
 1439.828125 -54.267578125 1420.296875 -90.439453125 1394.984375 -119.580078125 c 0
 1369.75 -148.720703125 1339.359375 -170.751953125 1303.8125 -185.830078125 c 0
 1268.265625 -200.830078125 1228.8125 -208.330078125 1185.296875 -208.330078125 c 256
1185.296875 -111.376953125 m 0
 1210.84375 -111.376953125 1234.359375 -106.923828125 1255.84375 -97.939453125 c 0
 1277.25 -89.033203125 1295.53125 -76.064453125 1310.53125 -59.111328125 c 0
 1325.609375 -42.158203125 1337.25 -21.455078125 1345.609375 2.841796875 c 0
 1353.890625 27.138671875 1358.03125 54.638671875 1358.03125 85.419921875 c 1
 1358.03125 120.602539062 1358.03125 155.784179688 1358.03125 190.966796875 c 1
 1358.03125 221.748046875 1353.890625 249.248046875 1345.609375 273.544921875 c 0
 1337.25 297.841796875 1325.609375 318.544921875 1310.53125 335.498046875 c 0
 1295.53125 352.451171875 1277.25 365.419921875 1255.84375 374.326171875 c 0
 1234.359375 383.310546875 1210.84375 387.763671875 1185.296875 387.763671875 c 0
 1159.046875 387.763671875 1135.375 383.310546875 1114.203125 374.326171875 c 0
 1093.109375 365.419921875 1074.984375 352.451171875 1059.984375 335.498046875 c 0
 1044.90625 318.544921875 1033.265625 297.841796875 1024.90625 273.544921875 c 0
 1016.625 249.248046875 1012.484375 221.748046875 1012.484375 190.966796875 c 1
 1012.484375 155.784179688 1012.484375 120.602539062 1012.484375 85.419921875 c 1
 1012.484375 54.638671875 1016.625 27.138671875 1024.90625 2.841796875 c 0
 1033.265625 -21.455078125 1044.90625 -42.158203125 1059.984375 -59.111328125 c 0
 1074.984375 -76.064453125 1093.109375 -89.033203125 1114.203125 -97.939453125 c 0
 1135.375 -106.923828125 1159.046875 -111.376953125 1185.296875 -111.376953125 c 0
586 657.685546875 m 256
 542.40625 657.685546875 502.875 665.185546875 467.40625 680.185546875 c 0
 431.78125 695.263671875 401.46875 717.294921875 376.15625 746.435546875 c 0
 350.84375 775.576171875 331.3125 811.748046875 317.5625 854.951171875 c 0
 303.8125 898.154296875 296.9375 947.919921875 296.9375 1004.24804688 c 256
 296.9375 1060.49804688 303.8125 1110.26367188 317.5625 1153.46679688 c 0
 331.3125 1196.66992188 350.84375 1232.84179688 376.15625 1261.98242188 c 0
 401.46875 1291.12304688 431.78125 1313.15429688 467.40625 1328.23242188 c 0
 502.875 1343.23242188 542.40625 1350.73242188 586 1350.73242188 c 256
 629.4375 1350.73242188 668.96875 1343.23242188 704.4375 1328.23242188 c 0
 740.0625 1313.15429688 770.375 1291.12304688 795.6875 1261.98242188 c 0
 821 1232.84179688 840.53125 1196.66992188 854.28125 1153.46679688 c 0
 868.03125 1110.26367188 874.90625 1060.49804688 874.90625 1004.24804688 c 256
 874.90625 947.919921875 868.03125 898.154296875 854.28125 854.951171875 c 0
 840.53125 811.748046875 821 775.576171875 795.6875 746.435546875 c 0
 770.375 717.294921875 740.0625 695.263671875 704.4375 680.185546875 c 0
 668.96875 665.185546875 629.4375 657.685546875 586 657.685546875 c 256
586 754.638671875 m 0
 611.46875 754.638671875 635.0625 759.091796875 656.46875 768.076171875 c 0
 677.875 776.982421875 696.15625 789.951171875 711.15625 806.904296875 c 0
 726.3125 823.857421875 737.875 844.560546875 746.3125 868.857421875 c 0
 754.59375 893.154296875 758.65625 920.654296875 758.65625 951.435546875 c 1
 758.65625 986.618164062 758.65625 1021.79980469 758.65625 1056.98242188 c 1
 758.65625 1087.76367188 754.59375 1115.26367188 746.3125 1139.56054688 c 0
 737.875 1163.85742188 726.3125 1184.56054688 711.15625 1201.51367188 c 0
 696.15625 1218.46679688 677.875 1231.43554688 656.46875 1240.34179688 c 0
 635.0625 1249.32617188 611.46875 1253.77929688 586 1253.77929688 c 0
 559.75 1253.77929688 536 1249.32617188 514.90625 1240.34179688 c 0
 493.8125 1231.43554688 475.6875 1218.46679688 460.6875 1201.51367188 c 0
 445.53125 1184.56054688 433.96875 1163.85742188 425.53125 1139.56054688 c 0
 417.25 1115.26367188 413.1875 1087.76367188 413.1875 1056.98242188 c 1
 413.1875 1021.79980469 413.1875 986.618164062 413.1875 951.435546875 c 1
 413.1875 920.654296875 417.25 893.154296875 425.53125 868.857421875 c 0
 433.96875 844.560546875 445.53125 823.857421875 460.6875 806.904296875 c 0
 475.6875 789.951171875 493.8125 776.982421875 514.90625 768.076171875 c 0
 536 759.091796875 559.75 754.638671875 586 754.638671875 c 0
1295.375 1243.23242188 m 1
 1295.375 1051.87792969 1295.375 860.524414062 1295.375 669.169921875 c 1
 1259.22949219 669.169921875 1223.08300781 669.169921875 1186.9375 669.169921875 c 1
 1186.9375 860.524414062 1186.9375 1051.87792969 1186.9375 1243.23242188 c 1
 1120.375 1243.23242188 1053.8125 1243.23242188 987.25 1243.23242188 c 1
 987.25 1275.23730469 987.25 1307.24316406 987.25 1339.24804688 c 1
 1156.52050781 1339.24804688 1325.79199219 1339.24804688 1495.0625 1339.24804688 c 1
 1495.0625 1307.24316406 1495.0625 1275.23730469 1495.0625 1243.23242188 c 1
 1428.5 1243.23242188 1361.9375 1243.23242188 1295.375 1243.23242188 c 1
EndSplineSet
EndChar

StartChar: uniE11C
Encoding: 57628 57628 29
Width: 1792
VWidth: 1732
Flags: HW
HStem: -202.66 89.2188<744.623 935.553> 79.527 90.2344<158.82 367.996> 333.98 144.922<1268.27 1295.6 1615.77 1643.59> 388.668 90.2344<158.82 367.996 736.426 938.646> 1200 144.922<713.898 741.227 1061.4 1089.21>
VStem: 57.0234 101.797<-191.176 79.527 169.762 388.668> 387.258 108.516<189.103 369.33> 590.148 109.453<-64.9293 352.656> 622.648 97.9688<674.84 1198.24> 1082.49 97.9688<674.84 1200.09> 1177.02 97.9688<-191.176 332.225> 1636.87 97.9688<-191.176 334.071>
DStem2: 742.648 1344.92 725.383 1200 0.416929 -0.908939<124.527 395.989> 1297.02 478.902 1279.76 333.98 0.416929 -0.908939<124.527 395.989>
LayerCount: 2
UndoRedoHistory
Layer: 0
Undoes
UndoOperation
Index: 0
Type: 1
WasModified: 0
WasOrder2: 0
Layer: 2
Width: 1792
VWidth: 1792
LBearingChange: 0
UnicodeEnc: 0
InstructionsLength: 0
EndUndoOperation
EndUndoes
Redoes
EndRedoes
EndUndoRedoHistory
UndoRedoHistory
Layer: 1
Undoes
UndoOperation
Index: 0
Type: 3
WasModified: 0
WasOrder2: 0
Layer: 2
HStem: -142.66 89.2188<744.623 935.553> 139.527 90.2344<158.82 367.996> 393.98 144.922<1268.27 1295.6 1615.77 1643.59> 448.668 90.2344<158.82 367.996 736.426 938.646> 1260 144.922<713.898 741.227 1061.4 1089.21>
VStem: 57.0234 101.797<-131.176 139.527 229.762 448.668> 387.258 108.516<249.103 429.33> 590.148 109.453<-4.92935 412.656> 622.648 97.9688<734.84 1258.24> 1082.49 97.9688<734.84 1260.09> 1177.02 97.9688<-131.176 392.225> 1636.87 97.9688<-131.176 394.071>
DStem2: 742.648 1404.92 725.383 1260 0.416929 -0.908939<124.527 395.989> 1297.02 538.902 1279.76 393.98 0.416929 -0.908939<124.527 395.989>
EndUndoOperation
EndUndoes
Redoes
EndRedoes
EndUndoRedoHistory
Fore
SplineSet
57.0234375 -191.17578125 m 1xde10
 57.0234375 32.18359375 57.0234375 255.54296875 57.0234375 478.90234375 c 1
 145.356445312 478.90234375 233.690429688 478.90234375 322.0234375 478.90234375 c 1
 379.6015625 478.90234375 422.9609375 461.79296875 452.1015625 427.57421875 c 0
 481.1640625 393.27734375 495.7734375 343.90234375 495.7734375 279.21484375 c 256
 495.7734375 214.60546875 481.1640625 165.15234375 452.1015625 130.93359375 c 0
 422.9609375 96.63671875 379.6015625 79.52734375 322.0234375 79.52734375 c 1
 267.622070312 79.52734375 213.221679688 79.52734375 158.8203125 79.52734375 c 1
 158.8203125 -10.70703125 158.8203125 -100.94140625 158.8203125 -191.17578125 c 1
 124.887695312 -191.17578125 90.9560546875 -191.17578125 57.0234375 -191.17578125 c 1xde10
158.8203125 169.76171875 m 1
 210.331054688 169.76171875 261.840820312 169.76171875 313.3515625 169.76171875 c 1
 337.6484375 169.76171875 356.0859375 176.01171875 368.5859375 188.51171875 c 0
 381.0078125 201.01171875 387.2578125 221.01171875 387.2578125 248.51171875 c 1
 387.2578125 268.98046875 387.2578125 289.44921875 387.2578125 309.91796875 c 1
 387.2578125 337.49609375 381.0078125 357.49609375 368.5859375 369.91796875 c 0
 356.0859375 382.41796875 337.6484375 388.66796875 313.3515625 388.66796875 c 1
 261.840820312 388.66796875 210.331054688 388.66796875 158.8203125 388.66796875 c 1
 158.8203125 315.69921875 158.8203125 242.73046875 158.8203125 169.76171875 c 1
843.5859375 -202.66015625 m 0
 804.5234375 -202.66015625 769.5234375 -196.09765625 738.5078125 -183.05078125 c 0
 707.4140625 -169.92578125 680.8515625 -149.22265625 658.8203125 -121.09765625 c 0
 636.7109375 -92.97265625 619.7578125 -56.95703125 607.8828125 -13.12890625 c 0
 596.0859375 30.77734375 590.1484375 83.04296875 590.1484375 143.90234375 c 256
 590.1484375 204.68359375 596.0859375 256.94921875 607.8828125 300.85546875 c 0
 619.7578125 344.68359375 636.7109375 380.69921875 658.8203125 408.82421875 c 0
 680.8515625 436.94921875 707.4140625 457.65234375 738.5078125 470.77734375 c 0
 769.5234375 483.90234375 804.5234375 490.38671875 843.5859375 490.38671875 c 0
 900.5390625 490.38671875 946.1640625 478.122070312 980.3828125 453.43359375 c 0
 1014.6015625 428.82421875 1042.0234375 391.87109375 1062.4921875 342.57421875 c 1
 1033.69042969 326.584960938 1004.88769531 310.595703125 976.0859375 294.60546875 c 1
 964.5234375 332.33984375 948.4296875 359.528320312 927.5703125 376.16796875 c 0
 906.7890625 392.80859375 878.8203125 401.16796875 843.5859375 401.16796875 c 0
 798.1953125 401.16796875 762.8046875 385.46484375 737.4921875 354.13671875 c 0
 712.2578125 322.73046875 699.6015625 279.52734375 699.6015625 224.52734375 c 1
 699.6015625 170.751953125 699.6015625 116.975585938 699.6015625 63.19921875 c 1xcf10
 699.6015625 8.19921875 712.2578125 -35.00390625 737.4921875 -66.41015625 c 0
 762.8046875 -97.73828125 798.1953125 -113.44140625 843.5859375 -113.44140625 c 0
 879.4453125 -113.44140625 908.4296875 -104.45703125 930.4609375 -86.56640625 c 0
 952.5703125 -68.59765625 969.6796875 -39.84765625 981.8671875 -0.16015625 c 1
 1010.01855469 -16.80078125 1038.16894531 -33.44140625 1066.3203125 -50.08203125 c 1
 1045.2265625 -99.30078125 1017.0234375 -137.11328125 981.8671875 -163.36328125 c 0
 946.6328125 -189.61328125 900.5390625 -202.66015625 843.5859375 -202.66015625 c 0
1636.8671875 221.63671875 m 1
 1639.10644531 259.709960938 1641.34667969 297.783203125 1643.5859375 335.85546875 c 1
 1639.7578125 335.85546875 1635.9296875 335.85546875 1632.1015625 335.85546875 c 1
 1616.73730469 298.408203125 1601.37207031 260.959960938 1586.0078125 223.51171875 c 1
 1542.4921875 132.65234375 1498.9765625 41.79296875 1455.4609375 -49.06640625 c 1
 1412.2578125 41.79296875 1369.0546875 132.65234375 1325.8515625 223.51171875 c 1
 1310.48730469 260.334960938 1295.12207031 297.158203125 1279.7578125 333.98046875 c 1
 1275.9296875 333.98046875 1272.1015625 333.98046875 1268.2734375 333.98046875 c 1xee30
 1270.51269531 296.533203125 1272.75292969 259.084960938 1274.9921875 221.63671875 c 1
 1274.9921875 84.033203125 1274.9921875 -53.5712890625 1274.9921875 -191.17578125 c 1
 1242.3359375 -191.17578125 1209.6796875 -191.17578125 1177.0234375 -191.17578125 c 1
 1177.0234375 32.18359375 1177.0234375 255.54296875 1177.0234375 478.90234375 c 1
 1217.0234375 478.90234375 1257.0234375 478.90234375 1297.0234375 478.90234375 c 1xde30
 1333.1953125 400.830078125 1369.3671875 322.756835938 1405.5390625 244.68359375 c 1
 1421.21582031 200.517578125 1436.89355469 156.350585938 1452.5703125 112.18359375 c 1
 1455.43457031 112.18359375 1458.29980469 112.18359375 1461.1640625 112.18359375 c 1
 1476.8671875 156.350585938 1492.5703125 200.517578125 1508.2734375 244.68359375 c 1
 1544.10644531 322.756835938 1579.94042969 400.830078125 1615.7734375 478.90234375 c 1xee30
 1655.4609375 478.90234375 1695.1484375 478.90234375 1734.8359375 478.90234375 c 1xde30
 1734.8359375 255.54296875 1734.8359375 32.18359375 1734.8359375 -191.17578125 c 1
 1702.1796875 -191.17578125 1669.5234375 -191.17578125 1636.8671875 -191.17578125 c 1
 1636.8671875 -53.5712890625 1636.8671875 84.033203125 1636.8671875 221.63671875 c 1
1082.4921875 1087.65234375 m 1xced0
 1084.73144531 1125.72558594 1086.97167969 1163.79882812 1089.2109375 1201.87109375 c 1
 1085.3828125 1201.87109375 1081.5546875 1201.87109375 1077.7265625 1201.87109375 c 1
 1062.36230469 1164.42382812 1046.99707031 1126.97558594 1031.6328125 1089.52734375 c 1
 988.1171875 998.66796875 944.6015625 907.80859375 901.0859375 816.94921875 c 1
 857.8828125 907.80859375 814.6796875 998.66796875 771.4765625 1089.52734375 c 1
 756.112304688 1126.35058594 740.747070312 1163.17382812 725.3828125 1199.99609375 c 1
 721.5546875 1199.99609375 717.7265625 1199.99609375 713.8984375 1199.99609375 c 1
 716.137695312 1162.54882812 718.377929688 1125.10058594 720.6171875 1087.65234375 c 1
 720.6171875 950.048828125 720.6171875 812.444335938 720.6171875 674.83984375 c 1
 687.9609375 674.83984375 655.3046875 674.83984375 622.6484375 674.83984375 c 1
 622.6484375 898.19921875 622.6484375 1121.55859375 622.6484375 1344.91796875 c 1
 662.6484375 1344.91796875 702.6484375 1344.91796875 742.6484375 1344.91796875 c 1
 778.8203125 1266.84570312 814.9921875 1188.77246094 851.1640625 1110.69921875 c 1
 866.840820312 1066.53320312 882.518554688 1022.36621094 898.1953125 978.19921875 c 1
 901.059570312 978.19921875 903.924804688 978.19921875 906.7890625 978.19921875 c 1
 922.4921875 1022.36621094 938.1953125 1066.53320312 953.8984375 1110.69921875 c 1
 989.731445312 1188.77246094 1025.56542969 1266.84570312 1061.3984375 1344.91796875 c 1
 1101.0859375 1344.91796875 1140.7734375 1344.91796875 1180.4609375 1344.91796875 c 1
 1180.4609375 1121.55859375 1180.4609375 898.19921875 1180.4609375 674.83984375 c 1
 1147.8046875 674.83984375 1115.1484375 674.83984375 1082.4921875 674.83984375 c 1
 1082.4921875 812.444335938 1082.4921875 950.048828125 1082.4921875 1087.65234375 c 1xced0
EndSplineSet
EndChar

